<?xml version="1.0" standalone="no"?>
<!DOCTYPE svg PUBLIC "-//W3C//DTD SVG 1.1//EN" "http://www.w3.org/Graphics/SVG/1.1/DTD/svg11.dtd" >
<svg xmlns="http://www.w3.org/2000/svg" xmlns:xlink="http://www.w3.org/1999/xlink" version="1.1">
<metadata>
Created by FontForge 20170731 at Mon Oct 23 15:56:11 2017
 By Aleksey,,,
Copyright 2011 The Alegreya Project Authors (https://github.com/huertatipografica/Alegreya)
</metadata>
<defs>
<font id="Alegreya-BlackItalic" horiz-adv-x="0" >
  <font-face 
    font-family="Alegreya Black"
    font-weight="900"
    font-style="italic"
    font-stretch="normal"
    units-per-em="1000"
    panose-1="0 0 10 0 0 0 0 0 0 0"
    ascent="800"
    descent="-200"
    x-height="474"
    cap-height="652"
    bbox="-473 -345 1420 1123"
    underline-thickness="100"
    underline-position="-290"
    slope="-7"
    unicode-range="U+000D-FB02"
  />
<missing-glyph horiz-adv-x="641" 
d="M336 228l321 -321l-16 -16l-321 321l-321 -321l-16 16l321 321l-321 321l16 16l321 -321l321 321l16 -16z" />
    <glyph glyph-name="Idieresis" unicode="&#xa8;I" horiz-adv-x="359" 
d="M287.5 290q-20.5 -138 -20.5 -165q0 -22 5.5 -30t19.5 -8q13 0 21 1t10 2l6 -10l-19 -84q-20 1 -70 2.5t-93 1.5q-39 0 -93 -2t-71 -3l18 85q40 9 53.5 24.5t18.5 57.5l43 346q2 18 2 22q0 17 -7 23t-23 6l-24 -1l-8 14l17 75h159q44 0 96.5 2t73.5 3l-18 -90
q-33 -5 -44 -14.5t-17 -37.5q-15 -82 -35.5 -220zM96 702.5q-18 17.5 -18 49.5q0 45 26.5 72.5t70.5 27.5q33 0 51 -18t18 -50q0 -44 -26.5 -71.5t-69.5 -27.5q-34 0 -52 17.5zM283.5 702.5q-18.5 17.5 -18.5 49.5q0 45 26.5 72.5t70.5 27.5q34 0 52 -18t18 -50
q0 -44 -26.5 -71.5t-69.5 -27.5q-34 0 -52.5 17.5z" />
    <glyph glyph-name="Odieresis" unicode="&#xa8;O" horiz-adv-x="633" 
d="M88 57.5q-70 69.5 -70 198.5q0 194 90.5 298.5t263.5 104.5q128 0 197 -66.5t69 -194.5q0 -194 -92 -302t-263 -108q-125 0 -195 69.5zM384.5 181q22.5 67 22.5 221q0 61 -16 90.5t-49 29.5q-50 0 -72.5 -67.5t-22.5 -220.5q0 -61 15.5 -90.5t47.5 -29.5q52 0 74.5 67z
M223 702.5q-18 17.5 -18 49.5q0 45 26.5 72.5t70.5 27.5q33 0 51 -18t18 -50q0 -44 -26.5 -71.5t-69.5 -27.5q-34 0 -52 17.5zM410.5 702.5q-18.5 17.5 -18.5 49.5q0 45 26.5 72.5t70.5 27.5q34 0 52 -18t18 -50q0 -44 -26.5 -71.5t-69.5 -27.5q-34 0 -52.5 17.5z" />
    <glyph glyph-name="Yacute" unicode="&#xb4;Y" horiz-adv-x="650" 
d="M343 473q11 -47 22 -86h14l50 114q18 33 18 46q0 8 -7.5 11t-26.5 3l-2 6l18 79h155q32 0 66.5 1.5t44.5 2.5l3 -8l-18 -87q-33 -19 -66 -52t-56 -74l-110 -182q-13 -24 -17.5 -43t-8.5 -50q-2 -16 -2 -22q0 -22 10 -31.5t33 -9.5q18 0 32 1t18 2l4 -6l-20 -94
q-24 1 -96 3.5t-108 2.5q-39 0 -108.5 -4t-92.5 -5l19 92q43 3 65 10.5t32 23t14 45.5l2 16q1 7 1 20q0 28 -17 70l-80 199q-20 53 -84 84l-4 6l21 91l148 -2q27 0 91.5 3t85.5 4l6 -11l-19 -82q-41 0 -41 -27q0 -13 11 -60zM445.5 723q-77.5 -16 -154.5 -35l-19 13l-21 71
q77 29 152 60t97 40l16 -5l36 -108l-7 -16q-22 -4 -99.5 -20z" />
    <glyph glyph-name="idieresis" unicode="&#xa8;i" horiz-adv-x="304" 
d="M231.5 163q11.5 9 36.5 32l23 -4l20 -48q-76 -88 -122 -121.5t-88 -33.5q-66 0 -66 67q45 266 45 291q0 17 -8 25t-25 8h-28l12 82q81 0 223 12l16 -20q-16 -62 -32.5 -145.5t-25.5 -150.5l4 -3q4 0 15.5 9zM38.5 562q-17.5 17 -17.5 48q0 44 26 71t68 27
q33 0 50.5 -17.5t17.5 -48.5q0 -43 -26 -70t-68 -27q-33 0 -50.5 17zM207.5 562q-17.5 17 -17.5 48q0 44 26 71t68 27q33 0 50.5 -17.5t17.5 -48.5q0 -43 -26 -70t-67 -27q-34 0 -51.5 17z" />
    <glyph glyph-name="odieresis" unicode="&#xa8;o" horiz-adv-x="486" 
d="M65.5 39q-46.5 51 -46.5 145q0 90 33.5 158t94.5 105t142 37q87 0 133 -48.5t46 -140.5t-33.5 -161.5t-94.5 -107.5t-142 -38q-86 0 -132.5 51zM267.5 109.5q10.5 14.5 15.5 49.5t5 100q0 57 -8.5 81t-29.5 24q-29 0 -40.5 -32.5t-11.5 -116.5q0 -67 8.5 -93.5
t30.5 -26.5q20 0 30.5 14.5zM132 566.5q-18 17.5 -18 49.5q0 45 26.5 72.5t70.5 27.5q34 0 52 -18t18 -50q0 -44 -27 -71.5t-70 -27.5q-34 0 -52 17.5zM320 566q-18 17 -18 50q0 45 26.5 72.5t70.5 27.5q34 0 52 -18t18 -50q0 -44 -26.5 -71.5t-69.5 -27.5q-35 0 -53 17z
" />
    <glyph glyph-name="yacute" unicode="&#xb4;y" horiz-adv-x="488" 
d="M459 484q12 -15 18.5 -40.5t6.5 -57.5q0 -61 -48 -155.5t-147 -230.5q-94 -128 -165 -185t-138 -57q-39 0 -70 17t-40 43q21 69 65 121l15 1q21 -27 39 -39.5t36 -12.5q19 0 40 13.5t48 42.5q-43 337 -59 408q-4 17 -10.5 23.5t-19.5 6.5l-26 -1l6 79l206 16l11 -9
q6 -91 7 -334h14q27 61 45 119.5t18 87.5q0 23 -13.5 41.5t-37.5 27.5l11 48zM334 597.5q-64 -34.5 -128 -72.5l-22 7l-41 61q59 51 115 101.5t72 65.5h17l72 -101l-2 -17q-19 -10 -83 -44.5z" />
    <glyph glyph-name="Itilde" unicode="&#x7e;I" horiz-adv-x="359" 
d="M287.5 290q-20.5 -138 -20.5 -165q0 -22 5.5 -30t19.5 -8q13 0 21 1t10 2l6 -10l-19 -84q-20 1 -70 2.5t-93 1.5q-39 0 -93 -2t-71 -3l18 85q40 9 53.5 24.5t18.5 57.5l43 346q2 18 2 22q0 17 -7 23t-23 6l-24 -1l-8 14l17 75h159q44 0 96.5 2t73.5 3l-18 -90
q-33 -5 -44 -14.5t-17 -37.5q-15 -82 -35.5 -220zM82 754l2 16l93 115l17 4q20 0 78 -18q5 -1 30.5 -8.5t37.5 -7.5q10 0 26 13t29 27t17 18h16l53 -54l-2 -16l-93 -115l-17 -4q-20 0 -78 18q-5 1 -30.5 8.5t-37.5 7.5q-11 0 -27 -13t-28.5 -27t-16.5 -18h-16z" />
    <glyph glyph-name="itilde" unicode="&#x7e;i" horiz-adv-x="304" 
d="M-9 579l2 16l93 115l17 4q20 0 78 -18q5 -1 30.5 -8.5t37.5 -7.5q10 0 26 13t29 27t17 18h16l53 -54l-2 -16l-93 -115l-17 -4q-20 0 -78 18q-5 1 -30.5 8.5t-37.5 7.5q-11 0 -27 -13t-28.5 -27t-16.5 -18h-16zM231.5 163q11.5 9 36.5 32l23 -4l20 -48
q-76 -88 -122 -121.5t-88 -33.5q-66 0 -66 67q45 266 45 291q0 17 -8 25t-25 8h-28l12 82q81 0 223 12l16 -20q-16 -62 -32.5 -145.5t-25.5 -150.5l4 -3q4 0 15.5 9z" />
    <glyph glyph-name="Utilde" unicode="&#x7e;U" horiz-adv-x="605" 
d="M249 192q-2 -77 59 -77q35 0 52 20t24 68q9 73 20.5 168.5t15.5 133.5q2 22 2 27q0 15 -4.5 21t-15.5 6q-7 0 -13 -1t-8 -1l-3 4l22 89q13 0 48 -1.5t68 -1.5q48 0 88.5 1t54.5 2l-19 -90q-31 -10 -40 -18t-11 -26l-35 -282q-17 -125 -85.5 -185.5t-194.5 -60.5
q-115 0 -171 42t-56 129q0 19 3 40l38 306q2 24 2 29q0 15 -5 20t-17 5q-9 0 -17 -1t-11 -1l-2 4l21 89q16 -1 65 -2t109 -1q37 0 77 1.5t55 2.5l-21 -93q-26 -3 -37.5 -14t-14.5 -35l-41 -289zM195 754l2 16l93 115l17 4q20 0 78 -18q5 -1 30.5 -8.5t37.5 -7.5q10 0 26 13
t29 27t17 18h16l53 -54l-2 -16l-93 -115l-17 -4q-20 0 -78 18q-5 1 -30.5 8.5t-37.5 7.5q-11 0 -27 -13t-28.5 -27t-16.5 -18h-16z" />
    <glyph glyph-name="utilde" unicode="&#x7e;u" horiz-adv-x="531" 
d="M535 143q-56 -63 -92 -95.5t-63.5 -46t-56.5 -13.5q-51 0 -51 48q0 10 6.5 41t22.5 96l-8 2q-62 -144 -119 -184q-66 0 -102.5 28.5t-36.5 78.5q0 17 9 53.5t20 73.5q11 36 19.5 70.5t8.5 50.5q0 17 -8 25t-25 8h-28l12 82q67 0 223 12l16 -20q-73 -247 -73 -274
q0 -12 2.5 -17t10.5 -5q31 0 110 205l13 100l20 12l147 -1l15 -20q-20 -63 -39.5 -139.5t-30.5 -135.5l4 -4q13 6 31 21l23 -4zM137 579l2 16l93 115l17 4q20 0 78 -18q5 -1 30.5 -8.5t37.5 -7.5q10 0 26 13t29 27t17 18h16l53 -54l-2 -16l-93 -115l-17 -4q-20 0 -78 18
q-5 1 -30.5 8.5t-37.5 7.5q-11 0 -27 -13t-28.5 -27t-16.5 -18h-16z" />
    <glyph glyph-name="uni1EBC" unicode="&#x7e;E" horiz-adv-x="586" 
d="M277.5 122q8.5 -7 31.5 -7q42 0 63.5 8t34 29.5t24.5 68.5l129 9l11 -15q-5 -17 -22 -77.5t-31 -128.5l-17 -16q-27 1 -121 4t-190 3q-64 0 -128 -4t-82 -6l20 92q37 6 52.5 24.5t20.5 63.5l43 335q2 22 2 27q0 15 -5 21t-17 6q-8 0 -15.5 -1t-9.5 -1l-10 14l19 79
q23 -1 89.5 -2t140.5 -1q90 0 175.5 3.5t126.5 8.5l11 -16q-5 -18 -21 -79t-26 -120l-140 -9q1 5 4.5 21.5t3.5 27.5q0 26 -18 34.5t-68 8.5q-19 0 -25.5 -5t-9.5 -22l-20 -113l79 -1q18 0 56 2.5t51 3.5l10 -14l-28 -115q-12 1 -45 2t-70 1q-23 0 -45.5 -2.5t-27.5 -3.5
l-3 -23q-11 -68 -11 -86q0 -22 8.5 -29zM171 729l2 16l93 115l17 4q18 0 78 -18q54 -16 67 -16q11 0 27 13t29 27t17 18h16l52 -54l-2 -16l-93 -115l-17 -4q-18 0 -78 18q-54 16 -67 16q-11 0 -27.5 -13t-29 -27t-16.5 -18h-16z" />
    <glyph glyph-name="uni1EBD" unicode="&#x7e;e" horiz-adv-x="429" 
d="M409 290.5q-25 -33.5 -78.5 -60.5t-145.5 -55q8 -49 55 -49q50 0 91 71l22 -3l52 -58q-17 -41 -53 -75t-82 -53.5t-92 -19.5q-74 0 -119 50.5t-45 134.5t38.5 155t103 113t140.5 42q64 0 101 -30t37 -82q0 -47 -25 -80.5zM213.5 336q-18.5 -27 -25.5 -79q47 18 71.5 39
t24.5 44q0 10 -7 16.5t-18 6.5q-27 0 -45.5 -27zM116 579l2 16l93 115l17 4q20 0 78 -18q5 -1 30.5 -8.5t37.5 -7.5q10 0 26 13t29 27t17 18h16l53 -54l-2 -16l-93 -115l-17 -4q-20 0 -78 18q-5 1 -30.5 8.5t-37.5 7.5q-11 0 -27 -13t-28.5 -27t-16.5 -18h-16z" />
    <glyph glyph-name="uni1EF8" unicode="&#x7e;Y" horiz-adv-x="650" 
d="M343 473q11 -47 22 -86h14l50 114q18 33 18 46q0 8 -7.5 11t-26.5 3l-2 6l18 79h155q32 0 66.5 1.5t44.5 2.5l3 -8l-18 -87q-33 -19 -66 -52t-56 -74l-110 -182q-13 -24 -17.5 -43t-8.5 -50q-2 -16 -2 -22q0 -22 10 -31.5t33 -9.5q18 0 32 1t18 2l4 -6l-20 -94
q-24 1 -96 3.5t-108 2.5q-39 0 -108.5 -4t-92.5 -5l19 92q43 3 65 10.5t32 23t14 45.5l2 16q1 7 1 20q0 28 -17 70l-80 199q-20 53 -84 84l-4 6l21 91l148 -2q27 0 91.5 3t85.5 4l6 -11l-19 -82q-41 0 -41 -27q0 -13 11 -60zM203 729l2 16l93 115l17 4q18 0 78 -18
q54 -16 67 -16q11 0 27 13t29 27t17 18h16l52 -54l-2 -16l-93 -115l-17 -4q-18 0 -78 18q-54 16 -67 16q-11 0 -27.5 -13t-29 -27t-16.5 -18h-16z" />
    <glyph glyph-name="uni1EF9" unicode="&#x7e;y" horiz-adv-x="488" 
d="M459 484q12 -15 18.5 -40.5t6.5 -57.5q0 -61 -48 -155.5t-147 -230.5q-94 -128 -165 -185t-138 -57q-39 0 -70 17t-40 43q21 69 65 121l15 1q21 -27 39 -39.5t36 -12.5q19 0 40 13.5t48 42.5q-43 337 -59 408q-4 17 -10.5 23.5t-19.5 6.5l-26 -1l6 79l206 16l11 -9
q6 -91 7 -334h14q27 61 45 119.5t18 87.5q0 23 -13.5 41.5t-37.5 27.5l11 48zM111 579l2 16l93 115l17 4q20 0 78 -18q5 -1 30.5 -8.5t37.5 -7.5q10 0 26 13t29 27t17 18h16l53 -54l-2 -16l-93 -115l-17 -4q-20 0 -78 18q-5 1 -30.5 8.5t-37.5 7.5q-11 0 -27 -13t-28.5 -27
t-16.5 -18h-16z" />
    <glyph glyph-name="fi" unicode="fi" horiz-adv-x="630" 
d="M557.5 163q11.5 9 36.5 32l23 -4l20 -48q-78 -90 -123 -122.5t-87 -32.5q-23 0 -37 7q-29 15 -29 60q7 41 26 157t19 134q0 34 -33 34h-106l-8 -5l-41 -381q-6 -54 -45 -109.5t-93.5 -91t-103.5 -35.5q-48 0 -86 18t-48 44q9 29 30.5 70t39.5 62h20q4 -44 20 -61.5
t52 -17.5q30 0 47.5 21t17.5 60v20q0 7 -0.5 16.5t0.5 17.5l25 361l-11 10h-74l-3 5l8 66l88 13l5 48q6 55 51.5 108.5t111.5 88t129 34.5q40 0 81.5 -7t69.5 -18l4 -11l-59 -131l-20 -3q-44 30 -70.5 41.5t-49.5 11.5q-37 0 -54.5 -19.5t-22.5 -64.5l-9 -80h108
q36 0 112 4.5t91 7.5l16 -20q-3 -11 -13 -54t-23 -109t-22 -133l4 -3q4 0 15.5 9z" />
    <glyph glyph-name="fl" unicode="fl" horiz-adv-x="617" 
d="M604 191l20 -48q-78 -90 -123 -122.5t-87 -32.5q-66 0 -66 67q12 70 45 273t41 267q-29 17 -48.5 23.5t-38.5 6.5q-32 0 -47.5 -18.5t-21.5 -65.5l-9 -80h100l7 -7l-12 -75l-97 1l-8 -5l-41 -381q-6 -55 -44.5 -110t-93 -90.5t-104.5 -35.5q-48 0 -86 18t-48 44
q9 29 30.5 70t39.5 62h20q4 -44 20 -61.5t52 -17.5q30 0 47.5 21t17.5 60v20q0 7 -0.5 16.5t0.5 17.5l25 361l-11 10h-74l-3 5l8 66l88 13l5 48q6 56 51.5 109.5t111.5 87.5t129 34q54 0 100 -8q44 2 75 4.5t40 3.5l16 -20q-14 -67 -53 -269t-52 -296l4 -3q4 0 15.5 9
t36.5 32z" />
    <glyph glyph-name="f_j" unicode="fj" horiz-adv-x="626" 
d="M615 453q-3 -12 -14 -63t-29 -148.5t-38 -227.5q-10 -77 -72 -148t-158 -114l-42 43l4 15q54 42 76.5 87.5t33.5 135.5q8 45 28.5 170t20.5 143q0 17 -8 25t-25 8h-125l-8 -5l-41 -380q-6 -55 -44.5 -110t-93 -90.5t-104.5 -35.5q-48 0 -86 18t-48 44q9 29 30.5 70
t39.5 62h20q4 -44 20 -61.5t52 -17.5q30 0 47.5 21t17.5 60v20q0 7 -0.5 16.5t0.5 17.5l25 361l-11 10h-74l-3 5l8 66l88 13l5 48q6 56 51.5 109.5t111.5 87.5t129 34q29 0 60 -4t51 -11l4 -11l-59 -131l-20 -3q-31 24 -50.5 33.5t-37.5 9.5q-32 0 -48 -19t-21 -65l-9 -80
h107q56 0 128.5 5t94.5 7z" />
    <glyph glyph-name="T_h.liga" unicode="Th" horiz-adv-x="1017" 
d="M1029 146q-79 -89 -123.5 -122t-86.5 -33q-34 0 -50 14t-16 45q0 15 10 51.5t22 74.5q29 95 29 115q0 28 -18 28q-16 0 -48 -60.5t-65 -154.5l-7 -59q-3 -21 -47 -36.5t-101 -15.5l-20 23l77 481q-30 15 -65 21t-92 8q-22 -148 -36.5 -258.5t-14.5 -126.5
q0 -30 6.5 -39.5t32.5 -9.5q6 0 34 2l4 -6l-20 -94q-120 6 -179 6q-56 0 -200 -9l19 92q41 4 62 11.5t31 24t14 49.5l44 358q-25 0 -38 -10t-22.5 -37.5t-21.5 -88.5l-126 -8q21 126 40 262l15 14l115 -11h371l51 4l4 27l3 27l16 27l150 10l15 -21q-50 -233 -81 -419l7 1
q63 145 118 182q70 0 109.5 -28.5t39.5 -78.5q0 -17 -9.5 -51t-26.5 -87q-21 -69 -23 -80l3 -3q4 0 16 9.5t36 31.5l24 -4z" />
    <glyph glyph-name="gamma_gamma" unicode="&#x3b3;&#x3b3;" horiz-adv-x="840" 
d="M603 0q-5 -128 -20 -224l-73 -15l-27 4l-53 39q5 62 22.5 110.5t71.5 142.5q2 38 2 57q0 54 -6 90q-9 53 -22.5 75.5t-41.5 22.5q-11 0 -31 -5q-65 -95 -195 -297q-5 -128 -20 -224l-73 -15l-27 4l-53 39q5 62 22.5 110.5t71.5 142.5q2 38 2 57q0 54 -6 90q-8 53 -22 75
t-42 22q-24 0 -59 -13l-16 20q22 90 92 169q53 0 86 -64.5t42 -183.5l16 -2q35 87 113 245l59 13q59 0 95 -24.5t57 -79.5t32 -152l17 -2q39 98 113 251l16 2q32 -13 60 -32.5t61 -51.5q-95 -133 -264 -396z" />
    <glyph glyph-name="lambda_lambda" unicode="&#x3bb;&#x3bb;" horiz-adv-x="858" 
d="M847 147q-16 -43 -42.5 -83.5t-58.5 -71.5q-50 0 -72.5 23t-29.5 82l-17 147h-14q-79 -155 -132 -244l-76 -8q-50 0 -76 8.5t-38.5 30.5t-17.5 66l-17 147h-14q-80 -157 -138 -253l-14 -2l-105 58v14q92 145 218 359l28 47l-5 43q-4 44 -49 44q-35 0 -81 -28l-14 21
q18 107 87 190q70 0 107.5 -45t46.5 -140l30 -318q4 -41 18.5 -58.5t45.5 -16.5q52 85 156 259l29 49l-5 43q-4 44 -49 44q-35 0 -81 -28l-14 21q18 107 87 190q70 0 107.5 -45t46.5 -140l30 -318q4 -40 17.5 -57.5t42.5 -17.5q19 0 51 8z" />
    <glyph glyph-name="Gtilde" unicode="&#x7e;G" horiz-adv-x="618" 
d="M86 59q-68 70 -68 200q0 196 94 298t274 102q37 0 86.5 -6t87 -12t48.5 -8l6 -20q-3 -6 -11.5 -31.5t-20.5 -70t-22 -98.5l-156 -9q2 7 6.5 30t4.5 34q0 53 -66 53q-55 0 -78 -58t-23 -195q0 -75 15.5 -106.5t52.5 -31.5q21 0 38 5.5t17 6.5l7 63q1 6 1 17
q0 13 -5.5 18.5t-19.5 5.5q-12 0 -20 -0.5t-11 -0.5l-7 14l23 95h150q34 0 71 2t37 3l3 -58q-22 -13 -32.5 -30.5t-15.5 -44.5q-7 -34 -13.5 -85t-6.5 -65t0.5 -24.5t0.5 -13.5l-14 -16q0 -1 -31.5 -9.5t-84.5 -16t-124 -7.5q-125 0 -193 70zM197 729l2 16l93 115l17 4
q18 0 78 -18q54 -16 67 -16q11 0 27 13t29 27t17 18h16l52 -54l-2 -16l-93 -115l-17 -4q-18 0 -78 18q-54 16 -67 16q-11 0 -27.5 -13t-29 -27t-16.5 -18h-16z" />
    <glyph glyph-name="gtilde" unicode="&#x7e;g" horiz-adv-x="501" 
d="M18 -225q-44 17 -68.5 47t-24.5 69q0 9 1 14l4 13q56 31 157 77l1 7q-36 16 -55.5 53t-19.5 89q0 77 38 154t97 126t119 49l72 -21l5 21l20 11l133 -11l15 -28q-13 -30 -25 -80t-16 -84q-1 -6 -7 -87q-1 -18 -5 -74t-8 -85q-6 -54 -63.5 -119.5t-134 -111.5t-135.5 -46
q-56 0 -100 17zM259 206q32 63 52 136q-3 2 -14 8t-27 11.5t-32 5.5q-10 0 -20 -24t-16.5 -61t-6.5 -73q0 -30 4.5 -48t11.5 -18q16 0 48 63zM260.5 -87q31.5 30 38.5 87l21 174l-10 3q-64 -99 -91 -134t-51 -51q-27 -17 -54 -38.5t-27 -25.5q0 -19 26.5 -32t64.5 -13
q51 0 82.5 30zM107 591l2 16l93 115l17 4q20 0 78 -18q5 -1 30.5 -8.5t37.5 -7.5q10 0 26 13t29 27t17 18h16l53 -54l-2 -16l-93 -115l-17 -4q-20 0 -78 18q-5 1 -30.5 8.5t-37.5 7.5q-11 0 -27 -13t-28.5 -27t-16.5 -18h-16z" />
    <glyph glyph-name=".notdef" horiz-adv-x="641" 
d="M336 228l321 -321l-16 -16l-321 321l-321 -321l-16 16l321 321l-321 321l16 16l321 -321l321 321l16 -16z" />
    <glyph glyph-name="uni0000" 
 />
    <glyph glyph-name="uni0000" 
 />
    <glyph glyph-name="nonmarkingreturn" unicode="&#xd;" horiz-adv-x="127" 
 />
    <glyph glyph-name="space" unicode=" " horiz-adv-x="127" 
 />
    <glyph glyph-name="exclam" unicode="!" horiz-adv-x="275" 
d="M114 691l191 26l22 -26l-125 -430l-106 -16l-18 20l15 402zM37.5 12q-21.5 21 -21.5 59q0 54 31.5 86.5t83.5 32.5q39 0 60.5 -21.5t21.5 -59.5q0 -53 -31.5 -85.5t-82.5 -32.5q-40 0 -61.5 21z" />
    <glyph glyph-name="quotedbl" unicode="&#x22;" horiz-adv-x="341" 
d="M147 426l-77 -25l-18 6q16 120 21 238l135 14l7 -12q-22 -87 -68 -221zM317 426l-77 -25l-18 6q16 120 21 238l135 14l7 -12q-22 -87 -68 -221z" />
    <glyph glyph-name="numbersign" unicode="#" horiz-adv-x="543" 
d="M77 457l87 -1l30 117l110 9l13 -7l-36 -119h77l30 117l109 9l13 -7l-35 -116l82 3l5 -15l-21 -106l-100 -1l-4 -16l-17 -60l83 3l5 -15l-21 -106l-98 -1l-26 -100l-108 -14l-12 9l30 105h-78l-25 -100l-108 -14l-12 9l29 104h-75l-7 13l26 105l90 -1l12 45l8 33h-75
l-7 13zM227 261h79l12 45l9 34h-80l-3 -16z" />
    <glyph glyph-name="dollar" unicode="$" horiz-adv-x="469" 
d="M343.5 297q46.5 -18 73.5 -51t27 -76q0 -77 -56 -123t-162 -54l-35 -144l-117 -13l-7 6l38 155q-39 6 -72 16.5t-33 11.5l-9 15q4 13 16.5 55.5t18.5 71.5l114 8q-3 -30 12 -50t44 -20q21 0 33.5 7t12.5 18q0 17 -19 28t-65 29q-59 26 -92 56t-33 84q0 74 52 121.5
t146 60.5l33 135l119 14l5 -9l-34 -139q42 -3 80 -10.5t38 -8.5l9 -19q-4 -11 -17 -51.5t-22 -84.5l-106 -7l-10 7l2 16q0 21 -13 32t-35 11q-20 0 -32.5 -8.5t-12.5 -22.5t13.5 -23.5t42.5 -22.5q6 -3 52.5 -21z" />
    <glyph glyph-name="percent" unicode="%" horiz-adv-x="740" 
d="M524 454.5q-80 -123.5 -161 -247.5q-67 -107 -119.5 -189.5t-69.5 -108.5l-93 35l-6 17q19 27 80.5 118.5t113.5 173.5l267 426l87 -32l10 -24q-29 -45 -109 -168.5zM57.5 326.5q-33.5 36.5 -33.5 107.5q0 107 52 166t136 59q60 0 92.5 -36t32.5 -107
q0 -107 -51.5 -166.5t-134.5 -59.5q-60 0 -93.5 36.5zM236 439.5q17 11.5 17 36.5q0 22 -17.5 31.5t-54.5 9.5q-41 0 -58 -11t-17 -37q0 -21 17.5 -31t54.5 -10q41 0 58 11.5zM456.5 24.5q-33.5 36.5 -33.5 107.5q0 107 52 166t136 59q60 0 92.5 -36t32.5 -107
q0 -107 -51.5 -166.5t-134.5 -59.5q-60 0 -93.5 36.5zM635 137.5q17 11.5 17 36.5q0 22 -17.5 31.5t-54.5 9.5q-41 0 -58 -11t-17 -37q0 -21 17.5 -31t54.5 -10q41 0 58 11.5z" />
    <glyph glyph-name="ampersand" unicode="&#x26;" horiz-adv-x="576" 
d="M294 378l234 21q41 3 75 13.5t55 27.5l26 -23l-43 -85q-14 -28 -39 -42.5t-57 -14.5h-32l-5 -6q6 -13 6 -44q0 -113 -73.5 -175t-203.5 -62q-108 0 -166 43.5t-58 121.5q0 56 32.5 97t104.5 69q-42 26 -59.5 58.5t-17.5 76.5q0 94 67 150t187 56q70 0 164 -27l10 -16
q-38 -107 -43 -162l-117 -7q1 4 3 18t2 25q0 22 -12 32.5t-38 10.5q-71 0 -71 -79q0 -77 69 -77zM348 275h-110q-29 -15 -43 -37.5t-14 -55.5q0 -41 20.5 -60t66.5 -19q55 0 82 27t27 85q0 60 -29 60z" />
    <glyph glyph-name="quotesingle" unicode="'" horiz-adv-x="171" 
d="M147 426l-77 -25l-18 6q16 120 21 238l135 14l7 -12q-22 -87 -68 -221z" />
    <glyph glyph-name="parenleft" unicode="(" horiz-adv-x="300" 
d="M121 514.5q45 69.5 94 105t49 29.5h18l44 -64l-2 -9q0 4 -23.5 -21.5t-46.5 -75.5t-32 -128l-21 -173q-5 -35 -5 -76q0 -59 11.5 -98.5t25.5 -61t14 -17.5l-1 -11l-70 -60h-12q0 -5 -35 23.5t-63 84t-28 140.5q0 32 4 61l21 173q13 109 58 178.5z" />
    <glyph glyph-name="parenright" unicode=")" horiz-adv-x="304" 
d="M182 -11.5q-45 -69.5 -94 -105t-49 -29.5h-17l-45 64l2 9q0 -4 23.5 21.5t46.5 75.5t33 128l21 173q5 35 5 76q0 59 -11.5 98.5t-25.5 61t-14 17.5l1 11l69 60h13q0 5 35 -24t63 -84t28 -141q0 -32 -4 -60l-22 -173q-13 -109 -58 -178.5z" />
    <glyph glyph-name="asterisk" unicode="*" horiz-adv-x="348" 
d="M273 699.5q-9 -33.5 -24 -79.5l-50 -5l-8 5q-1 36 -4 71t-4 45q0 1 34 8.5t60 7.5l7 -10q-2 -9 -11 -42.5zM113.5 658.5q29.5 -18.5 67.5 -47.5l-9 -49l-9 -7q-41 12 -71.5 20t-40.5 10q0 14 2.5 41.5t11.5 51.5l11 3q8 -4 37.5 -22.5zM361.5 560q-34.5 -3 -82.5 -2
l-22 46l4 11q39 14 69 25.5t39 15.5q3 -3 11.5 -16t18 -31.5t14.5 -36.5l-8 -8q-9 -1 -43.5 -4zM256 433q-13 32 -27 78l37 35h11q21 -28 43.5 -55t29.5 -35q-2 -3 -11.5 -15.5t-24 -27.5t-30.5 -25l-11 5q-4 8 -17 40zM102.5 493.5q26.5 22.5 65.5 49.5l45 -24l3 -9
q-23 -35 -40 -62t-22 -36q-4 1 -18.5 6.5t-33 14.5t-33.5 20l1 12q6 6 32.5 28.5z" />
    <glyph glyph-name="plus" unicode="+" horiz-adv-x="491" 
d="M339.5 425.5q-7.5 -45.5 -15.5 -102.5q56 2 99 3.5t57 2.5l5 -15l-30 -136l-149 -1q-6 -52 -10.5 -90.5t-5.5 -50.5l-133 -18l-11 9l19 150l-149 -1l-7 13l34 135q12 0 50 -0.5t90 -0.5l20 157l133 13l14 -7q-3 -15 -10.5 -60.5z" />
    <glyph glyph-name="comma" unicode="," horiz-adv-x="231" 
d="M58 177.5q27 11.5 48 11.5q38 0 61.5 -27.5t23.5 -73.5q0 -53 -45 -109.5t-122 -100.5l-58 46v25q29 21 46.5 50t17.5 56q0 20 -8 41t-21 35l3 14q27 21 54 32.5z" />
    <glyph glyph-name="hyphen" unicode="-" horiz-adv-x="314" 
d="M265 202l-228 -26l-10 18l23 106l149 17q40 4 59.5 7t23.5 4l9 -18z" />
    <glyph glyph-name="period" unicode="." horiz-adv-x="231" 
d="M20 11.5q-21 20.5 -21 59.5q0 54 31.5 86.5t83.5 32.5q39 0 60 -21.5t21 -59.5q0 -53 -31.5 -85.5t-82.5 -32.5q-40 0 -61 20.5z" />
    <glyph glyph-name="slash" unicode="/" horiz-adv-x="319" 
d="M320 480.5q-50 -128.5 -103 -265.5l-120 -325h-126l-9 15q12 29 51 127.5t74 193.5l167 449h119l15 -20q-18 -46 -68 -174.5z" />
    <glyph glyph-name="zero" unicode="0" horiz-adv-x="450" 
d="M53 41q-45 53 -45 152q0 97 32.5 169.5t92 112.5t138.5 40q85 0 129.5 -52.5t44.5 -151.5q0 -98 -31.5 -171t-90.5 -112.5t-139 -39.5q-86 0 -131 53zM306 197.5q26 18.5 26 57.5q0 65 -103 65q-109 0 -109 -76q0 -65 102 -65q58 0 84 18.5z" />
    <glyph glyph-name="one" unicode="1" horiz-adv-x="367" 
d="M277 281q-13 -58 -13 -146q0 -47 31 -47q16 0 28 1t15 1l3 -6l-25 -90q-16 1 -67 3.5t-84 2.5q-38 0 -91.5 -3.5t-69.5 -4.5q-10 -1 -16 -1.5t-8 -0.5l18 81q46 5 68 21t26 47l25 201q1 8 1 22q0 21 -8.5 28t-31.5 7q-14 0 -27 -1t-18 -2l-8 10l17 75q54 5 131 14
q41 4 84 10t59 8l32 4l11 -43q-16 -12 -27 -28.5t-21 -43.5q-21 -61 -34 -119z" />
    <glyph glyph-name="two" unicode="2" horiz-adv-x="479" 
d="M54 121q87 91 118 132t33 69l1 10q0 35 -41 35q-23 0 -50 -16.5t-53 -46.5h-18l-12 104q118 107 232 107q72 0 115 -34.5t43 -90.5q0 -37 -9.5 -62t-47 -67t-125.5 -124l4 -9h27q36 0 55 20.5t30 70.5l117 9q-6 -22 -25 -94t-28 -128l-19 -18q-41 2 -164.5 7t-186.5 5
l-74 -6l1 50z" />
    <glyph glyph-name="three" unicode="3" horiz-adv-x="437" 
d="M89 44q51 0 82 17t31 45q0 26 -24 38t-77 12l-11 15l1 90l65 13q30 12 47 32.5t17 44.5q0 15 -10 24t-27 9q-41 0 -106 -48l-15 -1l-20 103q48 33 108.5 55t105.5 22q69 0 110 -29.5t41 -79.5q0 -48 -34 -87t-91 -56l-1 -11q59 -19 90.5 -52t31.5 -76q0 -54 -51 -104.5
t-131.5 -82.5t-162.5 -32q-34 0 -52 13t-24.5 41.5t-4.5 79.5l25 23q31 -18 87 -18z" />
    <glyph glyph-name="four" unicode="4" horiz-adv-x="478" 
d="M-9 155l289 358l9 2l140 -12l-41 -330h66l9 -15l-24 -113l-65 2q-4 -45 -6 -77t-3 -42l-12 -11l-166 -12l-8 12q2 12 8.5 49t13.5 86q-115 3 -223 3zM217 173l16 127h-11l-95 -127h90z" />
    <glyph glyph-name="five" unicode="5" horiz-adv-x="410" 
d="M333.5 32.5q-49.5 -56.5 -129 -92t-164.5 -35.5q-44 0 -63 23t-19 79q0 20 1 32l25 23q33 -18 87 -18q49 0 80.5 17.5t31.5 43.5t-34 40.5t-117 23.5l-8 11q21 91 38.5 182t21.5 117l8 8l194 6q27 1 41 9.5t25 30.5l79 5l-50 -179l-22 -19q-13 1 -61.5 4.5t-108.5 3.5
l-14 -52q111 -18 159.5 -52t48.5 -94q0 -61 -49.5 -117.5z" />
    <glyph glyph-name="six" unicode="6" horiz-adv-x="460" 
d="M408 495q-36 -18 -80 -49.5t-80 -76.5l4 -11l56 21q65 0 102 -40.5t37 -109.5q0 -72 -32 -126.5t-90.5 -84.5t-136.5 -30q-84 0 -132 51.5t-48 139.5q0 146 90 239.5t202 141.5t112 39l12 -7l20 -81q0 2 -36 -16zM182 242q-1 -8 -5 -27t-4 -39q0 -35 11 -53t32 -18
q34 0 47 23t13 71q0 60 -39 60q-27 0 -55 -17z" />
    <glyph glyph-name="seven" unicode="7" horiz-adv-x="423" 
d="M45 -57l-9 28l234 389l-86 -9q-30 -3 -45 -10t-24.5 -22.5t-19.5 -49.5l-83 -6q5 22 21 97.5t27 141.5l7 5q10 -1 45 -2.5t73 -1.5h217l48 -70q-54 -98 -94 -173.5t-81 -154.5l-29 -57l-55 -143h-28z" />
    <glyph glyph-name="eight" unicode="8" horiz-adv-x="458" 
d="M33.5 212.5q30.5 34.5 75.5 53.5q-64 55 -64 135q0 55 33 100.5t88.5 71.5t120.5 26q48 0 87 -18t61 -48.5t22 -68.5q0 -49 -26.5 -83t-66.5 -54q66 -48 66 -125q0 -59 -33 -108t-89.5 -77.5t-123.5 -28.5q-53 0 -94 17.5t-64 48.5t-23 70q0 54 30.5 88.5zM231.5 401.5
q16.5 -14.5 50.5 -31.5q23 34 23 66q0 22 -11 34.5t-31 12.5q-21 0 -34.5 -13t-13.5 -34q0 -20 16.5 -34.5zM245 109.5q14 13.5 14 37.5q0 19 -18 33.5t-64 41.5q-23 -31 -23 -67q0 -26 14 -42.5t37 -16.5q26 0 40 13.5z" />
    <glyph glyph-name="nine" unicode="9" horiz-adv-x="460" 
d="M56 8q36 18 79.5 49.5t79.5 76.5l-4 11l-56 -21q-64 0 -101.5 40.5t-37.5 109.5q0 72 32 126.5t90.5 84.5t136.5 30q84 0 132.5 -51.5t48.5 -139.5q0 -146 -90 -239.5t-202 -141.5t-112 -39l-12 7l-20 81q0 -2 36 16zM280 260q10 34 10 67q0 71 -42 71q-34 0 -47.5 -23
t-13.5 -71q0 -60 39 -60q27 0 54 16z" />
    <glyph glyph-name="colon" unicode=":" horiz-adv-x="231" 
d="M25 11.5q-21 20.5 -21 59.5q0 54 31.5 86.5t83.5 32.5q39 0 60 -21.5t21 -59.5q0 -53 -31.5 -85.5t-82.5 -32.5q-40 0 -61 20.5zM57 276.5q-21 20.5 -21 59.5q0 54 31.5 86.5t83.5 32.5q39 0 60 -21.5t21 -59.5q0 -53 -31.5 -85.5t-82.5 -32.5q-40 0 -61 20.5z" />
    <glyph glyph-name="semicolon" unicode=";" horiz-adv-x="231" 
d="M62 177.5q27 11.5 48 11.5q38 0 61.5 -27.5t23.5 -73.5q0 -53 -45 -109.5t-122 -100.5l-58 46v25q29 21 46.5 50t17.5 56q0 20 -8 41t-21 35l3 14q27 21 54 32.5zM57 276.5q-21 20.5 -21 59.5q0 54 31.5 86.5t83.5 32.5q39 0 60 -21.5t21 -59.5q0 -53 -31.5 -85.5
t-82.5 -32.5q-40 0 -61 20.5z" />
    <glyph glyph-name="less" unicode="&#x3c;" horiz-adv-x="414" 
d="M38 352l181 77q49 21 94 42.5t58 27.5l17 -11l21 -105q-16 -6 -63 -25t-105 -43l-88 -39l-1 -8l89 -49l131 -64l7 -21l-67 -92q-10 5 -43.5 22t-80.5 41l-163 79l-6 15z" />
    <glyph glyph-name="equal" unicode="=" horiz-adv-x="491" 
d="M468 278l-221 -1l-219 -1l-7 13l34 135l222 -1q48 0 120 2.5t95 3.5l5 -15zM443 78l-220 -1l-219 -1l-8 13l35 135l221 -1q49 0 121 2.5t95 3.5l5 -15z" />
    <glyph glyph-name="greater" unicode="&#x3e;" horiz-adv-x="414" 
d="M385 189l-181 -77q-49 -21 -94.5 -42.5t-58.5 -27.5l-16 11l-22 105q16 6 69 27t99 41l89 39l1 8l-90 49q-47 24 -83.5 41.5t-47.5 22.5l-6 21l67 92q10 -5 43 -22t80 -41l163 -79l6 -15z" />
    <glyph glyph-name="question" unicode="?" horiz-adv-x="371" 
d="M88 388l98 47q53 27 53 62q0 32 -37.5 51t-109.5 23l-12 18l55 118l18 9q78 -2 139 -24.5t95.5 -60.5t34.5 -85q0 -36 -16.5 -66t-55.5 -62.5t-111 -76.5l-3 -6l-2 -69l-10 -14l-120 -20l-14 8l-7 133zM65.5 12q-21.5 21 -21.5 59q0 54 31.5 86.5t83.5 32.5q40 0 61 -21
t21 -60q0 -53 -31.5 -85.5t-82.5 -32.5q-40 0 -61.5 21z" />
    <glyph glyph-name="at" unicode="@" horiz-adv-x="873" 
d="M465 3q-15 15 -15 39q0 9 5.5 35.5t18.5 80.5h-10q-41 -71 -71.5 -110t-61.5 -60q-71 0 -111 41.5t-40 115.5q0 77 38 153t97 125t119 49l72 -20l5 20l19 12l134 -12l8 -23q-8 -35 -32 -146t-37 -191l7 -8q45 0 81.5 26.5t57 73.5t20.5 106q0 79 -36.5 137.5t-105 89.5
t-161.5 31q-99 0 -179 -48t-125.5 -131t-45.5 -186q0 -171 105 -261.5t303 -90.5l-1 -27l-37 -64q-148 0 -256 49t-165.5 141t-57.5 219q0 131 68 247.5t181 186.5t241 70q117 0 202.5 -39t131 -112t45.5 -172q0 -110 -45.5 -191.5t-129.5 -126t-197 -44.5q-24 0 -39 15z
M407 172.5q19 29.5 38.5 76t32.5 92.5q-3 2 -14 8t-27.5 12t-32.5 6q-9 0 -18.5 -24.5t-16 -62t-6.5 -73.5q0 -28 4 -46t10 -18q11 0 30 29.5z" />
    <glyph glyph-name="A" unicode="A" horiz-adv-x="661" 
d="M608 104q11 -15 32 -18l6 -10l-18 -79q-14 0 -54 1t-84 1q-58 0 -115 -2t-73 -3l-7 9l16 84q29 3 42.5 6.5t18.5 9.5t5 18v18v39l-73 2q-20 0 -44 -2t-33 -3l-13 -44q-6 -19 -6 -27t5.5 -11.5t17.5 -3.5h27l7 -10l-18 -83q-15 1 -58.5 2t-91.5 1l-130 -1l17 87
q36 9 55 55l211 502l267 16l14 -12l62 -493q4 -34 15 -49zM322 301q7 0 49 2l-10 175h-22l-65 -177h48z" />
    <glyph glyph-name="B" unicode="B" horiz-adv-x="647" 
d="M60 -3q-61 -3 -80 -4l20 90q38 7 54 22t20 51l45 357l1 13q0 33 -21 33q-10 0 -20 -1t-14 -1l-10 12l21 80l167 -2q42 1 99.5 3.5t81.5 3.5q102 0 158.5 -36.5t56.5 -102.5q0 -51 -27 -92t-87 -80q51 -22 77.5 -56t26.5 -77q0 -109 -78 -165t-231 -56q-17 3 -77 7t-83 4
q-39 0 -100 -3zM338 382.5q26 -4.5 40 -4.5q0 -2 13.5 11t24.5 33.5t11 47.5q0 29 -20 43.5t-62 14.5q-10 0 -13.5 -3t-5.5 -11q-6 -28 -13 -70t-9 -55q8 -2 34 -6.5zM269 160q-1 -3 -1 -9q0 -19 15.5 -28t48.5 -9q38 0 58.5 21t20.5 60q0 47 -50 65h-75z" />
    <glyph glyph-name="C" unicode="C" horiz-adv-x="584" 
d="M86 59q-68 70 -68 200q0 196 94 298t274 102q37 0 86.5 -6t87 -12t48.5 -8l6 -20q-3 -7 -11.5 -36t-20.5 -76.5t-22 -101.5l-156 -9q2 9 6.5 36.5t4.5 38.5q0 27 -17 41.5t-49 14.5q-55 0 -78 -58t-23 -195q0 -75 15.5 -106.5t52.5 -31.5q25 0 40 10t25.5 34.5t20.5 71.5
l155 10q-4 -20 -17 -86.5t-20 -126.5l-15 -16q0 -1 -35 -11t-85 -18.5t-106 -8.5q-125 0 -193 70z" />
    <glyph glyph-name="D" unicode="D" horiz-adv-x="660" 
d="M214 -5q-50 5 -88 5q-34 0 -81 -3.5t-61 -4.5l20 93q36 6 50.5 23t21.5 60l41 335q2 22 2 27q0 15 -4.5 21t-14.5 6q-11 0 -19.5 -1t-11.5 -1l-8 14l19 81q18 0 63.5 -1.5t85.5 -1.5q28 0 81.5 2.5t71.5 3.5q137 0 210 -64t73 -187t-48 -217t-135.5 -145.5t-202.5 -51.5
q-15 2 -65 7zM328 520.5q-5 -5.5 -8 -21.5q-5 -25 -29 -185.5t-24 -168.5q0 -18 6 -25t20 -7q70 0 106 72.5t36 212.5q0 71 -20.5 99.5t-71.5 28.5q-10 0 -15 -5.5z" />
    <glyph glyph-name="E" unicode="E" horiz-adv-x="586" 
d="M277.5 122q8.5 -7 31.5 -7q42 0 63.5 8t34 29.5t24.5 68.5l129 9l11 -15q-5 -17 -22 -77.5t-31 -128.5l-17 -16q-27 1 -121 4t-190 3q-64 0 -128 -4t-82 -6l20 92q37 6 52.5 24.5t20.5 63.5l43 335q2 22 2 27q0 15 -5 21t-17 6q-8 0 -15.5 -1t-9.5 -1l-10 14l19 79
q23 -1 89.5 -2t140.5 -1q90 0 175.5 3.5t126.5 8.5l11 -16q-5 -18 -21 -79t-26 -120l-140 -9q1 5 4.5 21.5t3.5 27.5q0 26 -18 34.5t-68 8.5q-19 0 -25.5 -5t-9.5 -22l-20 -113l79 -1q18 0 56 2.5t51 3.5l10 -14l-28 -115q-12 1 -45 2t-70 1q-23 0 -45.5 -2.5t-27.5 -3.5
l-3 -23q-11 -68 -11 -86q0 -22 8.5 -29z" />
    <glyph glyph-name="F" unicode="F" horiz-adv-x="540" 
d="M270 148q0 -19 7.5 -26t27.5 -7q19 0 35.5 3.5t20.5 4.5l14 -18l-26 -108q-18 0 -66 1.5t-92 1.5q-64 0 -128.5 -4t-82.5 -6l20 92q37 6 52 24.5t21 63.5l43 335q2 22 2 27q0 15 -5 21t-17 6q-8 0 -15.5 -1t-9.5 -1l-10 14l19 79q23 -1 89.5 -2t140.5 -1q82 0 159.5 3.5
t114.5 8.5l11 -16q-4 -18 -18 -80t-23 -119l-140 -8q1 5 4 21t3 27q0 25 -13.5 34t-49.5 9q-19 0 -25.5 -5t-9.5 -22l-23 -130l80 -1q18 0 54 2.5t48 3.5l11 -14l-28 -115q-11 1 -43.5 2t-67.5 1q-22 0 -73 -6l-9 -68q-2 -22 -2 -27z" />
    <glyph glyph-name="G" unicode="G" horiz-adv-x="618" 
d="M86 59q-68 70 -68 200q0 196 94 298t274 102q37 0 86.5 -6t87 -12t48.5 -8l6 -20q-3 -6 -11.5 -31.5t-20.5 -70t-22 -98.5l-156 -9q2 7 6.5 30t4.5 34q0 53 -66 53q-55 0 -78 -58t-23 -195q0 -75 15.5 -106.5t52.5 -31.5q21 0 38 5.5t17 6.5l7 63q1 6 1 17
q0 13 -5.5 18.5t-19.5 5.5q-12 0 -20 -0.5t-11 -0.5l-7 14l23 95h150q34 0 71 2t37 3l3 -58q-22 -13 -32.5 -30.5t-15.5 -44.5q-7 -34 -13.5 -85t-6.5 -65t0.5 -24.5t0.5 -13.5l-14 -16q0 -1 -31.5 -9.5t-84.5 -16t-124 -7.5q-125 0 -193 70z" />
    <glyph glyph-name="H" unicode="H" horiz-adv-x="716" 
d="M762 652l-17 -88q-36 -6 -48 -16t-17 -38q-14 -72 -34.5 -212.5t-20.5 -164.5t7 -34t24 -10q14 0 27 3l7 -11l-19 -83l-119 2h-49l-164 -1l18 87q34 1 51 18t22 58l13 102l-53 1q-23 0 -108 -9l-12 -100q-3 -19 -3 -37t5.5 -25t19.5 -7q19 0 26 3l7 -10l-19 -84
q-104 4 -161 4q-47 0 -162 -5l18 85q39 8 53 24t19 58l43 346q2 18 2 22q0 17 -7 23t-23 6l-25 -1l-7 14l17 75h126q38 0 198 5l-18 -90q-31 -6 -42 -16t-15 -36l-20 -121l77 -3q47 0 79 3l15 119q2 16 2 21q0 17 -7 23.5t-23 6.5l-26 -1l-7 14l17 75h186q97 2 147 5z" />
    <glyph glyph-name="I" unicode="I" horiz-adv-x="359" 
d="M287.5 290q-20.5 -138 -20.5 -165q0 -22 5.5 -30t19.5 -8q13 0 21 1t10 2l6 -10l-19 -84q-20 1 -70 2.5t-93 1.5q-39 0 -93 -2t-71 -3l18 85q40 9 53.5 24.5t18.5 57.5l43 346q2 18 2 22q0 17 -7 23t-23 6l-24 -1l-8 14l17 75h159q44 0 96.5 2t73.5 3l-18 -90
q-33 -5 -44 -14.5t-17 -37.5q-15 -82 -35.5 -220z" />
    <glyph glyph-name="J" unicode="J" horiz-adv-x="329" 
d="M110 532q0 16 -5.5 21.5t-20.5 5.5q-12 0 -22 -1t-13 -1l-7 14l17 76l139 1q61 1 117 3.5t72 3.5l-20 -93q-29 -7 -37.5 -15.5t-13.5 -36.5q-13 -67 -32 -193t-32 -232q-14 -96 -82.5 -156t-204.5 -93l-35 48l4 15q45 32 69 60t37 67t22 106l46 376z" />
    <glyph glyph-name="K" unicode="K" horiz-adv-x="676" 
d="M118 530q0 17 -7 23t-23 6l-25 -1l-7 14l18 76l158 -1q44 0 97 2t74 3l-18 -90q-38 -10 -50.5 -20.5t-14.5 -35.5l-50 -350q-3 -24 -3 -37q0 -18 5.5 -25t19.5 -7q13 0 21 1t10 2l7 -10l-19 -84q-20 1 -70.5 2.5t-93.5 1.5q-39 0 -93 -2t-71 -3l18 85q39 8 53.5 24
t18.5 58l43 346q2 18 2 22zM420 472q15 16 24.5 32.5t9.5 27.5q0 13 -8 19t-27 7l-5 10l19 82q16 0 57.5 -1.5t82.5 -1.5q37 0 81.5 2t61.5 3l7 -15l-18 -75q-43 -24 -75.5 -53t-68.5 -74l-60 -79l65 -182q16 -44 34.5 -64.5t47.5 -25.5l9 -15l-20 -74q-21 -2 -79.5 -6.5
t-74.5 -4.5q-38 0 -58.5 17.5t-37.5 63.5l-89 252l9 30z" />
    <glyph glyph-name="L" unicode="L" horiz-adv-x="543" 
d="M62 -4q-64 -4 -82 -6l20 92q37 6 52.5 24.5t20.5 63.5l42 338q2 18 2 22q0 17 -7 23t-23 6l-25 -1l-7 14l17 75h159q52 0 116 2t90 3l-23 -98q-51 -5 -70 -15.5t-23 -36.5q-15 -85 -33.5 -206.5t-18.5 -148.5q0 -17 7 -24.5t22 -7.5q34 0 53.5 13t32 47t24.5 103l130 13
l10 -15q-5 -22 -22.5 -101t-33.5 -166l-17 -16q-25 1 -111 4t-175 3q-63 0 -127 -4z" />
    <glyph glyph-name="M" unicode="M" horiz-adv-x="808" 
d="M725 176q-2 -50 5 -68.5t29 -18.5q9 0 29 2l6 -8l-19 -86l-107 3q-45 -1 -114 -3.5t-78 -4.5l23 91q27 3 39.5 14t15.5 35l26 231h-13q-2 -6 -43 -104.5t-103 -260.5l-128 -10q-11 84 -23 165t-17 115q-6 34 -14 95h-13q-33 -240 -33 -248q0 -27 28 -27l25 2l8 -8
l-23 -86q-86 4 -140 4q-21 0 -68 -3t-48 -5l19 90q27 3 41 18t22 48q19 81 48 224.5t29 156.5q0 14 -11 20t-44 9l-7 8l20 86q118 -5 144 -5q32 0 154 4q3 -67 10.5 -155.5t17.5 -162.5h13q59 148 116 314l111 -1q49 0 74 2q25 1 54 3t37 2l7 -4l-19 -88q-39 -1 -52 -11
t-17 -40q-8 -73 -17 -334z" />
    <glyph glyph-name="N" unicode="N" horiz-adv-x="718" 
d="M514 516l1 14q0 17 -6 23t-21 6h-30l-4 11l15 81q18 -1 66.5 -2.5t97.5 -1.5q45 0 84 1t53 2l-16 -90q-31 -4 -44.5 -18t-18.5 -45l-74 -497l-192 -12q-51 116 -94.5 209t-55.5 118h-15l-18 -178q-1 -6 -1 -17q0 -19 7.5 -26.5t25.5 -7.5q10 0 19.5 1.5t12.5 2.5l8 -9
l-21 -85q-18 1 -64 2.5t-87 1.5q-43 0 -91.5 -3.5t-62.5 -4.5l21 90q29 4 44 18.5t19 44.5l54 349q2 14 2 19q0 22 -13.5 30.5t-52.5 13.5l-10 14l15 81q13 -1 56.5 -3t89.5 -2q34 0 75 1.5t53 2.5q28 -72 61 -146t53 -117t26 -55h15z" />
    <glyph glyph-name="O" unicode="O" horiz-adv-x="633" 
d="M88 57.5q-70 69.5 -70 198.5q0 194 90.5 298.5t263.5 104.5q128 0 197 -66.5t69 -194.5q0 -194 -92 -302t-263 -108q-125 0 -195 69.5zM384.5 181q22.5 67 22.5 221q0 61 -16 90.5t-49 29.5q-50 0 -72.5 -67.5t-22.5 -220.5q0 -61 15.5 -90.5t47.5 -29.5q52 0 74.5 67z
" />
    <glyph glyph-name="P" unicode="P" horiz-adv-x="591" 
d="M214 647q28 0 88.5 2.5t80.5 3.5q95 0 151.5 -27.5t78.5 -68t22 -84.5q0 -70 -39 -131t-103 -97.5t-133 -36.5h-83l-6 -48q-2 -12 -2 -30q0 -23 9.5 -32.5t32.5 -9.5q10 0 19 1t12 1l4 -8l-20 -86q-19 1 -69 2.5t-93 1.5q-27 0 -94 -4t-89 -5l20 92q36 6 52 24.5t21 60.5
l42 337q2 20 2 25q0 16 -4.5 22.5t-15.5 6.5q-12 0 -22 -1t-13 -1l-8 12l19 78h140zM427 452q0 40 -21 58t-65 18q-10 0 -13 -4t-5 -18q-21 -119 -29 -175l63 -10q70 25 70 131z" />
    <glyph glyph-name="Q" unicode="Q" horiz-adv-x="636" 
d="M758 -141q-11 -8 -48.5 -32t-79 -46t-57.5 -22q-41 0 -75.5 17t-84 64t-140.5 148q-120 3 -187.5 72.5t-67.5 195.5q0 193 91 298t263 105q127 0 196 -66.5t69 -194.5q0 -140 -49 -237t-143 -140v-4q45 -42 100.5 -66.5t103.5 -24.5q27 0 54.5 4t35.5 6l10 -11zM259 142
q16 -30 50 -30q53 0 77.5 68t24.5 220q0 124 -69 124q-52 0 -75.5 -68t-23.5 -220q0 -64 16 -94z" />
    <glyph glyph-name="R" unicode="R" horiz-adv-x="661" 
d="M271 160l-2 -32q0 -24 12 -31t50 -9l4 -8l-20 -84q-20 1 -69.5 2.5t-92.5 1.5q-46 0 -100.5 -3.5t-71.5 -5.5l20 92q36 6 52 24t21 61l43 347q1 7 1 18q0 14 -4.5 20t-15.5 6q-12 0 -22 -1t-13 -1l-8 12l20 79l139 -1q30 0 92 2.5t82 3.5q126 0 193 -41.5t67 -122.5
q0 -133 -140 -213l45 -104q19 -42 40.5 -65t41.5 -23l9 -16l-18 -73l-155 -11q-42 0 -64.5 20.5t-35.5 70.5l-39 153h-53zM439 458q0 36 -23.5 53t-73.5 17q-10 0 -13.5 -4t-5.5 -18q-19 -102 -26 -152l72 -10q70 27 70 114z" />
    <glyph glyph-name="S" unicode="S" horiz-adv-x="536" 
d="M100 -2.5q-44 9.5 -73.5 21t-29.5 12.5l-10 18q5 16 20 70t22 95l127 9q-1 -6 -1 -19q0 -40 18.5 -61.5t53.5 -21.5q29 0 47 12.5t18 32.5q0 23 -23.5 39t-77.5 41q-46 22 -77.5 43t-53 55t-21.5 81q0 70 40 123t112.5 82t168.5 29q48 0 90.5 -6t69 -13t33.5 -9l10 -22
q-2 -7 -9.5 -30t-18.5 -63.5t-19 -80.5l-118 -8l-11 8q0 4 1.5 13t1.5 15q0 29 -16 43.5t-46 14.5q-28 0 -45.5 -14t-17.5 -35q0 -19 17 -33.5t51 -31.5l24 -11q50 -23 82.5 -43t56 -54t23.5 -83q0 -70 -39 -121.5t-112 -79t-173 -27.5q-51 0 -95 9.5z" />
    <glyph glyph-name="T" unicode="T" horiz-adv-x="578" 
d="M186.5 515q-13.5 -11 -22.5 -38.5t-21 -86.5l-126 -8q4 25 17.5 108t22.5 154l15 14l115 -11h305l121 11l11 -14q-10 -89 -17.5 -160t-9.5 -94l-125 -8q2 60 2 72q0 31 -4 46t-13.5 20.5t-28.5 5.5q-15 -97 -33 -229t-18 -156q0 -27 10 -38.5t33 -11.5q18 0 32 1t18 2
l4 -6l-20 -94q-23 1 -93.5 3.5t-105.5 2.5q-39 0 -108.5 -4t-91.5 -5l19 92q41 4 62 12t31 24.5t14 48.5l44 358q-25 0 -38.5 -11z" />
    <glyph glyph-name="U" unicode="U" horiz-adv-x="605" 
d="M249 192q-2 -77 59 -77q35 0 52 20t24 68q9 73 20.5 168.5t15.5 133.5q2 22 2 27q0 15 -4.5 21t-15.5 6q-7 0 -13 -1t-8 -1l-3 4l22 89q13 0 48 -1.5t68 -1.5q48 0 88.5 1t54.5 2l-19 -90q-31 -10 -40 -18t-11 -26l-35 -282q-17 -125 -85.5 -185.5t-194.5 -60.5
q-115 0 -171 42t-56 129q0 19 3 40l38 306q2 24 2 29q0 15 -5 20t-17 5q-9 0 -17 -1t-11 -1l-2 4l21 89q16 -1 65 -2t109 -1q37 0 77 1.5t55 2.5l-21 -93q-26 -3 -37.5 -14t-14.5 -35l-41 -289z" />
    <glyph glyph-name="V" unicode="V" horiz-adv-x="623" 
d="M70.5 542q-9.5 15 -28.5 18l-6 10l18 79q13 0 52 -1t82 -1q59 0 115.5 2t72.5 3l6 -9l-16 -84q-40 -5 -53 -15.5t-13 -36.5q0 -52 2.5 -175t3.5 -164h22q36 98 78.5 223t42.5 146q0 10 -6 15t-20 5h-24l-7 10l18 83q15 -1 58.5 -2t91.5 -1l120 1l-17 -87
q-17 -5 -25.5 -15.5t-20.5 -39.5l-199 -502l-280 -17q-7 64 -23 222.5t-30 283.5q-5 34 -14.5 49z" />
    <glyph glyph-name="W" unicode="W" horiz-adv-x="971" 
d="M1028 648l-17 -87q-17 -6 -25.5 -16.5t-19.5 -38.5l-188 -502l-270 -17l-6 285h-14l-87 -268l-270 -17l-48 506q-7 35 -15.5 49t-25.5 18l-6 10l19 79q13 0 49.5 -1t78.5 -1q56 0 110.5 2t70.5 3l6 -9l-17 -84q-37 -6 -51 -17t-14 -34q0 -89 2 -194t3 -146h21
q29 81 60 174.5t52 159.5q4 16 6.5 24t2.5 10l-2 -7q2 19 -7 25t-42 6l-6 10l19 79q17 0 63.5 -1t95.5 -1q56 0 110.5 2t69.5 3l7 -9l-17 -84q-39 -4 -52.5 -14.5t-13.5 -36.5q0 -54 2.5 -176.5t3.5 -163.5h21q32 86 75 221t43 151q0 11 -4.5 14t-20.5 3h-23l-6 10l18 83
q15 -1 56.5 -2t87.5 -1z" />
    <glyph glyph-name="X" unicode="X" horiz-adv-x="693" 
d="M302 2l17 84q29 2 29 23q0 10 -8 24l-46 88l-41 -63q-20 -31 -20 -45q0 -25 33 -25l5 -11l-15 -81q-19 1 -65.5 3t-82.5 3q-24 0 -70.5 -2.5t-61.5 -3.5l-3 14l15 80q22 11 64 50.5t72 78.5l100 127l-62 121q-16 31 -31 47t-30.5 23t-42.5 14l-4 6l20 91q12 0 56 -0.5
t116 -0.5q26 0 87.5 2.5t82.5 3.5l5 -11l-17 -82q-39 0 -39 -28q0 -15 7.5 -33.5t27.5 -56.5q4 -6 10 -18q15 22 19 30q25 36 38 58.5t13 31.5q0 10 -7 13.5t-26 3.5l-2 6l16 80h153q44 0 79.5 1t47.5 2l3 -8l-16 -87q-50 -23 -79 -46t-58 -63l-107 -145l66 -122
q26 -45 51 -65t59 -21l-16 -94q-15 0 -55.5 1.5t-76.5 1.5q-28 0 -103 -3t-101 -4z" />
    <glyph glyph-name="Y" unicode="Y" horiz-adv-x="650" 
d="M343 473q11 -47 22 -86h14l50 114q18 33 18 46q0 8 -7.5 11t-26.5 3l-2 6l18 79h155q32 0 66.5 1.5t44.5 2.5l3 -8l-18 -87q-33 -19 -66 -52t-56 -74l-110 -182q-13 -24 -17.5 -43t-8.5 -50q-2 -16 -2 -22q0 -22 10 -31.5t33 -9.5q18 0 32 1t18 2l4 -6l-20 -94
q-24 1 -96 3.5t-108 2.5q-39 0 -108.5 -4t-92.5 -5l19 92q43 3 65 10.5t32 23t14 45.5l2 16q1 7 1 20q0 28 -17 70l-80 199q-20 53 -84 84l-4 6l21 91l148 -2q27 0 91.5 3t85.5 4l6 -11l-19 -82q-41 0 -41 -27q0 -13 11 -60z" />
    <glyph glyph-name="Z" unicode="Z" horiz-adv-x="578" 
d="M89 3l-81 -10l-29 58l374 491l-71 -10q-40 -6 -58.5 -16t-27 -31t-15.5 -67l-128 -9q5 24 20 103t24 137l12 11l175 -11h325l18 -54q-152 -180 -354 -452q-24 -32 -26 -34l99 15q47 7 72 39.5t39 102.5l128 9q-3 -12 -12.5 -51t-22.5 -100t-19 -105l-23 -22z" />
    <glyph glyph-name="bracketleft" unicode="[" horiz-adv-x="317" 
d="M46 63q21 134 29 197t20 198.5t16 180.5l251 11l3 -10l-18 -84l-90 -17l-69 -555l90 -17l3 -11l-18 -83l-245 11q7 45 28 179z" />
    <glyph glyph-name="backslash" unicode="\" horiz-adv-x="319" 
d="M173 675l56 -449q12 -95 27 -193.5t20 -127.5l-13 -15h-126l-41 325q-13 101 -34 247.5t-28 192.5l20 20h119z" />
    <glyph glyph-name="bracketright" unicode="]" horiz-adv-x="317" 
d="M277 460q-21 -134 -29 -197q-7 -62 -19.5 -198t-16.5 -181l-251 -11l-3 10l19 84l90 17l68 555l-90 17l-3 11l18 83l245 -11q-7 -45 -28 -179z" />
    <glyph glyph-name="asciicircum" unicode="^" horiz-adv-x="454" 
d="M395 290l46 -138l-98 -56l-20 9q-4 13 -17.5 52.5t-29.5 92.5l-34 102h-7l-48 -90q-25 -46 -51.5 -98t-34.5 -68l-101 34l-9 18q8 13 34 58t52 93l96 178l153 7l14 -8z" />
    <glyph glyph-name="underscore" unicode="_" horiz-adv-x="434" 
d="M377 -218l-434 -1l-9 19l24 105h236h118q40 0 60.5 1t24.5 1l7 -19z" />
    <glyph glyph-name="grave" unicode="`" horiz-adv-x="386" 
d="M101 760h17q16 -15 72 -65.5t115 -101.5l-41 -61l-22 -7q-64 38 -128 72.5t-83 44.5l-2 17z" />
    <glyph glyph-name="a" unicode="a" horiz-adv-x="528" 
d="M498 195l23 -4l20 -48q-56 -63 -92 -95.5t-63.5 -46t-56.5 -13.5q-51 0 -51 48q0 18 25 122h-10q-41 -70 -71.5 -109t-61.5 -61q-71 0 -111 41.5t-40 115.5q0 77 37.5 153.5t97 125t119.5 48.5l72 -20l5 20l19 12l134 -12l8 -23q-42 -191 -59 -292l4 -3q10 0 52 41z
M254.5 206q32.5 63 52.5 135q-41 26 -74 26q-9 0 -18.5 -24t-16 -61t-6.5 -73q0 -28 4 -47t10 -19q16 0 48.5 63z" />
    <glyph glyph-name="b" unicode="b" horiz-adv-x="525" 
d="M74.5 433q26.5 167 26.5 182q0 17 -8 25t-25 8h-28l12 82q88 0 227 12l16 -20q-55 -272 -81 -420h10q40 71 69.5 109.5t60.5 60.5q76 0 117.5 -43.5t41.5 -121.5q0 -83 -38 -157t-101.5 -118t-135.5 -44q-58 0 -116.5 17t-91.5 43l-14 26q32 192 58.5 359zM289.5 304
q-19.5 -30 -39 -76.5t-31.5 -91.5q14 -11 29.5 -18.5t27.5 -7.5q24 0 40.5 45t16.5 111q0 31 -3.5 49.5t-9.5 18.5q-11 0 -30.5 -30z" />
    <glyph glyph-name="c" unicode="c" horiz-adv-x="393" 
d="M206.5 318.5q-18.5 -44.5 -18.5 -112.5q0 -38 12.5 -58t35.5 -20q20 0 39.5 19t35.5 55l21 -3l52 -58q-16 -41 -50 -76.5t-76.5 -56t-82.5 -20.5q-74 0 -118 48.5t-44 130.5q0 86 38 158.5t102.5 115t140.5 42.5q30 0 59.5 -6.5t49.5 -17.5l4 -18l-51 -129l-43 -1
q-13 27 -27 39.5t-33 12.5q-28 0 -46.5 -44.5z" />
    <glyph glyph-name="d" unicode="d" horiz-adv-x="529" 
d="M459.5 162q9.5 8 38.5 33l23 -4l20 -48q-56 -63 -92 -95.5t-63.5 -46t-56.5 -13.5q-51 0 -51 48q0 11 6 39.5t19 82.5h-10q-39 -68 -70 -107.5t-63 -62.5q-71 0 -111 41.5t-40 115.5q0 77 37.5 153.5t97 125t119.5 48.5l67 -19l22 152q1 5 1 13q0 16 -8 23t-25 7h-28
l12 82q57 0 130.5 5t96.5 7l16 -20q-12 -63 -43.5 -231.5t-61.5 -333.5l4 -3q4 0 13.5 8zM254 205.5q32 62.5 53 135.5q-3 2 -14 8t-27.5 12t-32.5 6q-9 0 -18.5 -24t-16 -61.5t-6.5 -73.5q0 -29 4 -47t10 -18q16 0 48 62.5z" />
    <glyph glyph-name="e" unicode="e" horiz-adv-x="429" 
d="M409 290.5q-25 -33.5 -78.5 -60.5t-145.5 -55q8 -49 55 -49q50 0 91 71l22 -3l52 -58q-17 -41 -53 -75t-82 -53.5t-92 -19.5q-74 0 -119 50.5t-45 134.5t38.5 155t103 113t140.5 42q64 0 101 -30t37 -82q0 -47 -25 -80.5zM213.5 336q-18.5 -27 -25.5 -79q47 18 71.5 39
t24.5 44q0 10 -7 16.5t-18 6.5q-27 0 -45.5 -27z" />
    <glyph glyph-name="f" unicode="f" horiz-adv-x="326" 
d="M14 450l88 13l5 48q6 56 51.5 109.5t111.5 87.5t129 34q29 0 60 -4t51 -11l4 -11l-59 -131l-20 -3q-31 24 -50.5 33.5t-37.5 9.5q-32 0 -47.5 -18.5t-21.5 -65.5l-9 -80h125l7 -7l-12 -75l-122 1l-8 -5l-41 -381q-6 -55 -44.5 -110t-93 -90.5t-104.5 -35.5q-48 0 -86 18
t-48 44q9 29 30.5 70t39.5 62h20q4 -44 20 -61.5t52 -17.5q30 0 47.5 21t17.5 60v20q0 7 -0.5 16.5t0.5 17.5l25 361l-11 10h-74l-3 5z" />
    <glyph glyph-name="g" unicode="g" horiz-adv-x="501" 
d="M18 -225q-44 17 -68.5 47t-24.5 69q0 9 1 14l4 13q56 31 157 77l1 7q-36 16 -55.5 53t-19.5 89q0 77 38 154t97 126t119 49l72 -21l5 21l20 11l133 -11l15 -28q-13 -30 -25 -80t-16 -84q-1 -6 -7 -87q-1 -18 -5 -74t-8 -85q-6 -54 -63.5 -119.5t-134 -111.5t-135.5 -46
q-56 0 -100 17zM259 206q32 63 52 136q-3 2 -14 8t-27 11.5t-32 5.5q-10 0 -20 -24t-16.5 -61t-6.5 -73q0 -30 4.5 -48t11.5 -18q16 0 48 63zM260.5 -87q31.5 30 38.5 87l21 174l-10 3q-64 -99 -91 -134t-51 -51q-27 -17 -54 -38.5t-27 -25.5q0 -19 26.5 -32t64.5 -13
q51 0 82.5 30z" />
    <glyph glyph-name="h" unicode="h" horiz-adv-x="524" 
d="M457 166.5q12 9.5 36 31.5l24 -4l19 -48q-79 -89 -123.5 -122t-86.5 -33q-34 0 -50 14t-16 45q0 15 10 51.5t22 74.5q29 95 29 115q0 28 -18 28q-16 0 -48 -60.5t-65 -154.5l-7 -59q-3 -21 -47 -36.5t-101 -15.5l-20 23l94 589q1 5 1 13q0 16 -8 23t-25 7h-28l12 82
q56 0 130.5 5t97.5 7l15 -21q-9 -40 -35.5 -172.5t-45.5 -246.5l7 1q63 145 118 182q70 0 109.5 -28.5t39.5 -78.5q0 -17 -9.5 -51t-26.5 -87q-21 -69 -23 -80l3 -3q4 0 16 9.5z" />
    <glyph glyph-name="i" unicode="i" horiz-adv-x="304" 
d="M231.5 163q11.5 9 36.5 32l23 -4l20 -48q-76 -88 -122 -121.5t-88 -33.5q-66 0 -66 67q45 266 45 291q0 17 -8 25t-25 8h-28l12 82q81 0 223 12l16 -20q-16 -62 -32.5 -145.5t-25.5 -150.5l4 -3q4 0 15.5 9zM111.5 544q-21.5 21 -21.5 59q0 54 31.5 86.5t83.5 32.5
q39 0 60.5 -21t21.5 -60q0 -53 -31.5 -85.5t-82.5 -32.5q-40 0 -61.5 21z" />
    <glyph glyph-name="j" unicode="j" horiz-adv-x="300" 
d="M143 567.5q-20 20.5 -20 57.5q0 54 31.5 85.5t84.5 31.5q37 0 56.5 -19t19.5 -56q0 -55 -31.5 -87.5t-82.5 -32.5q-38 0 -58 20.5zM136 -134q-62 -71 -158 -114l-42 43l4 15q54 42 76.5 87.5t33.5 135.5q8 45 28.5 170t20.5 143q0 17 -8 25t-25 8h-28l12 82q56 0 128.5 5
t94.5 7l16 -20q-3 -12 -14 -63t-29 -148.5t-38 -227.5q-10 -77 -72 -148z" />
    <glyph glyph-name="k" unicode="k" horiz-adv-x="507" 
d="M252 216q0 -1 21.5 10t38.5 29t17 42q0 12 -4.5 17t-14.5 5q-19 0 -53.5 -60.5t-69.5 -154.5l-7 -59q-3 -21 -47 -36.5t-101 -15.5l-20 23q15 89 55 333.5t40 265.5q0 17 -8 25t-25 8h-28l12 82q56 0 130.5 5t97.5 7l15 -21q-9 -40 -35.5 -172.5t-45.5 -246.5l7 1
q63 146 118 182q74 0 116 -29.5t42 -81.5q0 -46 -28.5 -91t-83.5 -86q18 -41 45.5 -95.5t36.5 -71.5l-4 -21l-162 -22l-13 7l-52 203z" />
    <glyph glyph-name="l" unicode="l" horiz-adv-x="291" 
d="M218.5 163q11.5 9 36.5 32l23 -4l20 -48q-78 -90 -123 -122.5t-87 -32.5q-66 0 -66 67q0 17 48 309q40 234 40 251t-8 25t-25 8h-28l12 82q57 0 130.5 5t96.5 7l16 -20q-14 -67 -53 -269t-52 -296l4 -3q4 0 15.5 9z" />
    <glyph glyph-name="m" unicode="m" horiz-adv-x="795" 
d="M728 167q12 10 36 31l24 -4l19 -48q-79 -89 -124 -122t-86 -33q-34 0 -50 14t-16 45q0 15 10 51.5t22 74.5q29 95 29 115q0 28 -18 28t-55 -64.5t-74 -161.5l-5 -48q-2 -21 -46.5 -36.5t-101.5 -15.5l-20 23q10 38 37 147t27 133q0 13 -4 18t-15 5q-16 0 -48 -60.5
t-65 -154.5l-7 -59q-3 -21 -47 -36.5t-101 -15.5l-20 23l52 320q1 5 1 13q0 16 -8 23t-25 7h-28l12 82q56 0 128.5 5t94.5 7l14 -21q-4 -13 -15 -58.5t-18 -91.5l7 1q63 146 118 182q68 0 107 -28t39 -78q0 -16 -6 -42.5t-8 -34.5l7 1q63 146 118 182q70 0 109.5 -28.5
t39.5 -78.5q0 -17 -9.5 -51t-26.5 -87q-21 -69 -23 -80l3 -3q4 0 16 10z" />
    <glyph glyph-name="n" unicode="n" horiz-adv-x="545" 
d="M550 146q-79 -90 -123 -122.5t-85 -32.5q-34 0 -49.5 14t-15.5 45q0 25 31 126q10 36 19 69.5t9 45.5q0 28 -16 28t-46 -60.5t-62 -154.5l-7 -59q-3 -21 -46.5 -36.5t-100.5 -15.5l-20 23l51 320q1 6 1 15q0 15 -7 21.5t-24 6.5h-27l12 82q81 0 220 12l13 -21
q-18 -63 -31 -150l7 1q61 146 112 182q69 0 108 -28.5t39 -78.5q0 -16 -11.5 -57.5t-23.5 -81.5q-19 -62 -22 -79l3 -3q5 0 15 8.5t35 32.5l24 -4z" />
    <glyph glyph-name="o" unicode="o" horiz-adv-x="486" 
d="M65.5 39q-46.5 51 -46.5 145q0 90 33.5 158t94.5 105t142 37q87 0 133 -48.5t46 -140.5t-33.5 -161.5t-94.5 -107.5t-142 -38q-86 0 -132.5 51zM267.5 109.5q10.5 14.5 15.5 49.5t5 100q0 57 -8.5 81t-29.5 24q-29 0 -40.5 -32.5t-11.5 -116.5q0 -67 8.5 -93.5
t30.5 -26.5q20 0 30.5 14.5z" />
    <glyph glyph-name="p" unicode="p" horiz-adv-x="574" 
d="M11 -138q12 13 20 49q17 76 42.5 239t25.5 196q0 17 -8 25t-25 8h-28l12 82q81 0 223 12l16 -19q-19 -63 -34 -140h9q63 120 128 170q76 0 118.5 -41.5t42.5 -116.5q0 -77 -38 -153t-97 -124.5t-119 -48.5l-97 20l-16 -116q-1 -6 -1 -17q0 -19 9.5 -25.5t33.5 -6.5h46
l1 -6l-16 -79q-129 0 -304 -7l16 82q28 4 40 17zM329 317.5q-19 -29.5 -39 -76t-33 -92.5q17 -11 37.5 -18.5t36.5 -7.5q9 0 18.5 24.5t16 62t6.5 73.5q0 26 -4 45t-9 19q-11 0 -30 -29.5z" />
    <glyph glyph-name="q" unicode="q" horiz-adv-x="506" 
d="M301 155h-10q-39 -68 -68.5 -106t-62.5 -61q-71 0 -111 41.5t-40 115.5q0 77 37.5 153.5t97 125t119.5 48.5l72 -20l13 48l20 12l132 -14l7 -23q-8 -36 -32.5 -158t-47 -254t-22.5 -181q0 -16 4.5 -22t17.5 -6l26 1l3 -4l-17 -81q-85 0 -149.5 -2.5t-98 -5.5t-41.5 -4
l16 82q33 2 49.5 7t24 17t12.5 39l27 144zM254 205.5q32 62.5 53 135.5q-3 2 -14 8t-27.5 12t-32.5 6q-9 0 -18.5 -24t-16 -61.5t-6.5 -73.5q0 -29 4 -47t10 -18q16 0 48 62.5z" />
    <glyph glyph-name="r" unicode="r" horiz-adv-x="416" 
d="M59.5 193q22.5 131 22.5 156q0 30 -33 30h-28l12 82q56 0 128.5 5t94.5 7l14 -21q-3 -11 -12.5 -51t-15.5 -79l7 1q76 159 159 159q9 -5 17.5 -14t12.5 -18q-3 -33 -14.5 -85t-23 -94t-14.5 -54h-71q4 21 4 37q0 28 -15 28q-18 0 -44 -43t-54 -119l-9 -75
q-3 -21 -47 -36.5t-101 -15.5l-20 23q8 46 30.5 177z" />
    <glyph glyph-name="s" unicode="s" horiz-adv-x="402" 
d="M107 127q24 -21 55 -21q40 0 40 25q0 14 -14 23.5t-51 26.5q-44 21 -69.5 47t-25.5 73q0 52 29 94t80 65.5t115 23.5q44 0 84.5 -11.5t65.5 -30.5q-32 -78 -63 -128h-25q-10 22 -26.5 34.5t-33.5 12.5q-14 0 -24 -8t-10 -20q0 -10 7.5 -17.5t22.5 -14.5l22 -11
q49 -22 77 -48t28 -74q0 -51 -31 -92t-85 -64.5t-122 -23.5q-60 0 -105 18.5t-55 46.5q5 28 23 66.5t37 60.5l27 -2q3 -30 27 -51z" />
    <glyph glyph-name="t" unicode="t" horiz-adv-x="331" 
d="M334 141q-49 -69 -92 -111t-66 -42q-64 0 -98.5 30t-34.5 84q0 14 1 21l44 248l-9 8h-54l-3 5l8 66l72 11q5 39 9 70t5 41l168 35l14 -12q-3 -11 -12.5 -51.5t-18.5 -82.5h95l7 -7l-12 -75l-94 1l-13 -8l-35 -192v-8q0 -22 18 -22q10 0 23 10t35 35l22 -4z" />
    <glyph glyph-name="u" unicode="u" horiz-adv-x="531" 
d="M535 143q-56 -63 -92 -95.5t-63.5 -46t-56.5 -13.5q-51 0 -51 48q0 10 6.5 41t22.5 96l-8 2q-62 -144 -119 -184q-66 0 -102.5 28.5t-36.5 78.5q0 17 9 53.5t20 73.5q11 36 19.5 70.5t8.5 50.5q0 17 -8 25t-25 8h-28l12 82q67 0 223 12l16 -20q-73 -247 -73 -274
q0 -12 2.5 -17t10.5 -5q31 0 110 205l13 100l20 12l147 -1l15 -20q-20 -63 -39.5 -139.5t-30.5 -135.5l4 -4q13 6 31 21l23 -4z" />
    <glyph glyph-name="v" unicode="v" horiz-adv-x="482" 
d="M98 8q-6 85 -18 184t-23 160q-3 16 -9 23t-17 7l-32 -1l6 79q52 6 119.5 10.5t88.5 5.5l11 -9q13 -136 13 -322h17q31 79 45 125t14 70q0 23 -13.5 41.5t-38.5 27.5l11 48l188 27q13 -15 20 -41t7 -58q0 -57 -47.5 -150t-150.5 -235l-173 -12z" />
    <glyph glyph-name="w" unicode="w" horiz-adv-x="725" 
d="M313 312l-23 121l10 19l152 32q13 -15 20.5 -40t7.5 -53q0 -15 -2.5 -27.5t-9.5 -37.5l12 -181h17q32 82 45.5 126.5t13.5 68.5q0 23 -13.5 41.5t-38.5 27.5l11 48l188 27q12 -15 19.5 -43t7.5 -59q0 -56 -47.5 -148t-150.5 -234l-143 -12l-18 20l-12 135h-11
q-33 -77 -69 -143l-163 -12l-18 20q-6 82 -18 181t-23 163q-3 16 -9 23t-17 7l-32 -1l6 79q68 8 208 16l11 -9q13 -136 13 -322h17q39 103 59 167z" />
    <glyph glyph-name="x" unicode="x" horiz-adv-x="502" 
d="M526 445q-33 -84 -67 -149h-26q-7 29 -16.5 42t-25.5 13q-18 0 -33 -18t-32 -60q25 -90 39.5 -121.5t29.5 -31.5q9 0 19 7t31 29h11l26 -57q-60 -62 -100.5 -86.5t-81.5 -24.5q-26 0 -42.5 11t-30 37.5t-29.5 77.5q-32 -68 -62.5 -97t-69.5 -29q-50 0 -91 39
q27 74 67 149h26q6 -28 16 -41.5t26 -13.5q18 0 32.5 18t31.5 60q-26 91 -40 122t-29 31q-16 0 -49 -36h-11l-26 57q58 61 99 86t82 25q26 0 42 -10.5t30 -37t30 -78.5q32 67 63 96.5t71 29.5q48 0 90 -39z" />
    <glyph glyph-name="y" unicode="y" horiz-adv-x="479" 
d="M459 484q12 -15 18.5 -40.5t6.5 -57.5q0 -61 -48 -155.5t-147 -230.5q-94 -128 -165 -185t-138 -57q-39 0 -70 17t-40 43q21 69 65 121l15 1q21 -27 39 -39.5t36 -12.5q19 0 40 13.5t48 42.5q-43 337 -59 408q-4 17 -10.5 23.5t-19.5 6.5l-26 -1l6 79l206 16l11 -9
q6 -91 7 -334h14q27 61 45 119.5t18 87.5q0 23 -13.5 41.5t-37.5 27.5l11 48z" />
    <glyph glyph-name="z" unicode="z" horiz-adv-x="454" 
d="M57 343.5q15 66.5 25 129.5l43 11l45 -9t78 -13.5t70 -6.5t40.5 5t26.5 19l26 29l68 -64l4 -20q-140 -132 -276 -275l22 3q10 0 21 -1l22 -2q38 -4 52 -4q24 0 42 23.5t22 61.5h31q8 -14 13 -41.5t5 -55.5q0 -40 -18 -73.5t-49 -52.5t-69 -19q-21 0 -40.5 6t-47.5 17
q-30 11 -47 16t-35 5q-27 0 -61 -10.5t-60 -27.5l-28 45l267 291l-41 1q-43 0 -64 -15t-34 -54l-73 -5q5 20 20 86.5z" />
    <glyph glyph-name="braceleft" unicode="{" horiz-adv-x="326" 
d="M107 340.5q19 18.5 19 41.5q0 21 -15 68q-18 56 -18 83q0 36 24 65t67 45t96 16q26 0 53 -5t35 -7l8 -16l-28 -83q-3 1 -13.5 3t-19.5 2q-26 0 -40.5 -15.5t-14.5 -42.5q0 -14 6 -52q6 -42 6 -58q0 -35 -21.5 -60t-60.5 -35l-1 -5q61 -21 61 -79q0 -26 -24 -88
q-8 -22 -15 -43.5t-7 -34.5q0 -23 12.5 -36t34.5 -13q9 0 18 2t12 3l11 -13l-24 -83q-3 -2 -16.5 -7.5t-37.5 -10.5t-56 -5q-57 0 -95 30.5t-38 75.5q0 23 10.5 47.5t31.5 61.5q18 31 25.5 47.5t7.5 30.5q0 47 -61 65l14 76q35 11 54 29.5z" />
    <glyph glyph-name="bar" unicode="|" horiz-adv-x="280" 
d="M244.5 565.5q-23.5 -170.5 -35.5 -274.5l-66 -549l-118 -11l-13 16q7 57 26.5 214t39.5 315l65 520l114 11l19 -16q-8 -55 -31.5 -225.5z" />
    <glyph glyph-name="braceright" unicode="}" horiz-adv-x="326" 
d="M230 207.5q-20 -19.5 -20 -43.5q0 -21 15 -68q6 -21 11.5 -44t5.5 -39q0 -39 -24 -70t-67 -48.5t-97 -17.5q-26 0 -53 5t-35 7l-8 16l28 83q3 -1 13.5 -3t19.5 -2q26 0 40.5 16t14.5 44q0 10 -2 27.5t-3 27.5q-6 42 -6 61q0 36 21.5 61t60.5 36l1 5q-61 21 -61 79
q0 25 24 83q11 27 16 43.5t5 29.5q0 23 -12.5 36t-34.5 13q-9 0 -18 -2t-12 -3l-11 13l24 83q3 2 16.5 7.5t37.5 10.5t56 5q57 0 95 -30.5t38 -75.5q0 -21 -10.5 -45.5t-30.5 -57.5q-16 -26 -24 -43t-8 -31q0 -26 15.5 -43t44.5 -22l-13 -76q-33 -8 -53 -27.5z" />
    <glyph glyph-name="asciitilde" unicode="~" horiz-adv-x="490" 
d="M4 207l2 16l120 115l22 4q23 0 101 -18q72 -16 90 -16q13 0 34 13t38 27t22 18h16l42 -56l-2 -16l-120 -115l-22 -4q-23 0 -101 18q-72 16 -90 16q-13 0 -34 -13t-38 -27t-22 -18h-16z" />
    <glyph glyph-name="uni00A0" unicode="&#xa0;" horiz-adv-x="127" 
 />
    <glyph glyph-name="exclamdown" unicode="&#xa1;" horiz-adv-x="275" 
d="M238.5 463q21.5 -21 21.5 -59q0 -54 -31.5 -86.5t-83.5 -32.5q-39 0 -60.5 21.5t-21.5 59.5q0 53 31.5 85.5t82.5 32.5q40 0 61.5 -21zM162 -216l-191 -26l-22 26l125 430l106 16l18 -20l-15 -402z" />
    <glyph glyph-name="cent" unicode="&#xa2;" horiz-adv-x="416" 
d="M327 199l52 -58q-19 -48 -61 -87t-91 -56l-37 -149l-117 -13l-7 6l39 158q-46 18 -71.5 61.5t-25.5 105.5q0 73 27.5 136.5t76 108.5t109.5 62l42 170l119 14l5 -9l-42 -172q33 -7 53 -18l4 -18l-51 -129l-43 -1q-13 27 -27 39.5t-33 12.5q-28 0 -46.5 -44.5
t-18.5 -112.5q0 -38 12.5 -58t35.5 -20q20 0 39.5 19t35.5 55z" />
    <glyph glyph-name="sterling" unicode="&#xa3;" horiz-adv-x="500" 
d="M478 178q5 -26 5 -53q0 -60 -38.5 -98.5t-95.5 -38.5q-20 0 -38.5 6t-53.5 21q-28 13 -49 20t-41 7q-33 0 -67 -10.5t-74 -32.5l-14 6l-14 91q82 42 89 105l5 34q1 23 -11 30.5t-50 9.5l-3 6l17 70l62 9l3 27q6 50 51 99.5t109 80.5t126 31q34 0 67 -4t51 -11l4 -11
l-59 -131l-19 -3q-38 24 -61 33.5t-45 9.5q-25 0 -36 -14t-16 -50l-9 -57q53 0 88.5 1t45.5 2l4 -7l-21 -85q-10 1 -46 2t-84 1l-6 -38q-3 -26 -14 -53t-24 -39l60 14q8 0 42 -8q43 -9 55 -9q23 0 39.5 21t20.5 54h31q9 -12 14 -38z" />
    <glyph glyph-name="currency" unicode="&#xa4;" horiz-adv-x="486" 
d="M108 407l-69 72l7 23l115 77q35 -47 54 -77q33 13 64 13q30 0 61 -13l76 79l23 -4l64 -105l-80 -64q5 -23 5 -48q0 -43 -23 -86q25 -24 43 -42.5t24 -24.5l-7 -23l-114 -77l-54 74q-30 -11 -60 -11q-34 0 -64 14q-28 -29 -49 -50.5t-28 -28.5l-23 4l-65 105q32 24 56 44
q-3 -2 28 22q-4 16 -4 42q0 42 20 85zM204.5 287q17.5 -19 44.5 -19q32 0 56.5 24.5t24.5 57.5q0 28 -18 47.5t-45 19.5q-32 0 -56 -24.5t-24 -58.5q0 -28 17.5 -47z" />
    <glyph glyph-name="yen" unicode="&#xa5;" horiz-adv-x="613" 
d="M321 359l14 -47h8l43 98q3 6 3 13q0 6 -4 9t-16 3l-5 9l12 58l134 1q33 0 59.5 1t34.5 2l4 -6l-17 -75q-33 -18 -49.5 -31.5t-29.5 -36.5l-5 -9l70 2l7 -10l-17 -86h-125l-19 -31l-11 -15q55 1 94 2t51 1l7 -10l-17 -86h-170v-9q0 -29 38 -29q15 0 26.5 1t15.5 2l4 -5
l-16 -80q-21 1 -74.5 3t-100.5 2q-34 0 -95 -3t-81 -4l16 78q45 3 63 12t25 32l-157 -1l-9 8l22 85h141l-8 20l-10 27l-116 -1l-9 8l22 85h57q-4 9 -32 30q-23 19 -34.5 30.5t-12.5 20.5q1 6 3 16t6 23q2 13 4.5 22.5t4.5 16.5q12 0 43.5 -1t64.5 -1l20 1q144 3 150 5l4 -10
l-16 -70q-17 0 -23 -4t-6 -12q0 -10 14 -54z" />
    <glyph glyph-name="brokenbar" unicode="&#xa6;" horiz-adv-x="280" 
d="M89 369l54 427l114 11l19 -16q-6 -41 -24.5 -174.5t-32.5 -242.5l-118 -16zM191 150q-17 -143 -31 -257t-18 -151l-118 -11l-12 16q4 37 18 149.5t32 253.5l113 17z" />
    <glyph glyph-name="section" unicode="&#xa7;" horiz-adv-x="470" 
d="M305.5 481q13.5 -12 46.5 -34q35 -23 56.5 -40.5t37.5 -43.5t16 -59q0 -82 -111 -143q38 -36 38 -80q0 -9 -1 -14q-6 -45 -39 -82t-85 -58.5t-112 -21.5q-37 0 -70.5 10.5t-54 27.5t-20.5 36q0 29 15.5 64.5t40.5 63.5l27 -2q1 -34 24 -58t54 -24q15 0 23 7t8 20
q0 17 -15 29.5t-50 32.5q-35 19 -57.5 35t-38.5 41.5t-16 59.5q0 45 30.5 84t89.5 68q-42 39 -42 88q0 47 29.5 86.5t80.5 62t113 22.5q55 0 97 -14.5t42 -34.5q0 -23 -21 -71t-37 -60h-25q-5 25 -20.5 41t-33.5 16q-13 0 -23 -8.5t-10 -19.5q0 -15 13.5 -27zM208 257
q23 -21 70 -47q16 19 16 43q0 31 -21 51t-67 50q-21 -21 -21 -47q0 -29 23 -50z" />
    <glyph glyph-name="dieresis" unicode="&#xa8;" horiz-adv-x="386" 
d="M83 566.5q-18 17.5 -18 49.5q0 45 26.5 72.5t70.5 27.5q34 0 52 -18t18 -50q0 -44 -27 -71.5t-70 -27.5q-34 0 -52 17.5zM271 566q-18 17 -18 50q0 45 26.5 72.5t70.5 27.5q34 0 52 -18t18 -50q0 -44 -26.5 -71.5t-69.5 -27.5q-35 0 -53 17z" />
    <glyph glyph-name="copyright" unicode="&#xa9;" horiz-adv-x="678" 
d="M95 428.5q47 77.5 124 123.5t164 46q74 0 133.5 -36.5t93.5 -99.5t34 -138q0 -89 -47 -166.5t-124.5 -123.5t-164.5 -46q-74 0 -133 36t-93 98.5t-34 138.5q0 90 47 167.5zM135 155.5q27 -50.5 74 -79.5t106 -29q70 0 132 37t99.5 100t37.5 135q0 61 -27 111.5
t-74.5 79.5t-106.5 29q-70 0 -131.5 -37t-99 -100t-37.5 -135q0 -61 27 -111.5zM213 167.5q-35 34.5 -35 100.5q0 195 191 195q27 0 66.5 -5.5t52.5 -7.5l4 -12q-3 -8 -12 -39t-16 -70l-90 -5q1 5 3 17t3 21q0 12 -8 19t-22 7q-25 0 -34 -24.5t-9 -87.5q0 -39 6 -52.5
t23 -13.5q16 0 23.5 10.5t14.5 42.5l88 6q-2 -10 -8.5 -44.5t-9.5 -65.5l-8 -8q-4 -1 -20.5 -5.5t-43.5 -8.5t-57 -4q-67 0 -102 34.5z" />
    <glyph glyph-name="ordfeminine" unicode="&#xaa;" horiz-adv-x="390" 
d="M354 465l17 -3l14 -35q-58 -64 -89 -86t-63 -22q-36 0 -36 35q0 12 15 73h-7q-27 -45 -46.5 -69.5t-40.5 -38.5q-52 0 -81.5 28.5t-29.5 79.5t26 102t67.5 83t83.5 32l47 -13l3 13l15 9l101 -8l6 -17q-4 -18 -17 -77.5t-21 -109.5l3 -2q6 0 33 26zM182.5 470
q19.5 40 29.5 83q-26 16 -48 16q-7 0 -14 -32.5t-7 -65.5q0 -18 2.5 -29.5t6.5 -11.5q11 0 30.5 40z" />
    <glyph glyph-name="guillemotleft" unicode="&#xab;" horiz-adv-x="464" 
d="M447 364q-31 -45 -69 -110l-13 -22q24 -73 49 -131l-10 -23l-66 -36q-35 52 -76 106.5t-53 70.5l3 27q16 16 70.5 70t101.5 106l58 -35zM245 364q-31 -45 -69 -110l-13 -22q24 -73 49 -131l-10 -23l-66 -36q-35 52 -76 106.5t-53 70.5l3 27q16 16 70.5 70t101.5 106
l58 -35z" />
    <glyph glyph-name="logicalnot" unicode="&#xac;" horiz-adv-x="491" 
d="M452 313.5q-6 -24.5 -13.5 -64.5t-13.5 -85q-6 -51 -10.5 -87.5t-5.5 -47.5l-138 -18l-11 9q2 16 8.5 66.5t15.5 120.5h-45l-219 -1l-8 13l35 135l221 -1q41 0 104 2.5t83 3.5l5 -15q-2 -6 -8 -30.5z" />
    <glyph glyph-name="uni00AD" unicode="&#xad;" horiz-adv-x="314" 
d="M265 202l-228 -26l-10 18l23 106l149 17q40 4 59.5 7t23.5 4l9 -18z" />
    <glyph glyph-name="registered" unicode="&#xae;" horiz-adv-x="454" 
d="M92 598q31 52 83 82.5t110 30.5q50 0 90 -24.5t62.5 -66t22.5 -92.5q0 -60 -31.5 -112t-83.5 -82.5t-110 -30.5q-50 0 -89.5 24.5t-62 66t-22.5 92.5q0 60 31 112zM120 417q18 -33 49.5 -52.5t70.5 -19.5q46 0 87 24.5t66 66t25 88.5q0 40 -18 73t-49.5 52.5t-70.5 19.5
q-46 0 -87 -24.5t-66 -66t-25 -88.5q0 -40 18 -73zM173.5 449.5q5.5 6.5 6.5 18.5l13 103q1 4 1 9q0 9 -6 9q-4 0 -7 -0.5t-4 -0.5l-3 2l6 25h42h10q21 0 41 2q41 0 61.5 -12t20.5 -38q0 -42 -43 -66l15 -32q4 -10 11.5 -18.5t13.5 -9.5l2 -3q-1 -5 -1 -12t-8.5 -10
t-32.5 -4q-22 0 -29.5 4.5t-12.5 22.5l-12 47h-16l-4 -29q0 -9 4 -11t17 -3v-2l-6 -26q-5 0 -19 1t-27 1h-11l-44 -3l6 27q10 2 15.5 8.5zM252 551q-4 -18 -5 -27l23 -1q21 6 21 34q0 22 -29 22q-3 0 -4.5 -2t-1.5 -6z" />
    <glyph glyph-name="macron" unicode="&#xaf;" horiz-adv-x="386" 
d="M370 566l-136 -1l-129 -1l-14 15l32 109l149 -1q31 0 70 2.5t51 3.5l9 -18z" />
    <glyph glyph-name="degree" unicode="&#xb0;" horiz-adv-x="293" 
d="M70 584.5q21 34.5 55 54.5t73 20q51 0 83.5 -34.5t32.5 -86.5q0 -40 -20.5 -74.5t-55 -54.5t-73.5 -20q-50 0 -83 35t-33 86q0 40 21 74.5zM137.5 478.5q13.5 -14.5 36.5 -14.5q28 0 46.5 19t18.5 48q0 24 -13.5 38.5t-36.5 14.5q-28 0 -46.5 -19.5t-18.5 -48.5
q0 -23 13.5 -37.5z" />
    <glyph glyph-name="plusminus" unicode="&#xb1;" horiz-adv-x="491" 
d="M342.5 447.5q-7.5 -45.5 -15.5 -102.5q56 2 99 3.5t57 2.5l5 -15l-30 -136l-149 -1q-6 -52 -10.5 -90.5t-5.5 -50.5l-133 -18l-12 9l20 150l-149 -1l-8 13l35 135q12 0 50 -0.5t90 -0.5l10 79q4 26 10 78l133 13l14 -7q-3 -15 -10.5 -60.5zM401 -123l-404 -1l-8 19
l23 105h216h107q40 0 60.5 1t24.5 1l8 -19z" />
    <glyph glyph-name="uni00B2" unicode="&#xb2;" horiz-adv-x="369" 
d="M104 493q65 63 65 92q0 13 -7 19t-21 6q-37 0 -80 -44h-14l-8 86q35 35 77.5 55.5t80.5 20.5q55 0 88 -25.5t33 -66.5q0 -47 -31 -92.5t-112 -118.5l3 -6h26q23 0 36 13.5t20 47.5l87 6q-4 -15 -17 -65.5t-19 -88.5l-14 -13q-26 1 -105.5 4.5t-124.5 3.5l-69 -4l2 73z
" />
    <glyph glyph-name="uni00B3" unicode="&#xb3;" horiz-adv-x="322" 
d="M77 418q29 0 46.5 10t17.5 27q0 13 -15.5 19.5t-48.5 6.5l-9 11v66l45 8q20 7 30.5 20t10.5 28q0 9 -6.5 14.5t-17.5 5.5q-26 0 -71 -27h-11l-14 74q35 22 77 34.5t73 12.5q50 0 78.5 -20t28.5 -54q0 -33 -23.5 -59.5t-62.5 -36.5v-8q44 -16 64.5 -38t20.5 -52
q0 -36 -34 -69t-88.5 -52.5t-112.5 -19.5q-36 0 -48.5 21t-10.5 74l19 17q26 -13 62 -13z" />
    <glyph glyph-name="acute" unicode="&#xb4;" horiz-adv-x="386" 
d="M261 597.5q-64 -34.5 -128 -72.5l-22 7l-41 61q59 51 115 101.5t72 65.5h17l72 -101l-2 -17q-19 -10 -83 -44.5z" />
    <glyph glyph-name="uni00B5" unicode="&#xb5;" horiz-adv-x="558" 
d="M548 160q-34 -100 -110 -166q-42 0 -60.5 20t-18.5 68q0 9 2 33l1 13l-14 4q-29 -51 -64.5 -93.5t-49.5 -42.5q-19 6 -29 14.5t-28 30.5l-13 -6q0 -112 12 -255q-89 -20 -164 -17l-16 11l97 428q-2 48 -2 70q0 99 17 198l23 13h13l135 -26l-76 -261q9 -6 17 -6
q22 0 52 30.5t80 103.5q6 86 18 131l19 22q78 -7 151 -31q-69 -147 -114 -228q-2 -10 -2 -26q0 -44 34 -44q27 0 74 28z" />
    <glyph glyph-name="paragraph" unicode="&#xb6;" horiz-adv-x="557" 
d="M346 549q0 7 -5 9t-20 2q-35 0 -55.5 -52t-20.5 -132q0 -78 38 -144l-4 -35q-118 0 -186.5 54.5t-68.5 146.5q0 71 35.5 129t97 91.5t135.5 33.5q40 0 82 -3q54 -2 76 -2q37 0 88.5 1.5t72.5 1.5l-16 -84l-3 -4q-27 -7 -34.5 -14.5t-12.5 -31.5q-8 -33 -26 -146t-26 -180
q-9 -72 -57 -138t-118.5 -106t-140.5 -40q-35 0 -65 13t-48 34.5t-18 45.5q0 26 19 66.5t43 69.5h17q0 -57 21.5 -90t59.5 -33q40 0 60 21.5t26 72.5l54 439v4z" />
    <glyph glyph-name="periodcentered" unicode="&#xb7;" horiz-adv-x="231" 
d="M40 174.5q-21 20.5 -21 59.5q0 54 31.5 86.5t83.5 32.5q39 0 60 -21.5t21 -59.5q0 -53 -31.5 -85.5t-82.5 -32.5q-40 0 -61 20.5z" />
    <glyph glyph-name="cedilla" unicode="&#xb8;" horiz-adv-x="391" 
d="M193 36l-23 -73q37 -19 66.5 -45.5t29.5 -55.5q0 -28 -22 -52t-59 -38.5t-80 -14.5q-30 0 -56 14t-26 37q0 11 18.5 32t42.5 42h8q-2 -27 8.5 -41.5t31.5 -14.5q14 0 22.5 6.5t8.5 17.5q0 23 -77 63l45 123h62z" />
    <glyph glyph-name="uni00B9" unicode="&#xb9;" horiz-adv-x="276" 
d="M207 539.5q-15 -94.5 -15 -117.5q0 -32 20 -32q11 0 19 0.5t10 0.5l2 -4l-18 -64q-11 1 -42.5 2.5t-63.5 1.5q-33 0 -76.5 -3t-56.5 -4l13 58q31 3 47 13.5t18 30.5l22 184q1 7 1 18q0 12 -5.5 16t-20.5 4l-32 -1l-6 7l13 53q-7 -1 65 7l26 3q46 5 80.5 9t45.5 6l9 -32
q-21 -14 -34 -47q-6 -15 -21 -109.5z" />
    <glyph glyph-name="ordmasculine" unicode="&#xba;" horiz-adv-x="362" 
d="M49 354q-34 35 -34 100q0 92 51 145.5t138 53.5q63 0 96.5 -33.5t33.5 -97.5q0 -93 -51.5 -148t-137.5 -55q-62 0 -96 35zM193 419.5q7 24.5 7 83.5q0 38 -5 51t-18 13q-14 0 -22 -28.5t-8 -79.5q0 -35 5 -49.5t18 -14.5q16 0 23 24.5z" />
    <glyph glyph-name="guillemotright" unicode="&#xbb;" horiz-adv-x="464" 
d="M219 100q35 51 81 132q-24 73 -49 131l10 23l66 36q36 -53 76.5 -107l52.5 -70l-3 -27l-70 -70t-102 -106l-58 35zM17 100q35 51 81 132q-24 73 -49 131l10 23l66 36q36 -53 76.5 -107l52.5 -70l-3 -27l-70 -70t-102 -106l-58 35z" />
    <glyph glyph-name="onequarter" unicode="&#xbc;" horiz-adv-x="820" 
d="M207 466.5q-15 -94.5 -15 -117.5q0 -32 20 -32q11 0 19 0.5t10 0.5l2 -4l-18 -64q-11 1 -42.5 2.5t-63.5 1.5q-33 0 -76.5 -3t-56.5 -4l13 58q31 3 47 13.5t18 30.5l22 184q1 7 1 18q0 12 -5.5 16t-20.5 4l-32 -1l-6 7l13 53q-7 -1 65 7l26 3q46 5 80.5 9t45.5 6l9 -32
q-21 -14 -34 -47q-6 -15 -21 -109.5zM517 454.5q-80 -123.5 -161 -247.5q-67 -107 -119.5 -189.5t-69.5 -108.5l-93 35l-6 17q19 27 80.5 118t113.5 174l267 426l87 -32l10 -24q-29 -45 -109 -168.5zM658 399l6 2l106 -9l-27 -223h43l7 -10l-18 -81l-42 1q-3 -28 -4.5 -46.5
t-1.5 -24.5l-8 -8l-122 -8l-7 8q1 7 5.5 29.5t8.5 53.5l-149 2l9 72zM616 169l10 81h-8l-56 -81h54z" />
    <glyph glyph-name="onehalf" unicode="&#xbd;" horiz-adv-x="832" 
d="M207 466.5q-15 -94.5 -15 -117.5q0 -32 20 -32q11 0 19 0.5t10 0.5l2 -4l-18 -64q-11 1 -42.5 2.5t-63.5 1.5q-33 0 -76.5 -3t-56.5 -4l13 58q31 3 47 13.5t18 30.5l22 184q1 7 1 18q0 12 -5.5 16t-20.5 4l-32 -1l-6 7l13 53q-7 -1 65 7l26 3q46 5 80.5 9t45.5 6l9 -32
q-21 -14 -34 -47q-6 -15 -21 -109.5zM517 454.5q-80 -123.5 -161 -247.5q-67 -107 -119.5 -189.5t-69.5 -108.5l-93 35l-6 17q19 27 80.5 118t113.5 174l267 426l87 -32l10 -24q-29 -45 -109 -168.5zM567 166q65 63 65 92q0 13 -7 19t-21 6q-37 0 -80 -44h-14l-8 86
q35 35 77.5 55.5t80.5 20.5q55 0 88 -25.5t33 -66.5q0 -47 -31 -92.5t-112 -118.5l3 -6h26q23 0 36 13.5t20 47.5l87 6q-4 -15 -17 -65.5t-19 -88.5l-14 -13q-26 1 -105.5 4.5t-124.5 3.5l-69 -4l2 73z" />
    <glyph glyph-name="threequarters" unicode="&#xbe;" horiz-adv-x="866" 
d="M77 345q29 0 46.5 10t17.5 27q0 13 -15.5 19.5t-48.5 6.5l-9 11v66l45 8q20 7 30.5 20t10.5 28q0 9 -6.5 14.5t-17.5 5.5q-26 0 -71 -27h-11l-14 74q35 22 77 34.5t73 12.5q50 0 78.5 -20t28.5 -54q0 -33 -23.5 -59.5t-62.5 -36.5v-8q44 -16 64.5 -38t20.5 -52
q0 -36 -34 -69t-88.5 -52.5t-112.5 -19.5q-36 0 -48.5 21t-10.5 74l19 17q26 -13 62 -13zM563 454.5q-80 -123.5 -161 -247.5q-67 -107 -119.5 -189.5t-69.5 -108.5l-93 35l-6 17q19 27 80.5 118t113.5 174l267 426l87 -32l10 -24q-29 -45 -109 -168.5zM704 399l6 2l106 -9
l-27 -223h43l7 -10l-18 -81l-42 1q-3 -28 -4.5 -46.5t-1.5 -24.5l-8 -8l-122 -8l-7 8q1 7 5.5 29.5t8.5 53.5l-149 2l9 72zM662 169l10 81h-8l-56 -81h54z" />
    <glyph glyph-name="questiondown" unicode="&#xbf;" horiz-adv-x="371" 
d="M305.5 463q21.5 -21 21.5 -59q0 -54 -31.5 -86.5t-83.5 -32.5q-39 0 -60.5 21.5t-21.5 59.5q0 53 31.5 85.5t82.5 32.5q40 0 61.5 -21zM283 87l-98 -47q-53 -27 -53 -63q0 -32 38 -51t109 -22l12 -18l-55 -118l-18 -9q-78 2 -139 24.5t-95.5 60.5t-34.5 85q0 36 16 65.5
t55.5 62.5t111.5 77l3 6l2 69l10 14l120 20l14 -8l7 -133z" />
    <glyph glyph-name="Agrave" unicode="&#xc0;" horiz-adv-x="661" 
d="M608 104q11 -15 32 -18l6 -10l-18 -79q-14 0 -54 1t-84 1q-58 0 -115 -2t-73 -3l-7 9l16 84q29 3 42.5 6.5t18.5 9.5t5 18v18v39l-73 2q-20 0 -44 -2t-33 -3l-13 -44q-6 -19 -6 -27t5.5 -11.5t17.5 -3.5h27l7 -10l-18 -83q-15 1 -58.5 2t-91.5 1l-130 -1l17 87
q36 9 55 55l211 502l267 16l14 -12l62 -493q4 -34 15 -49zM322 301q7 0 49 2l-10 175h-22l-65 -177h48zM283 870l16 5q22 -9 97 -40t152 -60l-21 -71l-19 -13q-77 19 -154.5 35t-99.5 20l-7 16z" />
    <glyph glyph-name="Aacute" unicode="&#xc1;" horiz-adv-x="661" 
d="M608 104q11 -15 32 -18l6 -10l-18 -79q-14 0 -54 1t-84 1q-58 0 -115 -2t-73 -3l-7 9l16 84q29 3 42.5 6.5t18.5 9.5t5 18v18v39l-73 2q-20 0 -44 -2t-33 -3l-13 -44q-6 -19 -6 -27t5.5 -11.5t17.5 -3.5h27l7 -10l-18 -83q-15 1 -58.5 2t-91.5 1l-130 -1l17 87
q36 9 55 55l211 502l267 16l14 -12l62 -493q4 -34 15 -49zM322 301q7 0 49 2l-10 175h-22l-65 -177h48zM441.5 723q-77.5 -16 -154.5 -35l-19 13l-21 71q77 29 152 60t97 40l16 -5l36 -108l-7 -16q-22 -4 -99.5 -20z" />
    <glyph glyph-name="Acircumflex" unicode="&#xc2;" horiz-adv-x="661" 
d="M608 104q11 -15 32 -18l6 -10l-18 -79q-14 0 -54 1t-84 1q-58 0 -115 -2t-73 -3l-7 9l16 84q29 3 42.5 6.5t18.5 9.5t5 18v18v39l-73 2q-20 0 -44 -2t-33 -3l-13 -44q-6 -19 -6 -27t5.5 -11.5t17.5 -3.5h27l7 -10l-18 -83q-15 1 -58.5 2t-91.5 1l-130 -1l17 87
q36 9 55 55l211 502l267 16l14 -12l62 -493q4 -34 15 -49zM322 301q7 0 49 2l-10 175h-22l-65 -177h48zM328.5 851.5q58.5 43.5 75.5 56.5h27q1 3 56 -48q58 -54 100 -90l-43 -62l-24 -7q-44 20 -122 51q-50 -18 -134 -51l-22 7l-28 62q56 38 114.5 81.5z" />
    <glyph glyph-name="Atilde" unicode="&#xc3;" horiz-adv-x="661" 
d="M608 104q11 -15 32 -18l6 -10l-18 -79q-14 0 -54 1t-84 1q-58 0 -115 -2t-73 -3l-7 9l16 84q29 3 42.5 6.5t18.5 9.5t5 18v18v39l-73 2q-20 0 -44 -2t-33 -3l-13 -44q-6 -19 -6 -27t5.5 -11.5t17.5 -3.5h27l7 -10l-18 -83q-15 1 -58.5 2t-91.5 1l-130 -1l17 87
q36 9 55 55l211 502l267 16l14 -12l62 -493q4 -34 15 -49zM322 301q7 0 49 2l-10 175h-22l-65 -177h48zM199 729l2 16l93 115l17 4q18 0 78 -18q54 -16 67 -16q11 0 27 13t29 27t17 18h16l52 -54l-2 -16l-93 -115l-17 -4q-18 0 -78 18q-54 16 -67 16q-11 0 -27.5 -13
t-29 -27t-16.5 -18h-16z" />
    <glyph glyph-name="Adieresis" unicode="&#xc4;" horiz-adv-x="661" 
d="M608 104q11 -15 32 -18l6 -10l-18 -79q-14 0 -54 1t-84 1q-58 0 -115 -2t-73 -3l-7 9l16 84q29 3 42.5 6.5t18.5 9.5t5 18v18v39l-73 2q-20 0 -44 -2t-33 -3l-13 -44q-6 -19 -6 -27t5.5 -11.5t17.5 -3.5h27l7 -10l-18 -83q-15 1 -58.5 2t-91.5 1l-130 -1l17 87
q36 9 55 55l211 502l267 16l14 -12l62 -493q4 -34 15 -49zM322 301q7 0 49 2l-10 175h-22l-65 -177h48zM237 702.5q-18 17.5 -18 49.5q0 45 26.5 72.5t70.5 27.5q33 0 51 -18t18 -50q0 -44 -26.5 -71.5t-69.5 -27.5q-34 0 -52 17.5zM424.5 702.5q-18.5 17.5 -18.5 49.5
q0 45 26.5 72.5t70.5 27.5q34 0 52 -18t18 -50q0 -44 -26.5 -71.5t-69.5 -27.5q-34 0 -52.5 17.5z" />
    <glyph glyph-name="Aring" unicode="&#xc5;" horiz-adv-x="661" 
d="M608 104q11 -15 32 -18l6 -10l-18 -79q-14 0 -54 1t-84 1q-58 0 -115 -2t-73 -3l-7 9l16 84q29 3 42.5 6.5t18.5 9.5t5 18v18v39l-73 2q-20 0 -44 -2t-33 -3l-13 -44q-6 -19 -6 -27t5.5 -11.5t17.5 -3.5h27l7 -10l-18 -83q-15 1 -58.5 2t-91.5 1l-130 -1l17 87
q36 9 55 55l211 502l267 16l14 -12l62 -493q4 -34 15 -49zM322 301q7 0 49 2l-10 175h-22l-65 -177h48zM315.5 706q-22.5 24 -22.5 65q0 52 34.5 86.5t87.5 34.5q46 0 67.5 -24t21.5 -61q0 -32 -15 -61t-43.5 -46.5t-65.5 -17.5q-42 0 -64.5 24zM422 760.5q12 8.5 12 29.5
q0 14 -9 22t-25 8q-18 0 -27.5 -10t-9.5 -27q0 -16 10 -23.5t23 -7.5q14 0 26 8.5z" />
    <glyph glyph-name="AE" unicode="&#xc6;" horiz-adv-x="916" 
d="M366 99.5q14 8.5 16 30.5q0 5 1.5 13.5t1.5 18.5l3 57l-73 -13l-77 -23l-19 -53q-2 -5 -5.5 -14.5t-3.5 -14.5q0 -9 8.5 -10.5t43.5 -1.5l3 -10l-17 -83q-25 1 -85 2t-109 1q-30 0 -51 -0.5t-27 -0.5l8 87q38 9 62 55l201 391q-1 16 -6 22t-16 6q-9 0 -16 -1t-9 -1
l-11 14l19 79q28 -1 118 -2t212 -1q105 1 208 4.5t131 7.5l11 -16q-5 -18 -20.5 -79t-26.5 -120l-139 -9q1 5 4 21.5t3 27.5q0 26 -18 34.5t-68 8.5q-34 0 -34 -24l6 -131l70 13l101 26l15 -17l-25 -116l-96 -12l-62 -12l1 -73q1 -67 44 -67q37 0 56 8t31 30t24 69l129 9
l11 -15q-5 -17 -22 -77.5t-31 -128.5l-17 -16q-28 1 -130.5 4t-223.5 3q-52 -1 -102.5 -3t-65.5 -3l-6 9l16 84q40 4 54 12.5zM393 337l4 141h-22l-71 -154l40 4z" />
    <glyph glyph-name="Ccedilla" unicode="&#xc7;" horiz-adv-x="584" 
d="M86 59q-68 70 -68 200q0 196 94 298t274 102q37 0 86.5 -6t87 -12t48.5 -8l6 -20q-3 -7 -11.5 -36t-20.5 -76.5t-22 -101.5l-156 -9q2 9 6.5 36.5t4.5 38.5q0 27 -17 41.5t-49 14.5q-55 0 -78 -58t-23 -195q0 -75 15.5 -106.5t52.5 -31.5q25 0 40 10t25.5 34.5t20.5 71.5
l155 10q-4 -20 -17 -86.5t-20 -126.5l-15 -16q0 -1 -35 -11t-85 -18.5t-106 -8.5q-125 0 -193 70zM356 36l-23 -73q37 -19 66.5 -45.5t29.5 -55.5q0 -28 -22 -52t-59 -38.5t-80 -14.5q-30 0 -56 14t-26 37q0 11 18.5 32t42.5 42h8q-2 -27 8.5 -41.5t31.5 -14.5
q14 0 22.5 6.5t8.5 17.5q0 23 -77 63l45 123h62z" />
    <glyph glyph-name="Egrave" unicode="&#xc8;" horiz-adv-x="586" 
d="M277.5 122q8.5 -7 31.5 -7q42 0 63.5 8t34 29.5t24.5 68.5l129 9l11 -15q-5 -17 -22 -77.5t-31 -128.5l-17 -16q-27 1 -121 4t-190 3q-64 0 -128 -4t-82 -6l20 92q37 6 52.5 24.5t20.5 63.5l43 335q2 22 2 27q0 15 -5 21t-17 6q-8 0 -15.5 -1t-9.5 -1l-10 14l19 79
q23 -1 89.5 -2t140.5 -1q90 0 175.5 3.5t126.5 8.5l11 -16q-5 -18 -21 -79t-26 -120l-140 -9q1 5 4.5 21.5t3.5 27.5q0 26 -18 34.5t-68 8.5q-19 0 -25.5 -5t-9.5 -22l-20 -113l79 -1q18 0 56 2.5t51 3.5l10 -14l-28 -115q-12 1 -45 2t-70 1q-23 0 -45.5 -2.5t-27.5 -3.5
l-3 -23q-11 -68 -11 -86q0 -22 8.5 -29zM255 870l16 5q22 -9 97 -40t152 -60l-21 -71l-19 -13q-77 19 -154.5 35t-99.5 20l-7 16z" />
    <glyph glyph-name="Eacute" unicode="&#xc9;" horiz-adv-x="586" 
d="M277.5 122q8.5 -7 31.5 -7q42 0 63.5 8t34 29.5t24.5 68.5l129 9l11 -15q-5 -17 -22 -77.5t-31 -128.5l-17 -16q-27 1 -121 4t-190 3q-64 0 -128 -4t-82 -6l20 92q37 6 52.5 24.5t20.5 63.5l43 335q2 22 2 27q0 15 -5 21t-17 6q-8 0 -15.5 -1t-9.5 -1l-10 14l19 79
q23 -1 89.5 -2t140.5 -1q90 0 175.5 3.5t126.5 8.5l11 -16q-5 -18 -21 -79t-26 -120l-140 -9q1 5 4.5 21.5t3.5 27.5q0 26 -18 34.5t-68 8.5q-19 0 -25.5 -5t-9.5 -22l-20 -113l79 -1q18 0 56 2.5t51 3.5l10 -14l-28 -115q-12 1 -45 2t-70 1q-23 0 -45.5 -2.5t-27.5 -3.5
l-3 -23q-11 -68 -11 -86q0 -22 8.5 -29zM413.5 723q-77.5 -16 -154.5 -35l-19 13l-21 71q77 29 152 60t97 40l16 -5l36 -108l-7 -16q-22 -4 -99.5 -20z" />
    <glyph glyph-name="Ecircumflex" unicode="&#xca;" horiz-adv-x="586" 
d="M277.5 122q8.5 -7 31.5 -7q42 0 63.5 8t34 29.5t24.5 68.5l129 9l11 -15q-5 -17 -22 -77.5t-31 -128.5l-17 -16q-27 1 -121 4t-190 3q-64 0 -128 -4t-82 -6l20 92q37 6 52.5 24.5t20.5 63.5l43 335q2 22 2 27q0 15 -5 21t-17 6q-8 0 -15.5 -1t-9.5 -1l-10 14l19 79
q23 -1 89.5 -2t140.5 -1q90 0 175.5 3.5t126.5 8.5l11 -16q-5 -18 -21 -79t-26 -120l-140 -9q1 5 4.5 21.5t3.5 27.5q0 26 -18 34.5t-68 8.5q-19 0 -25.5 -5t-9.5 -22l-20 -113l79 -1q18 0 56 2.5t51 3.5l10 -14l-28 -115q-12 1 -45 2t-70 1q-23 0 -45.5 -2.5t-27.5 -3.5
l-3 -23q-11 -68 -11 -86q0 -22 8.5 -29zM300.5 851.5q58.5 43.5 75.5 56.5h27q1 3 56 -48q58 -54 100 -90l-43 -62l-24 -7q-44 20 -122 51q-50 -18 -134 -51l-22 7l-28 62q56 38 114.5 81.5z" />
    <glyph glyph-name="Edieresis" unicode="&#xcb;" horiz-adv-x="586" 
d="M277.5 122q8.5 -7 31.5 -7q42 0 63.5 8t34 29.5t24.5 68.5l129 9l11 -15q-5 -17 -22 -77.5t-31 -128.5l-17 -16q-27 1 -121 4t-190 3q-64 0 -128 -4t-82 -6l20 92q37 6 52.5 24.5t20.5 63.5l43 335q2 22 2 27q0 15 -5 21t-17 6q-8 0 -15.5 -1t-9.5 -1l-10 14l19 79
q23 -1 89.5 -2t140.5 -1q90 0 175.5 3.5t126.5 8.5l11 -16q-5 -18 -21 -79t-26 -120l-140 -9q1 5 4.5 21.5t3.5 27.5q0 26 -18 34.5t-68 8.5q-19 0 -25.5 -5t-9.5 -22l-20 -113l79 -1q18 0 56 2.5t51 3.5l10 -14l-28 -115q-12 1 -45 2t-70 1q-23 0 -45.5 -2.5t-27.5 -3.5
l-3 -23q-11 -68 -11 -86q0 -22 8.5 -29zM209 702.5q-18 17.5 -18 49.5q0 45 26.5 72.5t70.5 27.5q33 0 51 -18t18 -50q0 -44 -26.5 -71.5t-69.5 -27.5q-34 0 -52 17.5zM396.5 702.5q-18.5 17.5 -18.5 49.5q0 45 26.5 72.5t70.5 27.5q34 0 52 -18t18 -50q0 -44 -26.5 -71.5
t-69.5 -27.5q-34 0 -52.5 17.5z" />
    <glyph glyph-name="Igrave" unicode="&#xcc;" horiz-adv-x="359" 
d="M287.5 290q-20.5 -138 -20.5 -165q0 -22 5.5 -30t19.5 -8q13 0 21 1t10 2l6 -10l-19 -84q-20 1 -70 2.5t-93 1.5q-39 0 -93 -2t-71 -3l18 85q40 9 53.5 24.5t18.5 57.5l43 346q2 18 2 22q0 17 -7 23t-23 6l-24 -1l-8 14l17 75h159q44 0 96.5 2t73.5 3l-18 -90
q-33 -5 -44 -14.5t-17 -37.5q-15 -82 -35.5 -220zM142 870l16 5q22 -9 97 -40t152 -60l-21 -71l-19 -13q-77 19 -154.5 35t-99.5 20l-7 16z" />
    <glyph glyph-name="Iacute" unicode="&#xcd;" horiz-adv-x="359" 
d="M287.5 290q-20.5 -138 -20.5 -165q0 -22 5.5 -30t19.5 -8q13 0 21 1t10 2l6 -10l-19 -84q-20 1 -70 2.5t-93 1.5q-39 0 -93 -2t-71 -3l18 85q40 9 53.5 24.5t18.5 57.5l43 346q2 18 2 22q0 17 -7 23t-23 6l-24 -1l-8 14l17 75h159q44 0 96.5 2t73.5 3l-18 -90
q-33 -5 -44 -14.5t-17 -37.5q-15 -82 -35.5 -220zM300.5 723q-77.5 -16 -154.5 -35l-19 13l-21 71q77 29 152 60t97 40l16 -5l36 -108l-7 -16q-22 -4 -99.5 -20z" />
    <glyph glyph-name="Icircumflex" unicode="&#xce;" horiz-adv-x="359" 
d="M287.5 290q-20.5 -138 -20.5 -165q0 -22 5.5 -30t19.5 -8q13 0 21 1t10 2l6 -10l-19 -84q-20 1 -70 2.5t-93 1.5q-39 0 -93 -2t-71 -3l18 85q40 9 53.5 24.5t18.5 57.5l43 346q2 18 2 22q0 17 -7 23t-23 6l-24 -1l-8 14l17 75h159q44 0 96.5 2t73.5 3l-18 -90
q-33 -5 -44 -14.5t-17 -37.5q-15 -82 -35.5 -220zM187.5 851.5q58.5 43.5 75.5 56.5h27q1 3 56 -48q58 -54 100 -90l-43 -62l-24 -7q-44 20 -122 51q-50 -18 -134 -51l-22 7l-28 62q56 38 114.5 81.5z" />
    <glyph glyph-name="Eth" unicode="&#xd0;" horiz-adv-x="680" 
d="M612 589q73 -64 73 -187t-48 -217t-135.5 -145.5t-202.5 -51.5q-15 2 -65 7t-88 5q-34 0 -81 -3.5t-61 -4.5l20 93q36 6 50.5 23t21.5 60l12 98h-88l-9 8l24 89h85l17 140q2 22 2 27q0 15 -4.5 21t-14.5 6q-11 0 -19.5 -1t-11.5 -1l-8 14l19 81q18 0 63.5 -1.5t85.5 -1.5
q28 0 81.5 2.5t71.5 3.5q137 0 210 -64zM419 185.5q36 72.5 36 212.5q0 71 -20.5 99.5t-71.5 28.5q-10 0 -15 -5.5t-8 -21.5q-6 -25 -21 -135l69 3l7 -10l-18 -90h-73l-8 -59l-9 -63q0 -18 6 -25t20 -7q70 0 106 72.5z" />
    <glyph glyph-name="Ntilde" unicode="&#xd1;" horiz-adv-x="718" 
d="M514 516l1 14q0 17 -6 23t-21 6h-30l-4 11l15 81q18 -1 66.5 -2.5t97.5 -1.5q45 0 84 1t53 2l-16 -90q-31 -4 -44.5 -18t-18.5 -45l-74 -497l-192 -12q-51 116 -94.5 209t-55.5 118h-15l-18 -178q-1 -6 -1 -17q0 -19 7.5 -26.5t25.5 -7.5q10 0 19.5 1.5t12.5 2.5l8 -9
l-21 -85q-18 1 -64 2.5t-87 1.5q-43 0 -91.5 -3.5t-62.5 -4.5l21 90q29 4 44 18.5t19 44.5l54 349q2 14 2 19q0 22 -13.5 30.5t-52.5 13.5l-10 14l15 81q13 -1 56.5 -3t89.5 -2q34 0 75 1.5t53 2.5q28 -72 61 -146t53 -117t26 -55h15zM227 729l2 16l93 115l17 4q18 0 78 -18
q54 -16 67 -16q11 0 27 13t29 27t17 18h16l52 -54l-2 -16l-93 -115l-17 -4q-18 0 -78 18q-54 16 -67 16q-11 0 -27.5 -13t-29 -27t-16.5 -18h-16z" />
    <glyph glyph-name="Ograve" unicode="&#xd2;" horiz-adv-x="633" 
d="M88 57.5q-70 69.5 -70 198.5q0 194 90.5 298.5t263.5 104.5q128 0 197 -66.5t69 -194.5q0 -194 -92 -302t-263 -108q-125 0 -195 69.5zM384.5 181q22.5 67 22.5 221q0 61 -16 90.5t-49 29.5q-50 0 -72.5 -67.5t-22.5 -220.5q0 -61 15.5 -90.5t47.5 -29.5q52 0 74.5 67z
M269 870l16 5q22 -9 97 -40t152 -60l-21 -71l-19 -13q-77 19 -154.5 35t-99.5 20l-7 16z" />
    <glyph glyph-name="Oacute" unicode="&#xd3;" horiz-adv-x="633" 
d="M88 57.5q-70 69.5 -70 198.5q0 194 90.5 298.5t263.5 104.5q128 0 197 -66.5t69 -194.5q0 -194 -92 -302t-263 -108q-125 0 -195 69.5zM384.5 181q22.5 67 22.5 221q0 61 -16 90.5t-49 29.5q-50 0 -72.5 -67.5t-22.5 -220.5q0 -61 15.5 -90.5t47.5 -29.5q52 0 74.5 67z
M427.5 723q-77.5 -16 -154.5 -35l-19 13l-21 71q77 29 152 60t97 40l16 -5l36 -108l-7 -16q-22 -4 -99.5 -20z" />
    <glyph glyph-name="Ocircumflex" unicode="&#xd4;" horiz-adv-x="633" 
d="M88 57.5q-70 69.5 -70 198.5q0 194 90.5 298.5t263.5 104.5q128 0 197 -66.5t69 -194.5q0 -194 -92 -302t-263 -108q-125 0 -195 69.5zM384.5 181q22.5 67 22.5 221q0 61 -16 90.5t-49 29.5q-50 0 -72.5 -67.5t-22.5 -220.5q0 -61 15.5 -90.5t47.5 -29.5q52 0 74.5 67z
M314.5 851.5q58.5 43.5 75.5 56.5h27q1 3 56 -48q58 -54 100 -90l-43 -62l-24 -7q-44 20 -122 51q-50 -18 -134 -51l-22 7l-28 62q56 38 114.5 81.5z" />
    <glyph glyph-name="Otilde" unicode="&#xd5;" horiz-adv-x="633" 
d="M88 57.5q-70 69.5 -70 198.5q0 194 90.5 298.5t263.5 104.5q128 0 197 -66.5t69 -194.5q0 -194 -92 -302t-263 -108q-125 0 -195 69.5zM384.5 181q22.5 67 22.5 221q0 61 -16 90.5t-49 29.5q-50 0 -72.5 -67.5t-22.5 -220.5q0 -61 15.5 -90.5t47.5 -29.5q52 0 74.5 67z
M185 729l2 16l93 115l17 4q18 0 78 -18q54 -16 67 -16q11 0 27 13t29 27t17 18h16l52 -54l-2 -16l-93 -115l-17 -4q-18 0 -78 18q-54 16 -67 16q-11 0 -27.5 -13t-29 -27t-16.5 -18h-16z" />
    <glyph glyph-name="multiply" unicode="&#xd7;" horiz-adv-x="491" 
d="M464 347l-118 -111q34 -39 60.5 -68.5t35.5 -38.5l-8 -16l-115 -87l-90 106q-42 -39 -73 -68t-41 -38l-15 3l-66 104q9 8 38 35.5t69 63.5q-35 41 -61 72t-34 41l5 16l118 83q8 -9 32 -39t56 -69q36 34 73.5 71t48.5 48l14 -6z" />
    <glyph glyph-name="Oslash" unicode="&#xd8;" horiz-adv-x="633" 
d="M577 585q61 -66 61 -187q0 -194 -92 -302t-263 -108q-54 0 -96 13l-79 -118l-95 55l-4 10l77 112q-68 70 -68 196q0 194 90.5 298.5t263.5 104.5q59 0 102 -13l69 106l97 -54l2 -13zM384.5 181q22.5 67 22.5 221q0 61 -16 90.5t-49 29.5q-50 0 -72.5 -67.5t-22.5 -220.5
q0 -61 15.5 -90.5t47.5 -29.5q52 0 74.5 67z" />
    <glyph glyph-name="Ugrave" unicode="&#xd9;" horiz-adv-x="605" 
d="M249 192q-2 -77 59 -77q35 0 52 20t24 68q9 73 20.5 168.5t15.5 133.5q2 22 2 27q0 15 -4.5 21t-15.5 6q-7 0 -13 -1t-8 -1l-3 4l22 89q13 0 48 -1.5t68 -1.5q48 0 88.5 1t54.5 2l-19 -90q-31 -10 -40 -18t-11 -26l-35 -282q-17 -125 -85.5 -185.5t-194.5 -60.5
q-115 0 -171 42t-56 129q0 19 3 40l38 306q2 24 2 29q0 15 -5 20t-17 5q-9 0 -17 -1t-11 -1l-2 4l21 89q16 -1 65 -2t109 -1q37 0 77 1.5t55 2.5l-21 -93q-26 -3 -37.5 -14t-14.5 -35l-41 -289zM255 870l16 5q22 -9 97 -40t152 -60l-21 -71l-19 -13q-77 19 -154.5 35
t-99.5 20l-7 16z" />
    <glyph glyph-name="Uacute" unicode="&#xda;" horiz-adv-x="605" 
d="M249 192q-2 -77 59 -77q35 0 52 20t24 68q9 73 20.5 168.5t15.5 133.5q2 22 2 27q0 15 -4.5 21t-15.5 6q-7 0 -13 -1t-8 -1l-3 4l22 89q13 0 48 -1.5t68 -1.5q48 0 88.5 1t54.5 2l-19 -90q-31 -10 -40 -18t-11 -26l-35 -282q-17 -125 -85.5 -185.5t-194.5 -60.5
q-115 0 -171 42t-56 129q0 19 3 40l38 306q2 24 2 29q0 15 -5 20t-17 5q-9 0 -17 -1t-11 -1l-2 4l21 89q16 -1 65 -2t109 -1q37 0 77 1.5t55 2.5l-21 -93q-26 -3 -37.5 -14t-14.5 -35l-41 -289zM413.5 723q-77.5 -16 -154.5 -35l-19 13l-21 71q77 29 152 60t97 40l16 -5
l36 -108l-7 -16q-22 -4 -99.5 -20z" />
    <glyph glyph-name="Ucircumflex" unicode="&#xdb;" horiz-adv-x="605" 
d="M249 192q-2 -77 59 -77q35 0 52 20t24 68q9 73 20.5 168.5t15.5 133.5q2 22 2 27q0 15 -4.5 21t-15.5 6q-7 0 -13 -1t-8 -1l-3 4l22 89q13 0 48 -1.5t68 -1.5q48 0 88.5 1t54.5 2l-19 -90q-31 -10 -40 -18t-11 -26l-35 -282q-17 -125 -85.5 -185.5t-194.5 -60.5
q-115 0 -171 42t-56 129q0 19 3 40l38 306q2 24 2 29q0 15 -5 20t-17 5q-9 0 -17 -1t-11 -1l-2 4l21 89q16 -1 65 -2t109 -1q37 0 77 1.5t55 2.5l-21 -93q-26 -3 -37.5 -14t-14.5 -35l-41 -289zM310.5 851.5q58.5 43.5 75.5 56.5h27q1 3 56 -48q58 -54 100 -90l-43 -62
l-24 -7q-44 20 -122 51q-50 -18 -134 -51l-22 7l-28 62q56 38 114.5 81.5z" />
    <glyph glyph-name="Udieresis" unicode="&#xdc;" horiz-adv-x="605" 
d="M249 192q-2 -77 59 -77q35 0 52 20t24 68q9 73 20.5 168.5t15.5 133.5q2 22 2 27q0 15 -4.5 21t-15.5 6q-7 0 -13 -1t-8 -1l-3 4l22 89q13 0 48 -1.5t68 -1.5q48 0 88.5 1t54.5 2l-19 -90q-31 -10 -40 -18t-11 -26l-35 -282q-17 -125 -85.5 -185.5t-194.5 -60.5
q-115 0 -171 42t-56 129q0 19 3 40l38 306q2 24 2 29q0 15 -5 20t-17 5q-9 0 -17 -1t-11 -1l-2 4l21 89q16 -1 65 -2t109 -1q37 0 77 1.5t55 2.5l-21 -93q-26 -3 -37.5 -14t-14.5 -35l-41 -289zM219 702.5q-18 17.5 -18 49.5q0 45 26.5 72.5t70.5 27.5q33 0 51 -18t18 -50
q0 -44 -26.5 -71.5t-69.5 -27.5q-34 0 -52 17.5zM406.5 702.5q-18.5 17.5 -18.5 49.5q0 45 26.5 72.5t70.5 27.5q34 0 52 -18t18 -50q0 -44 -26.5 -71.5t-69.5 -27.5q-34 0 -52.5 17.5z" />
    <glyph glyph-name="Thorn" unicode="&#xde;" horiz-adv-x="590" 
d="M390 522q109 0 162 -40t53 -122q0 -66 -34.5 -116t-95.5 -77.5t-138 -27.5h-69l-3 -23l-1 -10q0 -11 6.5 -15t21.5 -4q18 0 28.5 1t12.5 2l7 -10l-19 -84q-21 1 -74.5 2.5t-99.5 1.5q-38 0 -92.5 -2t-71.5 -3l18 85q39 8 53.5 24t18.5 58l43 346q2 18 2 22q0 17 -7 23
t-23 6l-24 -1l-8 14l17 75h159q44 0 96.5 2t73.5 3l-18 -90q-37 -8 -46.5 -13.5t-12.5 -21.5l-1 -5h66zM293 322q-4 -25 -9 -66q42 -10 58 -10q28 8 42 34t14 64q0 33 -18 48t-57 15q-19 0 -22 -22z" />
    <glyph glyph-name="germandbls" unicode="&#xdf;" horiz-adv-x="676" 
d="M14 450l88 13l5 48q6 56 50 110t109.5 87.5t130.5 33.5q91 0 146.5 -38.5t55.5 -105.5q0 -39 -16.5 -67t-46.5 -60q-22 -23 -32.5 -40t-10.5 -36t15 -32t50 -33q35 -19 57.5 -36t38.5 -44.5t16 -66.5q0 -56 -32 -100.5t-87 -69.5t-123 -25q-52 0 -92.5 18.5t-49.5 46.5
q6 30 26 72t39 65l27 -2q-1 -35 16.5 -58.5t43.5 -23.5q20 0 31.5 11.5t11.5 30.5t-15.5 32t-48.5 30q-34 18 -54.5 33t-35.5 39.5t-15 59.5q0 37 15 63.5t44 59.5q24 27 36 46.5t12 43.5q0 30 -13 50t-43 20q-36 0 -57 -19.5t-28 -64.5l-60 -547q-6 -55 -44.5 -110
t-93 -90.5t-104.5 -35.5q-48 0 -86 18t-48 44q9 29 30.5 70t39.5 62h20q4 -44 20 -61.5t52 -17.5q30 0 47.5 21t17.5 60v20q0 7 -0.5 16.5t0.5 17.5l25 361l-11 10h-74l-3 5z" />
    <glyph glyph-name="agrave" unicode="&#xe0;" horiz-adv-x="528" 
d="M498 195l23 -4l20 -48q-56 -63 -92 -95.5t-63.5 -46t-56.5 -13.5q-51 0 -51 48q0 18 25 122h-10q-41 -70 -71.5 -109t-61.5 -61q-71 0 -111 41.5t-40 115.5q0 77 37.5 153.5t97 125t119.5 48.5l72 -20l5 20l19 12l134 -12l8 -23q-42 -191 -59 -292l4 -3q10 0 52 41z
M254.5 206q32.5 63 52.5 135q-41 26 -74 26q-9 0 -18.5 -24t-16 -61t-6.5 -73q0 -28 4 -47t10 -19q16 0 48.5 63zM188 762h17q16 -15 72 -65.5t115 -101.5l-41 -61l-22 -7q-64 38 -128 72.5t-83 44.5l-2 17z" />
    <glyph glyph-name="aacute" unicode="&#xe1;" horiz-adv-x="528" 
d="M498 195l23 -4l20 -48q-56 -63 -92 -95.5t-63.5 -46t-56.5 -13.5q-51 0 -51 48q0 18 25 122h-10q-41 -70 -71.5 -109t-61.5 -61q-71 0 -111 41.5t-40 115.5q0 77 37.5 153.5t97 125t119.5 48.5l72 -20l5 20l19 12l134 -12l8 -23q-42 -191 -59 -292l4 -3q10 0 52 41z
M254.5 206q32.5 63 52.5 135q-41 26 -74 26q-9 0 -18.5 -24t-16 -61t-6.5 -73q0 -28 4 -47t10 -19q16 0 48.5 63zM354 599.5q-64 -34.5 -128 -72.5l-22 7l-41 61q59 51 115 101.5t72 65.5h17l72 -101l-2 -17q-19 -10 -83 -44.5z" />
    <glyph glyph-name="acircumflex" unicode="&#xe2;" horiz-adv-x="528" 
d="M498 195l23 -4l20 -48q-56 -63 -92 -95.5t-63.5 -46t-56.5 -13.5q-51 0 -51 48q0 18 25 122h-10q-41 -70 -71.5 -109t-61.5 -61q-71 0 -111 41.5t-40 115.5q0 77 37.5 153.5t97 125t119.5 48.5l72 -20l5 20l19 12l134 -12l8 -23q-42 -191 -59 -292l4 -3q10 0 52 41z
M254.5 206q32.5 63 52.5 135q-41 26 -74 26q-9 0 -18.5 -24t-16 -61t-6.5 -73q0 -28 4 -47t10 -19q16 0 48.5 63zM244 698q56 49 72 64h27q13 -15 57.5 -64t86.5 -92l-53 -62l-24 -7q-27 21 -100 69q-72 -40 -115 -69l-23 7l-38 62q54 43 110 92z" />
    <glyph glyph-name="atilde" unicode="&#xe3;" horiz-adv-x="528" 
d="M498 195l23 -4l20 -48q-56 -63 -92 -95.5t-63.5 -46t-56.5 -13.5q-51 0 -51 48q0 18 25 122h-10q-41 -70 -71.5 -109t-61.5 -61q-71 0 -111 41.5t-40 115.5q0 77 37.5 153.5t97 125t119.5 48.5l72 -20l5 20l19 12l134 -12l8 -23q-42 -191 -59 -292l4 -3q10 0 52 41z
M254.5 206q32.5 63 52.5 135q-41 26 -74 26q-9 0 -18.5 -24t-16 -61t-6.5 -73q0 -28 4 -47t10 -19q16 0 48.5 63zM131 581l2 16l93 115l17 4q20 0 78 -18q5 -1 30.5 -8.5t37.5 -7.5q10 0 26 13t29 27t17 18h16l53 -54l-2 -16l-93 -115l-17 -4q-20 0 -78 18q-5 1 -30.5 8.5
t-37.5 7.5q-11 0 -27 -13t-28.5 -27t-16.5 -18h-16z" />
    <glyph glyph-name="adieresis" unicode="&#xe4;" horiz-adv-x="528" 
d="M498 195l23 -4l20 -48q-56 -63 -92 -95.5t-63.5 -46t-56.5 -13.5q-51 0 -51 48q0 18 25 122h-10q-41 -70 -71.5 -109t-61.5 -61q-71 0 -111 41.5t-40 115.5q0 77 37.5 153.5t97 125t119.5 48.5l72 -20l5 20l19 12l134 -12l8 -23q-42 -191 -59 -292l4 -3q10 0 52 41z
M254.5 206q32.5 63 52.5 135q-41 26 -74 26q-9 0 -18.5 -24t-16 -61t-6.5 -73q0 -28 4 -47t10 -19q16 0 48.5 63zM149 568.5q-18 17.5 -18 49.5q0 45 26.5 72.5t70.5 27.5q34 0 52 -18t18 -50q0 -44 -27 -71.5t-70 -27.5q-34 0 -52 17.5zM337 568q-18 17 -18 50
q0 45 26.5 72.5t70.5 27.5q34 0 52 -18t18 -50q0 -44 -26.5 -71.5t-69.5 -27.5q-35 0 -53 17z" />
    <glyph glyph-name="aring" unicode="&#xe5;" horiz-adv-x="528" 
d="M498 195l23 -4l20 -48q-56 -63 -92 -95.5t-63.5 -46t-56.5 -13.5q-51 0 -51 48q0 18 25 122h-10q-41 -70 -71.5 -109t-61.5 -61q-71 0 -111 41.5t-40 115.5q0 77 37.5 153.5t97 125t119.5 48.5l72 -20l5 20l19 12l134 -12l8 -23q-42 -191 -59 -292l4 -3q10 0 52 41z
M254.5 206q32.5 63 52.5 135q-41 26 -74 26q-9 0 -18.5 -24t-16 -61t-6.5 -73q0 -28 4 -47t10 -19q16 0 48.5 63zM256.5 568q-22.5 24 -22.5 65q0 51 34.5 86t87.5 35q46 0 67.5 -24t21.5 -61q0 -32 -15 -61t-43 -46.5t-65 -17.5q-43 0 -65.5 24zM363 622.5q12 8.5 12 29.5
q0 14 -8.5 22t-24.5 8q-19 0 -28.5 -10t-9.5 -27q0 -16 10 -23.5t23 -7.5q14 0 26 8.5z" />
    <glyph glyph-name="ae" unicode="&#xe6;" horiz-adv-x="686" 
d="M610 194l52 -58q-17 -41 -53 -75t-82 -53.5t-92 -19.5q-63 0 -106 37.5t-54 101.5q-33 -55 -60 -87t-55 -52q-71 0 -111 41.5t-40 115.5q0 77 37.5 153.5t97 125t119.5 48.5l153 -29q66 40 137 40q64 0 101 -30t37 -82q0 -47 -25 -80.5t-78.5 -60.5t-145.5 -55
q8 -49 55 -49q50 0 91 71zM235.5 174q18.5 31 38.5 79.5t33 97.5q-43 16 -74 16q-9 0 -18.5 -24t-16 -61t-6.5 -73q0 -29 4 -47.5t10 -18.5q11 0 29.5 31zM470.5 336q-18.5 -27 -25.5 -79q47 18 71.5 39t24.5 44q0 10 -7 16.5t-18 6.5q-27 0 -45.5 -27z" />
    <glyph glyph-name="ccedilla" unicode="&#xe7;" horiz-adv-x="393" 
d="M206.5 318.5q-18.5 -44.5 -18.5 -112.5q0 -38 12.5 -58t35.5 -20q20 0 39.5 19t35.5 55l21 -3l52 -58q-16 -41 -50 -76.5t-76.5 -56t-82.5 -20.5q-74 0 -118 48.5t-44 130.5q0 86 38 158.5t102.5 115t140.5 42.5q30 0 59.5 -6.5t49.5 -17.5l4 -18l-51 -129l-43 -1
q-13 27 -27 39.5t-33 12.5q-28 0 -46.5 -44.5zM240 36l-23 -73q37 -19 66.5 -45.5t29.5 -55.5q0 -28 -22 -52t-59 -38.5t-80 -14.5q-30 0 -56 14t-26 37q0 11 18.5 32t42.5 42h8q-2 -27 8.5 -41.5t31.5 -14.5q14 0 22.5 6.5t8.5 17.5q0 23 -77 63l45 123h62z" />
    <glyph glyph-name="egrave" unicode="&#xe8;" horiz-adv-x="429" 
d="M409 290.5q-25 -33.5 -78.5 -60.5t-145.5 -55q8 -49 55 -49q50 0 91 71l22 -3l52 -58q-17 -41 -53 -75t-82 -53.5t-92 -19.5q-74 0 -119 50.5t-45 134.5t38.5 155t103 113t140.5 42q64 0 101 -30t37 -82q0 -47 -25 -80.5zM213.5 336q-18.5 -27 -25.5 -79q47 18 71.5 39
t24.5 44q0 10 -7 16.5t-18 6.5q-27 0 -45.5 -27zM173 760h17q16 -15 72 -65.5t115 -101.5l-41 -61l-22 -7q-64 38 -128 72.5t-83 44.5l-2 17z" />
    <glyph glyph-name="eacute" unicode="&#xe9;" horiz-adv-x="429" 
d="M409 290.5q-25 -33.5 -78.5 -60.5t-145.5 -55q8 -49 55 -49q50 0 91 71l22 -3l52 -58q-17 -41 -53 -75t-82 -53.5t-92 -19.5q-74 0 -119 50.5t-45 134.5t38.5 155t103 113t140.5 42q64 0 101 -30t37 -82q0 -47 -25 -80.5zM213.5 336q-18.5 -27 -25.5 -79q47 18 71.5 39
t24.5 44q0 10 -7 16.5t-18 6.5q-27 0 -45.5 -27zM339 597.5q-64 -34.5 -128 -72.5l-22 7l-41 61q59 51 115 101.5t72 65.5h17l72 -101l-2 -17q-19 -10 -83 -44.5z" />
    <glyph glyph-name="ecircumflex" unicode="&#xea;" horiz-adv-x="429" 
d="M409 290.5q-25 -33.5 -78.5 -60.5t-145.5 -55q8 -49 55 -49q50 0 91 71l22 -3l52 -58q-17 -41 -53 -75t-82 -53.5t-92 -19.5q-74 0 -119 50.5t-45 134.5t38.5 155t103 113t140.5 42q64 0 101 -30t37 -82q0 -47 -25 -80.5zM213.5 336q-18.5 -27 -25.5 -79q47 18 71.5 39
t24.5 44q0 10 -7 16.5t-18 6.5q-27 0 -45.5 -27zM229 696q56 49 72 64h27q13 -15 57.5 -64t86.5 -92l-53 -62l-24 -7q-27 21 -100 69q-72 -40 -115 -69l-23 7l-38 62q54 43 110 92z" />
    <glyph glyph-name="edieresis" unicode="&#xeb;" horiz-adv-x="429" 
d="M409 290.5q-25 -33.5 -78.5 -60.5t-145.5 -55q8 -49 55 -49q50 0 91 71l22 -3l52 -58q-17 -41 -53 -75t-82 -53.5t-92 -19.5q-74 0 -119 50.5t-45 134.5t38.5 155t103 113t140.5 42q64 0 101 -30t37 -82q0 -47 -25 -80.5zM213.5 336q-18.5 -27 -25.5 -79q47 18 71.5 39
t24.5 44q0 10 -7 16.5t-18 6.5q-27 0 -45.5 -27zM134 566.5q-18 17.5 -18 49.5q0 45 26.5 72.5t70.5 27.5q34 0 52 -18t18 -50q0 -44 -27 -71.5t-70 -27.5q-34 0 -52 17.5zM322 566q-18 17 -18 50q0 45 26.5 72.5t70.5 27.5q34 0 52 -18t18 -50q0 -44 -26.5 -71.5
t-69.5 -27.5q-35 0 -53 17z" />
    <glyph glyph-name="igrave" unicode="&#xec;" horiz-adv-x="304" 
d="M108 760h17q16 -15 72 -65.5t115 -101.5l-41 -61l-22 -7q-64 38 -128 72.5t-83 44.5l-2 17zM231.5 163q11.5 9 36.5 32l23 -4l20 -48q-76 -88 -122 -121.5t-88 -33.5q-66 0 -66 67q45 266 45 291q0 17 -8 25t-25 8h-28l12 82q81 0 223 12l16 -20q-16 -62 -32.5 -145.5
t-25.5 -150.5l4 -3q4 0 15.5 9z" />
    <glyph glyph-name="iacute" unicode="&#xed;" horiz-adv-x="304" 
d="M231.5 163q11.5 9 36.5 32l23 -4l20 -48q-76 -88 -122 -121.5t-88 -33.5q-66 0 -66 67q45 266 45 291q0 17 -8 25t-25 8h-28l12 82q81 0 223 12l16 -20q-16 -62 -32.5 -145.5t-25.5 -150.5l4 -3q4 0 15.5 9zM232 591.5q-64 -34.5 -128 -72.5l-22 7l-41 61
q59 51 115 101.5t72 65.5h17l72 -101l-2 -17q-19 -10 -83 -44.5z" />
    <glyph glyph-name="icircumflex" unicode="&#xee;" horiz-adv-x="304" 
d="M231.5 163q11.5 9 36.5 32l23 -4l20 -48q-76 -88 -122 -121.5t-88 -33.5q-66 0 -66 67q45 266 45 291q0 17 -8 25t-25 8h-28l12 82q81 0 223 12l16 -20q-16 -62 -32.5 -145.5t-25.5 -150.5l4 -3q4 0 15.5 9zM122 690q56 49 72 64h27q13 -15 57.5 -64t86.5 -92l-53 -62
l-24 -7q-27 21 -100 69q-72 -40 -115 -69l-23 7l-38 62q54 43 110 92z" />
    <glyph glyph-name="eth" unicode="&#xf0;" horiz-adv-x="498" 
d="M442.5 452q31.5 -80 31.5 -165q0 -89 -33.5 -157t-94.5 -105t-142 -37q-86 0 -132.5 50t-46.5 141q0 120 61.5 198t166.5 92q-19 29 -48 58l-126 -64l-9 2l-23 94l76 41q-14 12 -63 53l58 81l17 8q61 -30 128 -74l146 74l8 -4l23 -93l-90 -46q61 -67 92.5 -147z
M281 131.5q12 39.5 12 128.5q0 53 -8.5 74t-29.5 21q-24 0 -38 -44.5t-14 -120.5q0 -50 9.5 -74t29.5 -24q27 0 39 39.5z" />
    <glyph glyph-name="ntilde" unicode="&#xf1;" horiz-adv-x="545" 
d="M550 146q-79 -90 -123 -122.5t-85 -32.5q-34 0 -49.5 14t-15.5 45q0 25 31 126q10 36 19 69.5t9 45.5q0 28 -16 28t-46 -60.5t-62 -154.5l-7 -59q-3 -21 -46.5 -36.5t-100.5 -15.5l-20 23l51 320q1 6 1 15q0 15 -7 21.5t-24 6.5h-27l12 82q81 0 220 12l13 -21
q-18 -63 -31 -150l7 1q61 146 112 182q69 0 108 -28.5t39 -78.5q0 -16 -11.5 -57.5t-23.5 -81.5q-19 -62 -22 -79l3 -3q5 0 15 8.5t35 32.5l24 -4zM146 579l2 16l93 115l17 4q20 0 78 -18q5 -1 30.5 -8.5t37.5 -7.5q10 0 26 13t29 27t17 18h16l53 -54l-2 -16l-93 -115
l-17 -4q-20 0 -78 18q-5 1 -30.5 8.5t-37.5 7.5q-11 0 -27 -13t-28.5 -27t-16.5 -18h-16z" />
    <glyph glyph-name="ograve" unicode="&#xf2;" horiz-adv-x="486" 
d="M65.5 39q-46.5 51 -46.5 145q0 90 33.5 158t94.5 105t142 37q87 0 133 -48.5t46 -140.5t-33.5 -161.5t-94.5 -107.5t-142 -38q-86 0 -132.5 51zM267.5 109.5q10.5 14.5 15.5 49.5t5 100q0 57 -8.5 81t-29.5 24q-29 0 -40.5 -32.5t-11.5 -116.5q0 -67 8.5 -93.5
t30.5 -26.5q20 0 30.5 14.5zM171 760h17q16 -15 72 -65.5t115 -101.5l-41 -61l-22 -7q-64 38 -128 72.5t-83 44.5l-2 17z" />
    <glyph glyph-name="oacute" unicode="&#xf3;" horiz-adv-x="486" 
d="M65.5 39q-46.5 51 -46.5 145q0 90 33.5 158t94.5 105t142 37q87 0 133 -48.5t46 -140.5t-33.5 -161.5t-94.5 -107.5t-142 -38q-86 0 -132.5 51zM267.5 109.5q10.5 14.5 15.5 49.5t5 100q0 57 -8.5 81t-29.5 24q-29 0 -40.5 -32.5t-11.5 -116.5q0 -67 8.5 -93.5
t30.5 -26.5q20 0 30.5 14.5zM337 597.5q-64 -34.5 -128 -72.5l-22 7l-41 61q59 51 115 101.5t72 65.5h17l72 -101l-2 -17q-19 -10 -83 -44.5z" />
    <glyph glyph-name="ocircumflex" unicode="&#xf4;" horiz-adv-x="486" 
d="M65.5 39q-46.5 51 -46.5 145q0 90 33.5 158t94.5 105t142 37q87 0 133 -48.5t46 -140.5t-33.5 -161.5t-94.5 -107.5t-142 -38q-86 0 -132.5 51zM267.5 109.5q10.5 14.5 15.5 49.5t5 100q0 57 -8.5 81t-29.5 24q-29 0 -40.5 -32.5t-11.5 -116.5q0 -67 8.5 -93.5
t30.5 -26.5q20 0 30.5 14.5zM227 696q56 49 72 64h27q13 -15 57.5 -64t86.5 -92l-53 -62l-24 -7q-27 21 -100 69q-72 -40 -115 -69l-23 7l-38 62q54 43 110 92z" />
    <glyph glyph-name="otilde" unicode="&#xf5;" horiz-adv-x="486" 
d="M65.5 39q-46.5 51 -46.5 145q0 90 33.5 158t94.5 105t142 37q87 0 133 -48.5t46 -140.5t-33.5 -161.5t-94.5 -107.5t-142 -38q-86 0 -132.5 51zM267.5 109.5q10.5 14.5 15.5 49.5t5 100q0 57 -8.5 81t-29.5 24q-29 0 -40.5 -32.5t-11.5 -116.5q0 -67 8.5 -93.5
t30.5 -26.5q20 0 30.5 14.5zM114 579l2 16l93 115l17 4q20 0 78 -18q5 -1 30.5 -8.5t37.5 -7.5q10 0 26 13t29 27t17 18h16l53 -54l-2 -16l-93 -115l-17 -4q-20 0 -78 18q-5 1 -30.5 8.5t-37.5 7.5q-11 0 -27 -13t-28.5 -27t-16.5 -18h-16z" />
    <glyph glyph-name="divide" unicode="&#xf7;" horiz-adv-x="491" 
d="M199 362q-18 18 -18 51q0 47 26.5 74.5t72.5 27.5q33 0 51 -18.5t18 -50.5q0 -46 -27 -74t-71 -28q-34 0 -52 18zM455 178l-220 -1l-219 -1l-7 13l34 135l221 -1q49 0 121 2.5t95 3.5l5 -15zM155 1q-18 18 -18 51q0 47 26.5 74.5t71.5 27.5q33 0 51 -18t18 -51
q0 -47 -26.5 -74.5t-70.5 -27.5q-34 0 -52 18z" />
    <glyph glyph-name="oslash" unicode="&#xf8;" horiz-adv-x="486" 
d="M440 412q28 -47 28 -117q0 -92 -33.5 -161.5t-94.5 -107.5t-142 -38q-21 0 -41 3l-87 -129l-95 55l-4 10l85 124q-37 49 -37 133q0 90 33.5 158t94.5 105t142 37q26 0 53 -5l83 128l97 -54l2 -13zM267.5 109.5q10.5 14.5 15.5 49.5t5 100q0 57 -8.5 81t-29.5 24
q-29 0 -40.5 -32.5t-11.5 -116.5q0 -67 8.5 -93.5t30.5 -26.5q20 0 30.5 14.5z" />
    <glyph glyph-name="ugrave" unicode="&#xf9;" horiz-adv-x="531" 
d="M535 143q-56 -63 -92 -95.5t-63.5 -46t-56.5 -13.5q-51 0 -51 48q0 10 6.5 41t22.5 96l-8 2q-62 -144 -119 -184q-66 0 -102.5 28.5t-36.5 78.5q0 17 9 53.5t20 73.5q11 36 19.5 70.5t8.5 50.5q0 17 -8 25t-25 8h-28l12 82q67 0 223 12l16 -20q-73 -247 -73 -274
q0 -12 2.5 -17t10.5 -5q31 0 110 205l13 100l20 12l147 -1l15 -20q-20 -63 -39.5 -139.5t-30.5 -135.5l4 -4q13 6 31 21l23 -4zM194 760h17q16 -15 72 -65.5t115 -101.5l-41 -61l-22 -7q-64 38 -128 72.5t-83 44.5l-2 17z" />
    <glyph glyph-name="uacute" unicode="&#xfa;" horiz-adv-x="531" 
d="M535 143q-56 -63 -92 -95.5t-63.5 -46t-56.5 -13.5q-51 0 -51 48q0 10 6.5 41t22.5 96l-8 2q-62 -144 -119 -184q-66 0 -102.5 28.5t-36.5 78.5q0 17 9 53.5t20 73.5q11 36 19.5 70.5t8.5 50.5q0 17 -8 25t-25 8h-28l12 82q67 0 223 12l16 -20q-73 -247 -73 -274
q0 -12 2.5 -17t10.5 -5q31 0 110 205l13 100l20 12l147 -1l15 -20q-20 -63 -39.5 -139.5t-30.5 -135.5l4 -4q13 6 31 21l23 -4zM360 597.5q-64 -34.5 -128 -72.5l-22 7l-41 61q59 51 115 101.5t72 65.5h17l72 -101l-2 -17q-19 -10 -83 -44.5z" />
    <glyph glyph-name="ucircumflex" unicode="&#xfb;" horiz-adv-x="531" 
d="M535 143q-56 -63 -92 -95.5t-63.5 -46t-56.5 -13.5q-51 0 -51 48q0 10 6.5 41t22.5 96l-8 2q-62 -144 -119 -184q-66 0 -102.5 28.5t-36.5 78.5q0 17 9 53.5t20 73.5q11 36 19.5 70.5t8.5 50.5q0 17 -8 25t-25 8h-28l12 82q67 0 223 12l16 -20q-73 -247 -73 -274
q0 -12 2.5 -17t10.5 -5q31 0 110 205l13 100l20 12l147 -1l15 -20q-20 -63 -39.5 -139.5t-30.5 -135.5l4 -4q13 6 31 21l23 -4zM250 696q56 49 72 64h27q13 -15 57.5 -64t86.5 -92l-53 -62l-24 -7q-27 21 -100 69q-72 -40 -115 -69l-23 7l-38 62q54 43 110 92z" />
    <glyph glyph-name="udieresis" unicode="&#xfc;" horiz-adv-x="531" 
d="M535 143q-56 -63 -92 -95.5t-63.5 -46t-56.5 -13.5q-51 0 -51 48q0 10 6.5 41t22.5 96l-8 2q-62 -144 -119 -184q-66 0 -102.5 28.5t-36.5 78.5q0 17 9 53.5t20 73.5q11 36 19.5 70.5t8.5 50.5q0 17 -8 25t-25 8h-28l12 82q67 0 223 12l16 -20q-73 -247 -73 -274
q0 -12 2.5 -17t10.5 -5q31 0 110 205l13 100l20 12l147 -1l15 -20q-20 -63 -39.5 -139.5t-30.5 -135.5l4 -4q13 6 31 21l23 -4zM155 566.5q-18 17.5 -18 49.5q0 45 26.5 72.5t70.5 27.5q34 0 52 -18t18 -50q0 -44 -27 -71.5t-70 -27.5q-34 0 -52 17.5zM343 566
q-18 17 -18 50q0 45 26.5 72.5t70.5 27.5q34 0 52 -18t18 -50q0 -44 -26.5 -71.5t-69.5 -27.5q-35 0 -53 17z" />
    <glyph glyph-name="thorn" unicode="&#xfe;" horiz-adv-x="525" 
d="M54 309.5q47 291.5 47 305.5q0 17 -8 25t-25 8h-28l12 82q57 0 130.5 5t96.5 7l16 -20q-8 -40 -34.5 -173.5t-46.5 -246.5h10q40 71 69.5 109.5t60.5 60.5q76 0 117.5 -43.5t41.5 -121.5q0 -83 -38 -157t-101.5 -118t-135.5 -44q-43 0 -81 8l-12 -92q-1 -6 -1 -17
q0 -19 9.5 -25.5t33.5 -6.5h46l1 -6l-16 -79q-82 0 -178.5 -3t-125.5 -4l16 82q29 4 41.5 17t18.5 49q17 107 64 398.5zM289.5 303.5q-19.5 -30.5 -39 -77t-31.5 -90.5q2 -2 11 -8t21.5 -12t24.5 -6q24 0 40.5 45t16.5 111q0 30 -3.5 49t-9.5 19q-11 0 -30.5 -30.5z" />
    <glyph glyph-name="ydieresis" unicode="&#xff;" horiz-adv-x="479" 
d="M459 484q12 -15 18.5 -40.5t6.5 -57.5q0 -61 -48 -155.5t-147 -230.5q-94 -128 -165 -185t-138 -57q-39 0 -70 17t-40 43q21 69 65 121l15 1q21 -27 39 -39.5t36 -12.5q19 0 40 13.5t48 42.5q-43 337 -59 408q-4 17 -10.5 23.5t-19.5 6.5l-26 -1l6 79l206 16l11 -9
q6 -91 7 -334h14q27 61 45 119.5t18 87.5q0 23 -13.5 41.5t-37.5 27.5l11 48zM129 566.5q-18 17.5 -18 49.5q0 45 26.5 72.5t70.5 27.5q34 0 52 -18t18 -50q0 -44 -27 -71.5t-70 -27.5q-34 0 -52 17.5zM317 566q-18 17 -18 50q0 45 26.5 72.5t70.5 27.5q34 0 52 -18t18 -50
q0 -44 -26.5 -71.5t-69.5 -27.5q-35 0 -53 17z" />
    <glyph glyph-name="Amacron" unicode="&#x100;" horiz-adv-x="661" 
d="M608 104q11 -15 32 -18l6 -10l-18 -79q-14 0 -54 1t-84 1q-58 0 -115 -2t-73 -3l-7 9l16 84q29 3 42.5 6.5t18.5 9.5t5 18v18v39l-73 2q-20 0 -44 -2t-33 -3l-13 -44q-6 -19 -6 -27t5.5 -11.5t17.5 -3.5h27l7 -10l-18 -83q-15 1 -58.5 2t-91.5 1l-130 -1l17 87
q36 9 55 55l211 502l267 16l14 -12l62 -493q4 -34 15 -49zM322 301q7 0 49 2l-10 175h-22l-65 -177h48zM518 696l-136 -1l-129 -1l-14 15l32 109l149 -1q31 0 70 2.5t51 3.5l9 -18z" />
    <glyph glyph-name="amacron" unicode="&#x101;" horiz-adv-x="528" 
d="M498 195l23 -4l20 -48q-56 -63 -92 -95.5t-63.5 -46t-56.5 -13.5q-51 0 -51 48q0 18 25 122h-10q-41 -70 -71.5 -109t-61.5 -61q-71 0 -111 41.5t-40 115.5q0 77 37.5 153.5t97 125t119.5 48.5l72 -20l5 20l19 12l134 -12l8 -23q-42 -191 -59 -292l4 -3q10 0 52 41z
M254.5 206q32.5 63 52.5 135q-41 26 -74 26q-9 0 -18.5 -24t-16 -61t-6.5 -73q0 -28 4 -47t10 -19q16 0 48.5 63zM432 568l-136 -1l-129 -1l-14 15l32 109l149 -1q31 0 70 2.5t51 3.5l9 -18z" />
    <glyph glyph-name="Abreve" unicode="&#x102;" horiz-adv-x="661" 
d="M608 104q11 -15 32 -18l6 -10l-18 -79q-14 0 -54 1t-84 1q-58 0 -115 -2t-73 -3l-7 9l16 84q29 3 42.5 6.5t18.5 9.5t5 18v18v39l-73 2q-20 0 -44 -2t-33 -3l-13 -44q-6 -19 -6 -27t5.5 -11.5t17.5 -3.5h27l7 -10l-18 -83q-15 1 -58.5 2t-91.5 1l-130 -1l17 87
q36 9 55 55l211 502l267 16l14 -12l62 -493q4 -34 15 -49zM322 301q7 0 49 2l-10 175h-22l-65 -177h48zM466 838q31 18 50 52l26 -7l32 -62q-25 -58 -73.5 -97t-118.5 -39t-109.5 39t-49.5 97l48 62l28 7q9 -34 36 -52t63 -18q37 0 68 18z" />
    <glyph glyph-name="abreve" unicode="&#x103;" horiz-adv-x="528" 
d="M498 195l23 -4l20 -48q-56 -63 -92 -95.5t-63.5 -46t-56.5 -13.5q-51 0 -51 48q0 18 25 122h-10q-41 -70 -71.5 -109t-61.5 -61q-71 0 -111 41.5t-40 115.5q0 77 37.5 153.5t97 125t119.5 48.5l72 -20l5 20l19 12l134 -12l8 -23q-42 -191 -59 -292l4 -3q10 0 52 41z
M254.5 206q32.5 63 52.5 135q-41 26 -74 26q-9 0 -18.5 -24t-16 -61t-6.5 -73q0 -28 4 -47t10 -19q16 0 48.5 63zM374 670q31 18 49 52l27 -7l32 -62q-25 -58 -74 -97t-118 -39q-70 0 -109.5 39t-49.5 97l47 62l28 7q10 -34 36.5 -52t63.5 -18t68 18z" />
    <glyph glyph-name="Aogonek" unicode="&#x104;" horiz-adv-x="661" 
d="M608 104q11 -15 32 -18l6 -10l-18 -79q-14 0 -54 1t-84 1q-58 0 -115 -2t-73 -3l-7 9l16 84q29 3 42.5 6.5t18.5 9.5t5 18v18v39l-73 2q-20 0 -44 -2t-33 -3l-13 -44q-6 -19 -6 -27t5.5 -11.5t17.5 -3.5h27l7 -10l-18 -83q-15 1 -58.5 2t-91.5 1l-130 -1l17 87
q36 9 55 55l211 502l267 16l14 -12l62 -493q4 -34 15 -49zM322 301q7 0 49 2l-10 175h-22l-65 -177h48zM508 -241q-60 0 -93.5 23.5t-33.5 66.5q0 33 27.5 74t105.5 119h92q-47 -53 -71.5 -95t-24.5 -64q0 -13 6.5 -19.5t18.5 -6.5q24 0 59 23l28 -47q-75 -60 -114 -74z" />
    <glyph glyph-name="aogonek" unicode="&#x105;" horiz-adv-x="528" 
d="M438 -120l28 -47q-75 -60 -114 -74q-60 0 -93.5 23.5t-33.5 66.5q0 28 18.5 59.5t65.5 81.5q-31 9 -31 46q0 20 25 122h-10q-40 -70 -70.5 -109t-62.5 -61q-71 0 -111 41.5t-40 115.5q0 77 37.5 153.5t97 125t119.5 48.5l72 -20l5 20l19 12l134 -12l8 -23
q-42 -186 -59 -292l4 -3q4 0 17.5 10.5t34.5 30.5l23 -4l20 -49q-187 -190 -187 -259q0 -13 7 -19.5t18 -6.5q24 0 59 23zM254.5 206q32.5 63 52.5 135q-41 26 -74 26q-9 0 -18.5 -24t-16 -61t-6.5 -73q0 -28 4 -47t10 -19q16 0 48.5 63z" />
    <glyph glyph-name="Cacute" unicode="&#x106;" horiz-adv-x="584" 
d="M86 59q-68 70 -68 200q0 196 94 298t274 102q37 0 86.5 -6t87 -12t48.5 -8l6 -20q-3 -7 -11.5 -36t-20.5 -76.5t-22 -101.5l-156 -9q2 9 6.5 36.5t4.5 38.5q0 27 -17 41.5t-49 14.5q-55 0 -78 -58t-23 -195q0 -75 15.5 -106.5t52.5 -31.5q25 0 40 10t25.5 34.5t20.5 71.5
l155 10q-4 -20 -17 -86.5t-20 -126.5l-15 -16q0 -1 -35 -11t-85 -18.5t-106 -8.5q-125 0 -193 70zM395.5 723q-77.5 -16 -154.5 -35l-19 13l-21 71q77 29 152 60t97 40l16 -5l36 -108l-7 -16q-22 -4 -99.5 -20z" />
    <glyph glyph-name="cacute" unicode="&#x107;" horiz-adv-x="393" 
d="M206.5 318.5q-18.5 -44.5 -18.5 -112.5q0 -38 12.5 -58t35.5 -20q20 0 39.5 19t35.5 55l21 -3l52 -58q-16 -41 -50 -76.5t-76.5 -56t-82.5 -20.5q-74 0 -118 48.5t-44 130.5q0 86 38 158.5t102.5 115t140.5 42.5q30 0 59.5 -6.5t49.5 -17.5l4 -18l-51 -129l-43 -1
q-13 27 -27 39.5t-33 12.5q-28 0 -46.5 -44.5zM311 597.5q-64 -34.5 -128 -72.5l-22 7l-41 61q59 51 115 101.5t72 65.5h17l72 -101l-2 -17q-19 -10 -83 -44.5z" />
    <glyph glyph-name="Ccircumflex" unicode="&#x108;" horiz-adv-x="584" 
d="M86 59q-68 70 -68 200q0 196 94 298t274 102q37 0 86.5 -6t87 -12t48.5 -8l6 -20q-3 -7 -11.5 -36t-20.5 -76.5t-22 -101.5l-156 -9q2 9 6.5 36.5t4.5 38.5q0 27 -17 41.5t-49 14.5q-55 0 -78 -58t-23 -195q0 -75 15.5 -106.5t52.5 -31.5q25 0 40 10t25.5 34.5t20.5 71.5
l155 10q-4 -20 -17 -86.5t-20 -126.5l-15 -16q0 -1 -35 -11t-85 -18.5t-106 -8.5q-125 0 -193 70zM290 871q56 49 72 64h27q13 -15 57.5 -64t86.5 -92l-53 -62l-24 -7q-27 21 -100 69q-72 -40 -115 -69l-23 7l-38 62q54 43 110 92z" />
    <glyph glyph-name="ccircumflex" unicode="&#x109;" horiz-adv-x="393" 
d="M206.5 318.5q-18.5 -44.5 -18.5 -112.5q0 -38 12.5 -58t35.5 -20q20 0 39.5 19t35.5 55l21 -3l52 -58q-16 -41 -50 -76.5t-76.5 -56t-82.5 -20.5q-74 0 -118 48.5t-44 130.5q0 86 38 158.5t102.5 115t140.5 42.5q30 0 59.5 -6.5t49.5 -17.5l4 -18l-51 -129l-43 -1
q-13 27 -27 39.5t-33 12.5q-28 0 -46.5 -44.5zM201 696q56 49 72 64h27q13 -15 57.5 -64t86.5 -92l-53 -62l-24 -7q-27 21 -100 69q-72 -40 -115 -69l-23 7l-38 62q54 43 110 92z" />
    <glyph glyph-name="Cdotaccent" unicode="&#x10a;" horiz-adv-x="584" 
d="M86 59q-68 70 -68 200q0 196 94 298t274 102q37 0 86.5 -6t87 -12t48.5 -8l6 -20q-3 -7 -11.5 -36t-20.5 -76.5t-22 -101.5l-156 -9q2 9 6.5 36.5t4.5 38.5q0 27 -17 41.5t-49 14.5q-55 0 -78 -58t-23 -195q0 -75 15.5 -106.5t52.5 -31.5q25 0 40 10t25.5 34.5t20.5 71.5
l155 10q-4 -20 -17 -86.5t-20 -126.5l-15 -16q0 -1 -35 -11t-85 -18.5t-106 -8.5q-125 0 -193 70zM274.5 704q-21.5 21 -21.5 59q0 54 31.5 86.5t83.5 32.5q39 0 60.5 -21t21.5 -60q0 -53 -31.5 -85.5t-82.5 -32.5q-40 0 -61.5 21z" />
    <glyph glyph-name="cdotaccent" unicode="&#x10b;" horiz-adv-x="393" 
d="M206.5 318.5q-18.5 -44.5 -18.5 -112.5q0 -38 12.5 -58t35.5 -20q20 0 39.5 19t35.5 55l21 -3l52 -58q-16 -41 -50 -76.5t-76.5 -56t-82.5 -20.5q-74 0 -118 48.5t-44 130.5q0 86 38 158.5t102.5 115t140.5 42.5q30 0 59.5 -6.5t49.5 -17.5l4 -18l-51 -129l-43 -1
q-13 27 -27 39.5t-33 12.5q-28 0 -46.5 -44.5zM190.5 550q-21.5 21 -21.5 59q0 54 31.5 86.5t83.5 32.5q39 0 60.5 -21t21.5 -60q0 -53 -31.5 -85.5t-82.5 -32.5q-40 0 -61.5 21z" />
    <glyph glyph-name="Ccaron" unicode="&#x10c;" horiz-adv-x="584" 
d="M86 59q-68 70 -68 200q0 196 94 298t274 102q37 0 86.5 -6t87 -12t48.5 -8l6 -20q-3 -7 -11.5 -36t-20.5 -76.5t-22 -101.5l-156 -9q2 9 6.5 36.5t4.5 38.5q0 27 -17 41.5t-49 14.5q-55 0 -78 -58t-23 -195q0 -75 15.5 -106.5t52.5 -31.5q25 0 40 10t25.5 34.5t20.5 71.5
l155 10q-4 -20 -17 -86.5t-20 -126.5l-15 -16q0 -1 -35 -11t-85 -18.5t-106 -8.5q-125 0 -193 70zM424 744.5q-59 -43.5 -76 -56.5h-27q-14 13 -61.5 56.5t-93.5 81.5l42 62l24 7q19 -9 102 -43l20 -8q50 18 134 51l22 -7l29 -62q-56 -38 -115 -81.5z" />
    <glyph glyph-name="ccaron" unicode="&#x10d;" horiz-adv-x="393" 
d="M206.5 318.5q-18.5 -44.5 -18.5 -112.5q0 -38 12.5 -58t35.5 -20q20 0 39.5 19t35.5 55l21 -3l52 -58q-16 -41 -50 -76.5t-76.5 -56t-82.5 -20.5q-74 0 -118 48.5t-44 130.5q0 86 38 158.5t102.5 115t140.5 42.5q30 0 59.5 -6.5t49.5 -17.5l4 -18l-51 -129l-43 -1
q-13 27 -27 39.5t-33 12.5q-28 0 -46.5 -44.5zM166 740q31 -25 99 -69q72 40 116 69l22 -7l38 -62q-53 -43 -109.5 -92t-72.5 -64h-27q-13 15 -57 64t-86 92l53 62z" />
    <glyph glyph-name="Dcaron" unicode="&#x10e;" horiz-adv-x="660" 
d="M214 -5q-50 5 -88 5q-34 0 -81 -3.5t-61 -4.5l20 93q36 6 50.5 23t21.5 60l41 335q2 22 2 27q0 15 -4.5 21t-14.5 6q-11 0 -19.5 -1t-11.5 -1l-8 14l19 81q18 0 63.5 -1.5t85.5 -1.5q28 0 81.5 2.5t71.5 3.5q137 0 210 -64t73 -187t-48 -217t-135.5 -145.5t-202.5 -51.5
q-15 2 -65 7zM328 520.5q-5 -5.5 -8 -21.5q-5 -25 -29 -185.5t-24 -168.5q0 -18 6 -25t20 -7q70 0 106 72.5t36 212.5q0 71 -20.5 99.5t-71.5 28.5q-10 0 -15 -5.5zM436 744.5q-59 -43.5 -76 -56.5h-27q-14 13 -61.5 56.5t-93.5 81.5l42 62l24 7q19 -9 102 -43l20 -8
q50 18 134 51l22 -7l29 -62q-56 -38 -115 -81.5z" />
    <glyph glyph-name="dcaron" unicode="&#x10f;" horiz-adv-x="629" 
d="M459.5 162q9.5 8 38.5 33l23 -4l20 -48q-56 -63 -92 -95.5t-63.5 -46t-56.5 -13.5q-51 0 -51 48q0 11 6 39.5t19 82.5h-10q-39 -68 -70 -107.5t-63 -62.5q-71 0 -111 41.5t-40 115.5q0 77 37.5 153.5t97 125t119.5 48.5l67 -19l22 152q1 5 1 13q0 16 -8 23t-25 7h-28
l12 82q57 0 130.5 5t96.5 7l16 -20q-12 -63 -43.5 -231.5t-61.5 -333.5l4 -3q4 0 13.5 8zM254 205.5q32 62.5 53 135.5q-3 2 -14 8t-27.5 12t-32.5 6q-9 0 -18.5 -24t-16 -61.5t-6.5 -73.5q0 -29 4 -47t10 -18q16 0 48 62.5zM710.5 662q-19.5 -66 -43.5 -136l-76 -25l-19 6
q11 75 16 149t5 89l135 14l7 -12q-5 -19 -24.5 -85z" />
    <glyph glyph-name="Dcroat" unicode="&#x110;" horiz-adv-x="680" 
d="M612 589q73 -64 73 -187t-48 -217t-135.5 -145.5t-202.5 -51.5q-15 2 -65 7t-88 5q-34 0 -81 -3.5t-61 -4.5l20 93q36 6 50.5 23t21.5 60l12 98h-88l-9 8l24 89h85l17 140q2 22 2 27q0 15 -4.5 21t-14.5 6q-11 0 -19.5 -1t-11.5 -1l-8 14l19 81q18 0 63.5 -1.5t85.5 -1.5
q28 0 81.5 2.5t71.5 3.5q137 0 210 -64zM419 185.5q36 72.5 36 212.5q0 71 -20.5 99.5t-71.5 28.5q-10 0 -15 -5.5t-8 -21.5q-6 -25 -21 -135l69 3l7 -10l-18 -90h-73l-8 -59l-9 -63q0 -18 6 -25t20 -7q70 0 106 72.5z" />
    <glyph glyph-name="dcroat" unicode="&#x111;" horiz-adv-x="529" 
d="M509 521l-67 -364l4 -3q4 0 13.5 8t38.5 33l23 -4l20 -48q-56 -63 -92 -95.5t-63.5 -46t-56.5 -13.5q-51 0 -51 48q0 11 6 39.5t19 82.5h-10q-39 -68 -70 -107.5t-63 -62.5q-71 0 -111 41.5t-40 115.5q0 77 37.5 153.5t97 125t119.5 48.5l67 -19l10 67l-104 -1l-11 10
l8 58l116 -1l3 19q1 5 1 13q0 16 -8 23t-25 7h-28l12 82q57 0 130.5 5t96.5 7l16 -20l-25 -133l51 2l15 -15l-5 -55h-74zM254 205.5q32 62.5 53 135.5q-3 2 -14 8t-27.5 12t-32.5 6q-9 0 -18.5 -24t-16 -61.5t-6.5 -73.5q0 -29 4 -47t10 -18q16 0 48 62.5z" />
    <glyph glyph-name="Emacron" unicode="&#x112;" horiz-adv-x="586" 
d="M277.5 122q8.5 -7 31.5 -7q42 0 63.5 8t34 29.5t24.5 68.5l129 9l11 -15q-5 -17 -22 -77.5t-31 -128.5l-17 -16q-27 1 -121 4t-190 3q-64 0 -128 -4t-82 -6l20 92q37 6 52.5 24.5t20.5 63.5l43 335q2 22 2 27q0 15 -5 21t-17 6q-8 0 -15.5 -1t-9.5 -1l-10 14l19 79
q23 -1 89.5 -2t140.5 -1q90 0 175.5 3.5t126.5 8.5l11 -16q-5 -18 -21 -79t-26 -120l-140 -9q1 5 4.5 21.5t3.5 27.5q0 26 -18 34.5t-68 8.5q-19 0 -25.5 -5t-9.5 -22l-20 -113l79 -1q18 0 56 2.5t51 3.5l10 -14l-28 -115q-12 1 -45 2t-70 1q-23 0 -45.5 -2.5t-27.5 -3.5
l-3 -23q-11 -68 -11 -86q0 -22 8.5 -29zM490 696l-136 -1l-129 -1l-14 15l32 109l149 -1q31 0 70 2.5t51 3.5l9 -18z" />
    <glyph glyph-name="emacron" unicode="&#x113;" horiz-adv-x="429" 
d="M409 290.5q-25 -33.5 -78.5 -60.5t-145.5 -55q8 -49 55 -49q50 0 91 71l22 -3l52 -58q-17 -41 -53 -75t-82 -53.5t-92 -19.5q-74 0 -119 50.5t-45 134.5t38.5 155t103 113t140.5 42q64 0 101 -30t37 -82q0 -47 -25 -80.5zM213.5 336q-18.5 -27 -25.5 -79q47 18 71.5 39
t24.5 44q0 10 -7 16.5t-18 6.5q-27 0 -45.5 -27zM417 566l-136 -1l-129 -1l-14 15l32 109l149 -1q31 0 70 2.5t51 3.5l9 -18z" />
    <glyph glyph-name="Ebreve" unicode="&#x114;" horiz-adv-x="586" 
d="M277.5 122q8.5 -7 31.5 -7q42 0 63.5 8t34 29.5t24.5 68.5l129 9l11 -15q-5 -17 -22 -77.5t-31 -128.5l-17 -16q-27 1 -121 4t-190 3q-64 0 -128 -4t-82 -6l20 92q37 6 52.5 24.5t20.5 63.5l43 335q2 22 2 27q0 15 -5 21t-17 6q-8 0 -15.5 -1t-9.5 -1l-10 14l19 79
q23 -1 89.5 -2t140.5 -1q90 0 175.5 3.5t126.5 8.5l11 -16q-5 -18 -21 -79t-26 -120l-140 -9q1 5 4.5 21.5t3.5 27.5q0 26 -18 34.5t-68 8.5q-19 0 -25.5 -5t-9.5 -22l-20 -113l79 -1q18 0 56 2.5t51 3.5l10 -14l-28 -115q-12 1 -45 2t-70 1q-23 0 -45.5 -2.5t-27.5 -3.5
l-3 -23q-11 -68 -11 -86q0 -22 8.5 -29zM438 843q31 18 49 52l27 -7l32 -62q-25 -58 -74 -97t-118 -39q-70 0 -109.5 39t-49.5 97l47 62l28 7q10 -34 36.5 -52t63.5 -18t68 18z" />
    <glyph glyph-name="ebreve" unicode="&#x115;" horiz-adv-x="429" 
d="M409 290.5q-25 -33.5 -78.5 -60.5t-145.5 -55q8 -49 55 -49q50 0 91 71l22 -3l52 -58q-17 -41 -53 -75t-82 -53.5t-92 -19.5q-74 0 -119 50.5t-45 134.5t38.5 155t103 113t140.5 42q64 0 101 -30t37 -82q0 -47 -25 -80.5zM213.5 336q-18.5 -27 -25.5 -79q47 18 71.5 39
t24.5 44q0 10 -7 16.5t-18 6.5q-27 0 -45.5 -27zM359 668q31 18 49 52l27 -7l32 -62q-25 -58 -74 -97t-118 -39q-70 0 -109.5 39t-49.5 97l47 62l28 7q10 -34 36.5 -52t63.5 -18t68 18z" />
    <glyph glyph-name="Edotaccent" unicode="&#x116;" horiz-adv-x="586" 
d="M277.5 122q8.5 -7 31.5 -7q42 0 63.5 8t34 29.5t24.5 68.5l129 9l11 -15q-5 -17 -22 -77.5t-31 -128.5l-17 -16q-27 1 -121 4t-190 3q-64 0 -128 -4t-82 -6l20 92q37 6 52.5 24.5t20.5 63.5l43 335q2 22 2 27q0 15 -5 21t-17 6q-8 0 -15.5 -1t-9.5 -1l-10 14l19 79
q23 -1 89.5 -2t140.5 -1q90 0 175.5 3.5t126.5 8.5l11 -16q-5 -18 -21 -79t-26 -120l-140 -9q1 5 4.5 21.5t3.5 27.5q0 26 -18 34.5t-68 8.5q-19 0 -25.5 -5t-9.5 -22l-20 -113l79 -1q18 0 56 2.5t51 3.5l10 -14l-28 -115q-12 1 -45 2t-70 1q-23 0 -45.5 -2.5t-27.5 -3.5
l-3 -23q-11 -68 -11 -86q0 -22 8.5 -29zM292.5 704q-21.5 21 -21.5 59q0 54 31.5 86.5t83.5 32.5q39 0 60.5 -21t21.5 -60q0 -53 -31.5 -85.5t-82.5 -32.5q-40 0 -61.5 21z" />
    <glyph glyph-name="edotaccent" unicode="&#x117;" horiz-adv-x="429" 
d="M409 290.5q-25 -33.5 -78.5 -60.5t-145.5 -55q8 -49 55 -49q50 0 91 71l22 -3l52 -58q-17 -41 -53 -75t-82 -53.5t-92 -19.5q-74 0 -119 50.5t-45 134.5t38.5 155t103 113t140.5 42q64 0 101 -30t37 -82q0 -47 -25 -80.5zM213.5 336q-18.5 -27 -25.5 -79q47 18 71.5 39
t24.5 44q0 10 -7 16.5t-18 6.5q-27 0 -45.5 -27zM218.5 550q-21.5 21 -21.5 59q0 54 31.5 86.5t83.5 32.5q39 0 60.5 -21t21.5 -60q0 -53 -31.5 -85.5t-82.5 -32.5q-40 0 -61.5 21z" />
    <glyph glyph-name="Eogonek" unicode="&#x118;" horiz-adv-x="586" 
d="M277.5 122q8.5 -7 31.5 -7q42 0 63.5 8t34 29.5t24.5 68.5l129 9l11 -15q-5 -17 -22 -77.5t-31 -128.5l-17 -16q-27 1 -121 4t-190 3q-64 0 -128 -4t-82 -6l20 92q37 6 52.5 24.5t20.5 63.5l43 335q2 22 2 27q0 15 -5 21t-17 6q-8 0 -15.5 -1t-9.5 -1l-10 14l19 79
q23 -1 89.5 -2t140.5 -1q90 0 175.5 3.5t126.5 8.5l11 -16q-5 -18 -21 -79t-26 -120l-140 -9q1 5 4.5 21.5t3.5 27.5q0 26 -18 34.5t-68 8.5q-19 0 -25.5 -5t-9.5 -22l-20 -113l79 -1q18 0 56 2.5t51 3.5l10 -14l-28 -115q-12 1 -45 2t-70 1q-23 0 -45.5 -2.5t-27.5 -3.5
l-3 -23q-11 -68 -11 -86q0 -22 8.5 -29zM400 -241q-60 0 -93.5 23.5t-33.5 66.5q0 33 27.5 74t105.5 119h92q-47 -53 -71.5 -95t-24.5 -64q0 -13 6.5 -19.5t18.5 -6.5q24 0 59 23l28 -47q-75 -60 -114 -74z" />
    <glyph glyph-name="eogonek" unicode="&#x119;" horiz-adv-x="429" 
d="M405 136q-151 -186 -151 -253q0 -13 7 -19.5t18 -6.5q24 0 59 23l28 -47q-75 -60 -114 -74q-60 0 -93.5 23.5t-33.5 66.5q0 29 18.5 60.5t66.5 81.5q-15 -3 -32 -3q-74 0 -119 50.5t-45 134.5t38.5 155t103 113t140.5 42q64 0 101 -30t37 -82q0 -46 -24 -79t-77.5 -61
t-147.5 -56q8 -49 55 -49q50 0 91 71l22 -3zM213.5 336q-18.5 -27 -25.5 -79q46 17 71 38.5t25 44.5q0 10 -7 16.5t-18 6.5q-27 0 -45.5 -27z" />
    <glyph glyph-name="Ecaron" unicode="&#x11a;" horiz-adv-x="586" 
d="M277.5 122q8.5 -7 31.5 -7q42 0 63.5 8t34 29.5t24.5 68.5l129 9l11 -15q-5 -17 -22 -77.5t-31 -128.5l-17 -16q-27 1 -121 4t-190 3q-64 0 -128 -4t-82 -6l20 92q37 6 52.5 24.5t20.5 63.5l43 335q2 22 2 27q0 15 -5 21t-17 6q-8 0 -15.5 -1t-9.5 -1l-10 14l19 79
q23 -1 89.5 -2t140.5 -1q90 0 175.5 3.5t126.5 8.5l11 -16q-5 -18 -21 -79t-26 -120l-140 -9q1 5 4.5 21.5t3.5 27.5q0 26 -18 34.5t-68 8.5q-19 0 -25.5 -5t-9.5 -22l-20 -113l79 -1q18 0 56 2.5t51 3.5l10 -14l-28 -115q-12 1 -45 2t-70 1q-23 0 -45.5 -2.5t-27.5 -3.5
l-3 -23q-11 -68 -11 -86q0 -22 8.5 -29zM442 744.5q-59 -43.5 -76 -56.5h-27q-14 13 -61.5 56.5t-93.5 81.5l42 62l24 7q19 -9 102 -43l20 -8q50 18 134 51l22 -7l29 -62q-56 -38 -115 -81.5z" />
    <glyph glyph-name="ecaron" unicode="&#x11b;" horiz-adv-x="429" 
d="M409 290.5q-25 -33.5 -78.5 -60.5t-145.5 -55q8 -49 55 -49q50 0 91 71l22 -3l52 -58q-17 -41 -53 -75t-82 -53.5t-92 -19.5q-74 0 -119 50.5t-45 134.5t38.5 155t103 113t140.5 42q64 0 101 -30t37 -82q0 -47 -25 -80.5zM213.5 336q-18.5 -27 -25.5 -79q47 18 71.5 39
t24.5 44q0 10 -7 16.5t-18 6.5q-27 0 -45.5 -27zM194 740q31 -25 99 -69q72 40 116 69l22 -7l38 -62q-53 -43 -109.5 -92t-72.5 -64h-27q-13 15 -57 64t-86 92l53 62z" />
    <glyph glyph-name="Gcircumflex" unicode="&#x11c;" horiz-adv-x="618" 
d="M86 59q-68 70 -68 200q0 196 94 298t274 102q37 0 86.5 -6t87 -12t48.5 -8l6 -20q-3 -6 -11.5 -31.5t-20.5 -70t-22 -98.5l-156 -9q2 7 6.5 30t4.5 34q0 53 -66 53q-55 0 -78 -58t-23 -195q0 -75 15.5 -106.5t52.5 -31.5q21 0 38 5.5t17 6.5l7 63q1 6 1 17
q0 13 -5.5 18.5t-19.5 5.5q-12 0 -20 -0.5t-11 -0.5l-7 14l23 95h150q34 0 71 2t37 3l3 -58q-22 -13 -32.5 -30.5t-15.5 -44.5q-7 -34 -13.5 -85t-6.5 -65t0.5 -24.5t0.5 -13.5l-14 -16q0 -1 -31.5 -9.5t-84.5 -16t-124 -7.5q-125 0 -193 70zM334 871q56 49 72 64h27
q13 -15 57.5 -64t86.5 -92l-53 -62l-24 -7q-27 21 -100 69q-72 -40 -115 -69l-23 7l-38 62q54 43 110 92z" />
    <glyph glyph-name="gcircumflex" unicode="&#x11d;" horiz-adv-x="501" 
d="M18 -225q-44 17 -68.5 47t-24.5 69q0 9 1 14l4 13q56 31 157 77l1 7q-36 16 -55.5 53t-19.5 89q0 77 38 154t97 126t119 49l72 -21l5 21l20 11l133 -11l15 -28q-13 -30 -25 -80t-16 -84q-1 -6 -7 -87q-1 -18 -5 -74t-8 -85q-6 -54 -63.5 -119.5t-134 -111.5t-135.5 -46
q-56 0 -100 17zM259 206q32 63 52 136q-3 2 -14 8t-27 11.5t-32 5.5q-10 0 -20 -24t-16.5 -61t-6.5 -73q0 -30 4.5 -48t11.5 -18q16 0 48 63zM260.5 -87q31.5 30 38.5 87l21 174l-10 3q-64 -99 -91 -134t-51 -51q-27 -17 -54 -38.5t-27 -25.5q0 -19 26.5 -32t64.5 -13
q51 0 82.5 30zM220 708q56 49 72 64h27q13 -15 57.5 -64t86.5 -92l-53 -62l-24 -7q-27 21 -100 69q-72 -40 -115 -69l-23 7l-38 62q54 43 110 92z" />
    <glyph glyph-name="Gbreve" unicode="&#x11e;" horiz-adv-x="618" 
d="M86 59q-68 70 -68 200q0 196 94 298t274 102q37 0 86.5 -6t87 -12t48.5 -8l6 -20q-3 -6 -11.5 -31.5t-20.5 -70t-22 -98.5l-156 -9q2 7 6.5 30t4.5 34q0 53 -66 53q-55 0 -78 -58t-23 -195q0 -75 15.5 -106.5t52.5 -31.5q21 0 38 5.5t17 6.5l7 63q1 6 1 17
q0 13 -5.5 18.5t-19.5 5.5q-12 0 -20 -0.5t-11 -0.5l-7 14l23 95h150q34 0 71 2t37 3l3 -58q-22 -13 -32.5 -30.5t-15.5 -44.5q-7 -34 -13.5 -85t-6.5 -65t0.5 -24.5t0.5 -13.5l-14 -16q0 -1 -31.5 -9.5t-84.5 -16t-124 -7.5q-125 0 -193 70zM464 838q31 18 50 52l26 -7
l32 -62q-25 -58 -73.5 -97t-118.5 -39t-109.5 39t-49.5 97l48 62l28 7q9 -34 36 -52t63 -18q37 0 68 18z" />
    <glyph glyph-name="gbreve" unicode="&#x11f;" horiz-adv-x="501" 
d="M18 -225q-44 17 -68.5 47t-24.5 69q0 9 1 14l4 13q56 31 157 77l1 7q-36 16 -55.5 53t-19.5 89q0 77 38 154t97 126t119 49l72 -21l5 21l20 11l133 -11l15 -28q-13 -30 -25 -80t-16 -84q-1 -6 -7 -87q-1 -18 -5 -74t-8 -85q-6 -54 -63.5 -119.5t-134 -111.5t-135.5 -46
q-56 0 -100 17zM259 206q32 63 52 136q-3 2 -14 8t-27 11.5t-32 5.5q-10 0 -20 -24t-16.5 -61t-6.5 -73q0 -30 4.5 -48t11.5 -18q16 0 48 63zM260.5 -87q31.5 30 38.5 87l21 174l-10 3q-64 -99 -91 -134t-51 -51q-27 -17 -54 -38.5t-27 -25.5q0 -19 26.5 -32t64.5 -13
q51 0 82.5 30zM350 680q31 18 49 52l27 -7l32 -62q-25 -58 -74 -97t-118 -39q-70 0 -109.5 39t-49.5 97l47 62l28 7q10 -34 36.5 -52t63.5 -18t68 18z" />
    <glyph glyph-name="Gdotaccent" unicode="&#x120;" horiz-adv-x="618" 
d="M86 59q-68 70 -68 200q0 196 94 298t274 102q37 0 86.5 -6t87 -12t48.5 -8l6 -20q-3 -6 -11.5 -31.5t-20.5 -70t-22 -98.5l-156 -9q2 7 6.5 30t4.5 34q0 53 -66 53q-55 0 -78 -58t-23 -195q0 -75 15.5 -106.5t52.5 -31.5q21 0 38 5.5t17 6.5l7 63q1 6 1 17
q0 13 -5.5 18.5t-19.5 5.5q-12 0 -20 -0.5t-11 -0.5l-7 14l23 95h150q34 0 71 2t37 3l3 -58q-22 -13 -32.5 -30.5t-15.5 -44.5q-7 -34 -13.5 -85t-6.5 -65t0.5 -24.5t0.5 -13.5l-14 -16q0 -1 -31.5 -9.5t-84.5 -16t-124 -7.5q-125 0 -193 70zM318.5 704q-21.5 21 -21.5 59
q0 54 31.5 86.5t83.5 32.5q39 0 60.5 -21t21.5 -60q0 -53 -31.5 -85.5t-82.5 -32.5q-40 0 -61.5 21z" />
    <glyph glyph-name="gdotaccent" unicode="&#x121;" horiz-adv-x="501" 
d="M18 -225q-44 17 -68.5 47t-24.5 69q0 9 1 14l4 13q56 31 157 77l1 7q-36 16 -55.5 53t-19.5 89q0 77 38 154t97 126t119 49l72 -21l5 21l20 11l133 -11l15 -28q-13 -30 -25 -80t-16 -84q-1 -6 -7 -87q-1 -18 -5 -74t-8 -85q-6 -54 -63.5 -119.5t-134 -111.5t-135.5 -46
q-56 0 -100 17zM259 206q32 63 52 136q-3 2 -14 8t-27 11.5t-32 5.5q-10 0 -20 -24t-16.5 -61t-6.5 -73q0 -30 4.5 -48t11.5 -18q16 0 48 63zM260.5 -87q31.5 30 38.5 87l21 174l-10 3q-64 -99 -91 -134t-51 -51q-27 -17 -54 -38.5t-27 -25.5q0 -19 26.5 -32t64.5 -13
q51 0 82.5 30zM209.5 562q-21.5 21 -21.5 59q0 54 31.5 86.5t83.5 32.5q39 0 60.5 -21t21.5 -60q0 -53 -31.5 -85.5t-82.5 -32.5q-40 0 -61.5 21z" />
    <glyph glyph-name="Gcommaaccent" unicode="&#x122;" horiz-adv-x="618" 
d="M86 59q-68 70 -68 200q0 196 94 298t274 102q37 0 86.5 -6t87 -12t48.5 -8l6 -20q-3 -6 -11.5 -31.5t-20.5 -70t-22 -98.5l-156 -9q2 7 6.5 30t4.5 34q0 53 -66 53q-55 0 -78 -58t-23 -195q0 -75 15.5 -106.5t52.5 -31.5q21 0 38 5.5t17 6.5l7 63q1 6 1 17
q0 13 -5.5 18.5t-19.5 5.5q-12 0 -20 -0.5t-11 -0.5l-7 14l23 95h150q34 0 71 2t37 3l3 -58q-22 -13 -32.5 -30.5t-15.5 -44.5q-7 -34 -13.5 -85t-6.5 -65t0.5 -24.5t0.5 -13.5l-14 -16q0 -1 -31.5 -9.5t-84.5 -16t-124 -7.5q-125 0 -193 70zM236 -45.5q27 11.5 48 11.5
q38 0 61.5 -27.5t23.5 -73.5q0 -53 -45 -109.5t-122 -100.5l-58 46v25q29 21 46.5 50t17.5 56q0 20 -8 41t-21 35l3 14q27 21 54 32.5z" />
    <glyph glyph-name="gcommaaccent" unicode="&#x123;" horiz-adv-x="501" 
d="M18 -225q-44 17 -68.5 47t-24.5 69q0 9 1 14l4 13q56 31 157 77l1 7q-36 16 -55.5 53t-19.5 89q0 77 38 154t97 126t119 49l72 -21l5 21l20 11l133 -11l15 -28q-13 -30 -25 -80t-16 -84q-1 -6 -7 -87q-1 -18 -5 -74t-8 -85q-6 -54 -63.5 -119.5t-134 -111.5t-135.5 -46
q-56 0 -100 17zM259 206q32 63 52 136q-3 2 -14 8t-27 11.5t-32 5.5q-10 0 -20 -24t-16.5 -61t-6.5 -73q0 -30 4.5 -48t11.5 -18q16 0 48 63zM260.5 -87q31.5 30 38.5 87l21 174l-10 3q-64 -99 -91 -134t-51 -51q-27 -17 -54 -38.5t-27 -25.5q0 -19 26.5 -32t64.5 -13
q51 0 82.5 30zM302 524q-36 0 -60 28.5t-24 71.5q0 55 40 111.5t112 104.5l61 -41l2 -25q-26 -22 -41.5 -50.5t-15.5 -54.5q0 -21 9.5 -43t25.5 -36l-2 -15q-57 -51 -107 -51z" />
    <glyph glyph-name="Hcircumflex" unicode="&#x124;" horiz-adv-x="716" 
d="M762 652l-17 -88q-36 -6 -48 -16t-17 -38q-14 -72 -34.5 -212.5t-20.5 -164.5t7 -34t24 -10q14 0 27 3l7 -11l-19 -83l-119 2h-49l-164 -1l18 87q34 1 51 18t22 58l13 102l-53 1q-23 0 -108 -9l-12 -100q-3 -19 -3 -37t5.5 -25t19.5 -7q19 0 26 3l7 -10l-19 -84
q-104 4 -161 4q-47 0 -162 -5l18 85q39 8 53 24t19 58l43 346q2 18 2 22q0 17 -7 23t-23 6l-25 -1l-7 14l17 75h126q38 0 198 5l-18 -90q-31 -6 -42 -16t-15 -36l-20 -121l77 -3q47 0 79 3l15 119q2 16 2 21q0 17 -7 23.5t-23 6.5l-26 -1l-7 14l17 75h186q97 2 147 5z
M355.5 851.5q58.5 43.5 75.5 56.5h27q1 3 56 -48q58 -54 100 -90l-43 -62l-24 -7q-44 20 -122 51q-50 -18 -134 -51l-22 7l-28 62q56 38 114.5 81.5z" />
    <glyph glyph-name="hcircumflex" unicode="&#x125;" horiz-adv-x="524" 
d="M457 166.5q12 9.5 36 31.5l24 -4l19 -48q-79 -89 -123.5 -122t-86.5 -33q-34 0 -50 14t-16 45q0 15 10 51.5t22 74.5q29 95 29 115q0 28 -18 28q-16 0 -48 -60.5t-65 -154.5l-7 -59q-3 -21 -47 -36.5t-101 -15.5l-20 23l94 589q1 5 1 13q0 16 -8 23t-25 7h-28l12 82
q56 0 130.5 5t97.5 7l15 -21q-9 -40 -35.5 -172.5t-45.5 -246.5l7 1q63 145 118 182q70 0 109.5 -28.5t39.5 -78.5q0 -17 -9.5 -51t-26.5 -87q-21 -69 -23 -80l3 -3q4 0 16 9.5zM129.5 918.5q58.5 43.5 75.5 56.5h27q1 3 56 -48q58 -54 100 -90l-43 -62l-24 -7
q-44 20 -122 51q-50 -18 -134 -51l-22 7l-28 62q56 38 114.5 81.5z" />
    <glyph glyph-name="Hbar" unicode="&#x126;" horiz-adv-x="716" 
d="M667 438q-15 -87 -28.5 -186.5t-13.5 -118.5q0 -24 7 -34t24 -10q14 0 27 3l7 -11l-19 -83l-119 2h-49l-164 -1l18 87q34 1 51 18t22 58l13 102l-53 1q-23 0 -108 -9l-12 -100q-3 -19 -3 -37t5.5 -25t19.5 -7q19 0 26 3l7 -10l-19 -84q-104 4 -161 4q-47 0 -162 -5l18 85
q39 8 53 24t19 58l34 274h-81l-11 10l8 58h92l1 4q2 18 2 22q0 17 -7 23t-23 6l-25 -1l-7 14l17 75h126q38 0 198 5l-18 -90q-31 -6 -42 -16t-15 -36l-1 -7h101h50l1 5q2 16 2 21q0 17 -7 23.5t-23 6.5l-26 -1l-7 14l17 75h186q97 2 147 5l-17 -88q-36 -6 -48 -16t-17 -38
l-1 -4l74 2l15 -15l-5 -55h-96zM464 437h-68h-86l-8 -48l77 -3q47 0 79 3z" />
    <glyph glyph-name="hbar" unicode="&#x127;" horiz-adv-x="524" 
d="M536 146q-79 -89 -123.5 -122t-86.5 -33q-34 0 -50 14t-16 45q0 15 10 51.5t22 74.5q29 95 29 115q0 28 -18 28q-16 0 -48 -60.5t-65 -154.5l-7 -59q-3 -21 -47 -36.5t-101 -15.5l-20 23l79 492h-78l-11 10l8 58h91l5 29q1 5 1 13q0 16 -8 23t-25 7h-28l12 82
q56 0 130.5 5t97.5 7l15 -21l-30 -145l109 3l15 -15l-5 -55h-132q-25 -128 -38 -207l7 1q63 145 118 182q70 0 109.5 -28.5t39.5 -78.5q0 -17 -9.5 -51t-26.5 -87q-21 -69 -23 -80l3 -3q4 0 16 9.5t36 31.5l24 -4z" />
    <glyph glyph-name="Imacron" unicode="&#x12a;" horiz-adv-x="359" 
d="M287.5 290q-20.5 -138 -20.5 -165q0 -22 5.5 -30t19.5 -8q13 0 21 1t10 2l6 -10l-19 -84q-20 1 -70 2.5t-93 1.5q-39 0 -93 -2t-71 -3l18 85q40 9 53.5 24.5t18.5 57.5l43 346q2 18 2 22q0 17 -7 23t-23 6l-24 -1l-8 14l17 75h159q44 0 96.5 2t73.5 3l-18 -90
q-33 -5 -44 -14.5t-17 -37.5q-15 -82 -35.5 -220zM377 696l-136 -1l-129 -1l-14 15l32 109l149 -1q31 0 70 2.5t51 3.5l9 -18z" />
    <glyph glyph-name="imacron" unicode="&#x12b;" horiz-adv-x="304" 
d="M320 566l-136 -1l-129 -1l-14 15l32 109l149 -1q31 0 70 2.5t51 3.5l9 -18zM231.5 163q11.5 9 36.5 32l23 -4l20 -48q-76 -88 -122 -121.5t-88 -33.5q-66 0 -66 67q45 266 45 291q0 17 -8 25t-25 8h-28l12 82q81 0 223 12l16 -20q-16 -62 -32.5 -145.5t-25.5 -150.5l4 -3
q4 0 15.5 9z" />
    <glyph glyph-name="Ibreve" unicode="&#x12c;" horiz-adv-x="359" 
d="M287.5 290q-20.5 -138 -20.5 -165q0 -22 5.5 -30t19.5 -8q13 0 21 1t10 2l6 -10l-19 -84q-20 1 -70 2.5t-93 1.5q-39 0 -93 -2t-71 -3l18 85q40 9 53.5 24.5t18.5 57.5l43 346q2 18 2 22q0 17 -7 23t-23 6l-24 -1l-8 14l17 75h159q44 0 96.5 2t73.5 3l-18 -90
q-33 -5 -44 -14.5t-17 -37.5q-15 -82 -35.5 -220zM325 838q31 18 50 52l26 -7l32 -62q-25 -58 -73.5 -97t-118.5 -39t-109.5 39t-49.5 97l48 62l28 7q9 -34 36 -52t63 -18q37 0 68 18z" />
    <glyph glyph-name="ibreve" unicode="&#x12d;" horiz-adv-x="304" 
d="M265 658q31 18 49 52l27 -7l32 -62q-25 -58 -74 -97t-118 -39q-70 0 -109.5 39t-49.5 97l47 62l28 7q10 -34 36.5 -52t63.5 -18t68 18zM231.5 163q11.5 9 36.5 32l23 -4l20 -48q-76 -88 -122 -121.5t-88 -33.5q-66 0 -66 67q45 266 45 291q0 17 -8 25t-25 8h-28l12 82
q81 0 223 12l16 -20q-16 -62 -32.5 -145.5t-25.5 -150.5l4 -3q4 0 15.5 9z" />
    <glyph glyph-name="Iogonek" unicode="&#x12e;" horiz-adv-x="359" 
d="M287.5 290q-20.5 -138 -20.5 -165q0 -22 5.5 -30t19.5 -8q13 0 21 1t10 2l6 -10l-19 -84q-20 1 -70 2.5t-93 1.5q-39 0 -93 -2t-71 -3l18 85q40 9 53.5 24.5t18.5 57.5l43 346q2 18 2 22q0 17 -7 23t-23 6l-24 -1l-8 14l17 75h159q44 0 96.5 2t73.5 3l-18 -90
q-33 -5 -44 -14.5t-17 -37.5q-15 -82 -35.5 -220zM176 -241q-60 0 -93.5 23.5t-33.5 66.5q0 33 27.5 74t105.5 119h92q-47 -53 -71.5 -95t-24.5 -64q0 -13 6.5 -19.5t18.5 -6.5q24 0 59 23l28 -47q-75 -60 -114 -74z" />
    <glyph glyph-name="iogonek" unicode="&#x12f;" horiz-adv-x="304" 
d="M124 567.5q-20 20.5 -20 57.5q0 54 31.5 85.5t84.5 31.5q37 0 56.5 -19t19.5 -56q0 -55 -31.5 -87.5t-82.5 -32.5q-38 0 -58 20.5zM228 -120l28 -47q-75 -60 -114 -74q-60 0 -93.5 23.5t-33.5 66.5q0 27 19 58.5t68 80.5h-1q-66 0 -66 67q7 41 26 157t19 134q0 17 -8 25
t-25 8h-28l12 82q56 0 128.5 5t94.5 7l16 -20q-3 -11 -13 -54t-23 -109t-22 -133l4 -3q4 0 15.5 9t36.5 32l23 -4l20 -48q-167 -190 -167 -260q0 -13 7 -19.5t18 -6.5q24 0 59 23z" />
    <glyph glyph-name="Idotaccent" unicode="&#x130;" horiz-adv-x="359" 
d="M287.5 290q-20.5 -138 -20.5 -165q0 -22 5.5 -30t19.5 -8q13 0 21 1t10 2l6 -10l-19 -84q-20 1 -70 2.5t-93 1.5q-39 0 -93 -2t-71 -3l18 85q40 9 53.5 24.5t18.5 57.5l43 346q2 18 2 22q0 17 -7 23t-23 6l-24 -1l-8 14l17 75h159q44 0 96.5 2t73.5 3l-18 -90
q-33 -5 -44 -14.5t-17 -37.5q-15 -82 -35.5 -220zM179.5 704q-21.5 21 -21.5 59q0 54 31.5 86.5t83.5 32.5q39 0 60.5 -21t21.5 -60q0 -53 -31.5 -85.5t-82.5 -32.5q-40 0 -61.5 21z" />
    <glyph glyph-name="dotlessi" unicode="&#x131;" horiz-adv-x="304" 
d="M231.5 163q11.5 9 36.5 32l23 -4l20 -48q-76 -88 -122 -121.5t-88 -33.5q-66 0 -66 67q45 266 45 291q0 17 -8 25t-25 8h-28l12 82q81 0 223 12l16 -20q-16 -62 -32.5 -145.5t-25.5 -150.5l4 -3q4 0 15.5 9z" />
    <glyph glyph-name="IJ" unicode="&#x132;" horiz-adv-x="688" 
d="M287.5 290q-20.5 -138 -20.5 -165q0 -22 5.5 -30t19.5 -8q13 0 21 1t10 2l6 -10l-19 -84q-20 1 -70 2.5t-93 1.5q-39 0 -93 -2t-71 -3l18 85q40 9 53.5 24.5t18.5 57.5l43 346q2 18 2 22q0 17 -7 23t-23 6l-24 -1l-8 14l17 75h159q44 0 96.5 2t73.5 3l-18 -90
q-33 -5 -44 -14.5t-17 -37.5q-15 -82 -35.5 -220zM469 532q0 16 -5.5 21.5t-20.5 5.5q-12 0 -22 -1t-13 -1l-7 14l17 76l139 1q61 1 117 3.5t72 3.5l-20 -93q-29 -7 -37.5 -15.5t-13.5 -36.5q-13 -67 -32 -193t-32 -232q-14 -96 -82.5 -156t-204.5 -93l-35 48l4 15
q45 32 69 60t37 67t22 106l46 376z" />
    <glyph glyph-name="ij" unicode="&#x133;" horiz-adv-x="604" 
d="M231.5 163q11.5 9 36.5 32l23 -4l20 -48q-76 -88 -122 -121.5t-88 -33.5q-66 0 -66 67q45 266 45 291q0 17 -8 25t-25 8h-28l12 82q81 0 223 12l16 -20q-16 -62 -32.5 -145.5t-25.5 -150.5l4 -3q4 0 15.5 9zM111.5 544q-21.5 21 -21.5 59q0 54 31.5 86.5t83.5 32.5
q39 0 60.5 -21t21.5 -60q0 -53 -31.5 -85.5t-82.5 -32.5q-40 0 -61.5 21zM447 567.5q-20 20.5 -20 57.5q0 54 31.5 85.5t84.5 31.5q37 0 56.5 -19t19.5 -56q0 -55 -31.5 -87.5t-82.5 -32.5q-38 0 -58 20.5zM440 -134q-62 -71 -158 -114l-42 43l4 15q54 42 76.5 87.5
t33.5 135.5q8 45 28.5 170t20.5 143q0 17 -8 25t-25 8h-28l12 82q56 0 128.5 5t94.5 7l16 -20q-3 -12 -14 -63t-29 -148.5t-38 -227.5q-10 -77 -72 -148z" />
    <glyph glyph-name="Jcircumflex" unicode="&#x134;" horiz-adv-x="329" 
d="M110 532q0 16 -5.5 21.5t-20.5 5.5q-12 0 -22 -1t-13 -1l-7 14l17 76l139 1q61 1 117 3.5t72 3.5l-20 -93q-29 -7 -37.5 -15.5t-13.5 -36.5q-13 -67 -32 -193t-32 -232q-14 -96 -82.5 -156t-204.5 -93l-35 48l4 15q45 32 69 60t37 67t22 106l46 376zM170 871q56 49 72 64
h27q13 -15 57.5 -64t86.5 -92l-53 -62l-24 -7q-27 21 -100 69q-72 -40 -115 -69l-23 7l-38 62q54 43 110 92z" />
    <glyph glyph-name="jcircumflex" unicode="&#x135;" horiz-adv-x="300" 
d="M136 -134q-62 -71 -158 -114l-42 43l4 15q54 42 76.5 87.5t33.5 135.5q8 45 28.5 170t20.5 143q0 17 -8 25t-25 8h-28l12 82q56 0 128.5 5t94.5 7l16 -20q-3 -12 -14 -63t-29 -148.5t-38 -227.5q-10 -77 -72 -148zM134 696q56 49 72 64h27q13 -15 57.5 -64t86.5 -92
l-53 -62l-24 -7q-27 21 -100 69q-72 -40 -115 -69l-23 7l-38 62q54 43 110 92z" />
    <glyph glyph-name="Kcommaaccent" unicode="&#x136;" horiz-adv-x="676" 
d="M118 530q0 17 -7 23t-23 6l-25 -1l-7 14l18 76l158 -1q44 0 97 2t74 3l-18 -90q-38 -10 -50.5 -20.5t-14.5 -35.5l-50 -350q-3 -24 -3 -37q0 -18 5.5 -25t19.5 -7q13 0 21 1t10 2l7 -10l-19 -84q-20 1 -70.5 2.5t-93.5 1.5q-39 0 -93 -2t-71 -3l18 85q39 8 53.5 24
t18.5 58l43 346q2 18 2 22zM420 472q15 16 24.5 32.5t9.5 27.5q0 13 -8 19t-27 7l-5 10l19 82q16 0 57.5 -1.5t82.5 -1.5q37 0 81.5 2t61.5 3l7 -15l-18 -75q-43 -24 -75.5 -53t-68.5 -74l-60 -79l65 -182q16 -44 34.5 -64.5t47.5 -25.5l9 -15l-20 -74q-21 -2 -79.5 -6.5
t-74.5 -4.5q-38 0 -58.5 17.5t-37.5 63.5l-89 252l9 30zM328 -45.5q27 11.5 48 11.5q38 0 61.5 -27.5t23.5 -73.5q0 -53 -45 -109.5t-122 -100.5l-58 46v25q29 21 46.5 50t17.5 56q0 20 -8 41t-21 35l3 14q27 21 54 32.5z" />
    <glyph glyph-name="kcommaaccent" unicode="&#x137;" horiz-adv-x="491" 
d="M252 216q0 -1 21.5 10t38.5 29t17 42q0 12 -4.5 17t-14.5 5q-19 0 -53.5 -60.5t-69.5 -154.5l-7 -59q-3 -21 -47 -36.5t-101 -15.5l-20 23q15 89 55 333.5t40 265.5q0 17 -8 25t-25 8h-28l12 82q56 0 130.5 5t97.5 7l15 -21q-9 -40 -35.5 -172.5t-45.5 -246.5l7 1
q63 146 118 182q74 0 116 -29.5t42 -81.5q0 -46 -28.5 -91t-83.5 -86q18 -41 45.5 -95.5t36.5 -71.5l-4 -21l-162 -22l-13 7l-52 203zM184 -45.5q27 11.5 48 11.5q38 0 61.5 -27.5t23.5 -73.5q0 -53 -45 -109.5t-122 -100.5l-58 46v25q29 21 46.5 50t17.5 56q0 20 -8 41
t-21 35l3 14q27 21 54 32.5z" />
    <glyph glyph-name="kgreenlandic" unicode="&#x138;" horiz-adv-x="532" 
d="M319 -6l-52 203l10 19q0 -1 21.5 10t38.5 29t17 42q0 12 -4.5 17t-14.5 5q-19 0 -53.5 -60.5t-69.5 -154.5l-7 -59q-2 -21 -46 -36.5t-101 -15.5l-20 23l51 320q1 6 1 15q0 15 -7.5 21.5t-23.5 6.5h-27l12 82q55 0 126.5 5t93.5 7l13 -21q-3 -13 -13.5 -57t-17.5 -90
l6 -2q63 146 118 182q74 0 116 -29.5t42 -81.5q0 -46 -28.5 -91t-83.5 -86q18 -41 45.5 -95.5t36.5 -71.5l-4 -21l-162 -22z" />
    <glyph glyph-name="Lacute" unicode="&#x139;" horiz-adv-x="543" 
d="M62 -4q-64 -4 -82 -6l20 92q37 6 52.5 24.5t20.5 63.5l42 338q2 18 2 22q0 17 -7 23t-23 6l-25 -1l-7 14l17 75h159q52 0 116 2t90 3l-23 -98q-51 -5 -70 -15.5t-23 -36.5q-15 -85 -33.5 -206.5t-18.5 -148.5q0 -17 7 -24.5t22 -7.5q34 0 53.5 13t32 47t24.5 103l130 13
l10 -15q-5 -22 -22.5 -101t-33.5 -166l-17 -16q-25 1 -111 4t-175 3q-63 0 -127 -4zM312.5 723q-77.5 -16 -154.5 -35l-19 13l-21 71q77 29 152 60t97 40l16 -5l36 -108l-7 -16q-22 -4 -99.5 -20z" />
    <glyph glyph-name="lacute" unicode="&#x13a;" horiz-adv-x="291" 
d="M218.5 163q11.5 9 36.5 32l23 -4l20 -48q-78 -90 -123 -122.5t-87 -32.5q-66 0 -66 67q0 17 48 309q40 234 40 251t-8 25t-25 8h-28l12 82q57 0 130.5 5t96.5 7l16 -20q-14 -67 -53 -269t-52 -296l4 -3q4 0 15.5 9zM246 855.5q-64 -34.5 -128 -72.5l-22 7l-41 61
q59 51 115 101.5t72 65.5h17l72 -101l-2 -17q-19 -10 -83 -44.5z" />
    <glyph glyph-name="Lcommaaccent" unicode="&#x13b;" horiz-adv-x="543" 
d="M62 -4q-64 -4 -82 -6l20 92q37 6 52.5 24.5t20.5 63.5l42 338q2 18 2 22q0 17 -7 23t-23 6l-25 -1l-7 14l17 75h159q52 0 116 2t90 3l-23 -98q-51 -5 -70 -15.5t-23 -36.5q-15 -85 -33.5 -206.5t-18.5 -148.5q0 -17 7 -24.5t22 -7.5q34 0 53.5 13t32 47t24.5 103l130 13
l10 -15q-5 -22 -22.5 -101t-33.5 -166l-17 -16q-25 1 -111 4t-175 3q-63 0 -127 -4zM199 -45.5q27 11.5 48 11.5q38 0 61.5 -27.5t23.5 -73.5q0 -53 -45 -109.5t-122 -100.5l-58 46v25q29 21 46.5 50t17.5 56q0 20 -8 41t-21 35l3 14q27 21 54 32.5z" />
    <glyph glyph-name="lcommaaccent" unicode="&#x13c;" horiz-adv-x="291" 
d="M218.5 163q11.5 9 36.5 32l23 -4l20 -48q-78 -90 -123 -122.5t-87 -32.5q-66 0 -66 67q0 17 48 309q40 234 40 251t-8 25t-25 8h-28l12 82q57 0 130.5 5t96.5 7l16 -20q-14 -67 -53 -269t-52 -296l4 -3q4 0 15.5 9zM73 -45.5q27 11.5 48 11.5q38 0 61.5 -27.5t23.5 -73.5
q0 -53 -45 -109.5t-122 -100.5l-58 46v25q29 21 46.5 50t17.5 56q0 20 -8 41t-21 35l3 14q27 21 54 32.5z" />
    <glyph glyph-name="Lcaron" unicode="&#x13d;" horiz-adv-x="581" 
d="M62 -4q-64 -4 -82 -6l20 92q37 6 52.5 24.5t20.5 63.5l42 338q2 18 2 22q0 17 -7 23t-23 6l-25 -1l-7 14l17 75h159q52 0 116 2t90 3l-23 -98q-51 -5 -70 -15.5t-23 -36.5q-15 -85 -33.5 -206.5t-18.5 -148.5q0 -17 7 -24.5t22 -7.5q34 0 53.5 13t32 47t24.5 103l130 13
l10 -15q-5 -22 -22.5 -101t-33.5 -166l-17 -16q-25 1 -111 4t-175 3q-63 0 -127 -4zM601.5 550q-19.5 -66 -44.5 -136l-76 -25l-18 6q11 75 15.5 147.5t4.5 90.5l136 14l7 -12q-5 -19 -24.5 -85z" />
    <glyph glyph-name="lcaron" unicode="&#x13e;" horiz-adv-x="391" 
d="M218.5 163q11.5 9 36.5 32l23 -4l20 -48q-78 -90 -123 -122.5t-87 -32.5q-66 0 -66 67q0 17 48 309q40 234 40 251t-8 25t-25 8h-28l12 82q57 0 130.5 5t96.5 7l16 -20q-14 -67 -53 -269t-52 -296l4 -3q4 0 15.5 9zM472.5 662q-19.5 -66 -43.5 -136l-76 -25l-19 6
q11 75 16 149t5 89l135 14l7 -12q-5 -19 -24.5 -85z" />
    <glyph glyph-name="Ldot" unicode="&#x13f;" horiz-adv-x="593" 
d="M62 -4q-64 -4 -82 -6l20 92q37 6 52.5 24.5t20.5 63.5l42 338q2 18 2 22q0 17 -7 23t-23 6l-25 -1l-7 14l17 75h159q52 0 116 2t90 3l-23 -98q-51 -5 -70 -15.5t-23 -36.5q-15 -85 -33.5 -206.5t-18.5 -148.5q0 -17 7 -24.5t22 -7.5q34 0 53.5 13t32 47t24.5 103l130 13
l10 -15q-5 -22 -22.5 -101t-33.5 -166l-17 -16q-25 1 -111 4t-175 3q-63 0 -127 -4zM436 398.5q-21 20.5 -21 59.5q0 54 31.5 86.5t83.5 32.5q39 0 60 -21.5t21 -59.5q0 -53 -31.5 -85.5t-82.5 -32.5q-40 0 -61 20.5z" />
    <glyph glyph-name="ldot" unicode="&#x140;" horiz-adv-x="444" 
d="M218.5 163q11.5 9 36.5 32l23 -4l20 -48q-78 -90 -123 -122.5t-87 -32.5q-66 0 -66 67q0 17 48 309q40 234 40 251t-8 25t-25 8h-28l12 82q57 0 130.5 5t96.5 7l16 -20q-14 -67 -53 -269t-52 -296l4 -3q4 0 15.5 9zM289 225.5q-21 20.5 -21 59.5q0 54 31.5 86.5
t83.5 32.5q39 0 60 -21.5t21 -59.5q0 -53 -31.5 -85.5t-82.5 -32.5q-40 0 -61 20.5z" />
    <glyph glyph-name="Lslash" unicode="&#x141;" horiz-adv-x="553" 
d="M558 276q-5 -22 -22.5 -101t-33.5 -166l-17 -16q-25 1 -111 4t-175 3q-63 0 -127 -4t-82 -6l20 92q37 6 52.5 24.5t20.5 63.5l7 58l-36 -18l-10 2l-31 94l93 46l19 156q2 18 2 22q0 17 -7 23t-23 6l-25 -1l-7 14l17 75h159q52 0 116 2t90 3l-23 -98q-51 -5 -70 -15.5
t-23 -36.5l-11 -65l75 38l9 -4l31 -93l-135 -68q-21 -129 -21 -163q0 -17 7 -24.5t22 -7.5q34 0 53.5 13t32 47t24.5 103l130 13z" />
    <glyph glyph-name="lslash" unicode="&#x142;" horiz-adv-x="323" 
d="M294 191l20 -48q-78 -90 -123 -122.5t-87 -32.5q-66 0 -66 67q0 19 31 207l-40 -20l-10 2l-31 94l103 51q3 16 6 37.5t8 47.5q21 131 21 141q0 17 -8 25t-25 8h-28l12 82q57 0 130.5 5t96.5 7l16 -20q-5 -22 -19 -94t-33 -172l39 20l9 -4l31 -93l-103 -52
q-17 -86 -29 -170l4 -3q4 0 15.5 9t36.5 32z" />
    <glyph glyph-name="Nacute" unicode="&#x143;" horiz-adv-x="718" 
d="M514 516l1 14q0 17 -6 23t-21 6h-30l-4 11l15 81q18 -1 66.5 -2.5t97.5 -1.5q45 0 84 1t53 2l-16 -90q-31 -4 -44.5 -18t-18.5 -45l-74 -497l-192 -12q-51 116 -94.5 209t-55.5 118h-15l-18 -178q-1 -6 -1 -17q0 -19 7.5 -26.5t25.5 -7.5q10 0 19.5 1.5t12.5 2.5l8 -9
l-21 -85q-18 1 -64 2.5t-87 1.5q-43 0 -91.5 -3.5t-62.5 -4.5l21 90q29 4 44 18.5t19 44.5l54 349q2 14 2 19q0 22 -13.5 30.5t-52.5 13.5l-10 14l15 81q13 -1 56.5 -3t89.5 -2q34 0 75 1.5t53 2.5q28 -72 61 -146t53 -117t26 -55h15zM469.5 723q-77.5 -16 -154.5 -35
l-19 13l-21 71q77 29 152 60t97 40l16 -5l36 -108l-7 -16q-22 -4 -99.5 -20z" />
    <glyph glyph-name="nacute" unicode="&#x144;" horiz-adv-x="545" 
d="M550 146q-79 -90 -123 -122.5t-85 -32.5q-34 0 -49.5 14t-15.5 45q0 25 31 126q10 36 19 69.5t9 45.5q0 28 -16 28t-46 -60.5t-62 -154.5l-7 -59q-3 -21 -46.5 -36.5t-100.5 -15.5l-20 23l51 320q1 6 1 15q0 15 -7 21.5t-24 6.5h-27l12 82q81 0 220 12l13 -21
q-18 -63 -31 -150l7 1q61 146 112 182q69 0 108 -28.5t39 -78.5q0 -16 -11.5 -57.5t-23.5 -81.5q-19 -62 -22 -79l3 -3q5 0 15 8.5t35 32.5l24 -4zM369 597.5q-64 -34.5 -128 -72.5l-22 7l-41 61q59 51 115 101.5t72 65.5h17l72 -101l-2 -17q-19 -10 -83 -44.5z" />
    <glyph glyph-name="Ncommaaccent" unicode="&#x145;" horiz-adv-x="718" 
d="M514 516l1 14q0 17 -6 23t-21 6h-30l-4 11l15 81q18 -1 66.5 -2.5t97.5 -1.5q45 0 84 1t53 2l-16 -90q-31 -4 -44.5 -18t-18.5 -45l-74 -497l-192 -12q-51 116 -94.5 209t-55.5 118h-15l-18 -178q-1 -6 -1 -17q0 -19 7.5 -26.5t25.5 -7.5q10 0 19.5 1.5t12.5 2.5l8 -9
l-21 -85q-18 1 -64 2.5t-87 1.5q-43 0 -91.5 -3.5t-62.5 -4.5l21 90q29 4 44 18.5t19 44.5l54 349q2 14 2 19q0 22 -13.5 30.5t-52.5 13.5l-10 14l15 81q13 -1 56.5 -3t89.5 -2q34 0 75 1.5t53 2.5q28 -72 61 -146t53 -117t26 -55h15zM286 -45.5q27 11.5 48 11.5
q38 0 61.5 -27.5t23.5 -73.5q0 -53 -45 -109.5t-122 -100.5l-58 46v25q29 21 46.5 50t17.5 56q0 20 -8 41t-21 35l3 14q27 21 54 32.5z" />
    <glyph glyph-name="ncommaaccent" unicode="&#x146;" horiz-adv-x="545" 
d="M550 146q-79 -90 -123 -122.5t-85 -32.5q-34 0 -49.5 14t-15.5 45q0 25 31 126q10 36 19 69.5t9 45.5q0 28 -16 28t-46 -60.5t-62 -154.5l-7 -59q-3 -21 -46.5 -36.5t-100.5 -15.5l-20 23l51 320q1 6 1 15q0 15 -7 21.5t-24 6.5h-27l12 82q81 0 220 12l13 -21
q-18 -63 -31 -150l7 1q61 146 112 182q69 0 108 -28.5t39 -78.5q0 -16 -11.5 -57.5t-23.5 -81.5q-19 -62 -22 -79l3 -3q5 0 15 8.5t35 32.5l24 -4zM202 -45.5q27 11.5 48 11.5q38 0 61.5 -27.5t23.5 -73.5q0 -53 -45 -109.5t-122 -100.5l-58 46v25q29 21 46.5 50t17.5 56
q0 20 -8 41t-21 35l3 14q27 21 54 32.5z" />
    <glyph glyph-name="Ncaron" unicode="&#x147;" horiz-adv-x="718" 
d="M514 516l1 14q0 17 -6 23t-21 6h-30l-4 11l15 81q18 -1 66.5 -2.5t97.5 -1.5q45 0 84 1t53 2l-16 -90q-31 -4 -44.5 -18t-18.5 -45l-74 -497l-192 -12q-51 116 -94.5 209t-55.5 118h-15l-18 -178q-1 -6 -1 -17q0 -19 7.5 -26.5t25.5 -7.5q10 0 19.5 1.5t12.5 2.5l8 -9
l-21 -85q-18 1 -64 2.5t-87 1.5q-43 0 -91.5 -3.5t-62.5 -4.5l21 90q29 4 44 18.5t19 44.5l54 349q2 14 2 19q0 22 -13.5 30.5t-52.5 13.5l-10 14l15 81q13 -1 56.5 -3t89.5 -2q34 0 75 1.5t53 2.5q28 -72 61 -146t53 -117t26 -55h15zM498 744.5q-59 -43.5 -76 -56.5h-27
q-14 13 -61.5 56.5t-93.5 81.5l42 62l24 7q19 -9 102 -43l20 -8q50 18 134 51l22 -7l29 -62q-56 -38 -115 -81.5z" />
    <glyph glyph-name="ncaron" unicode="&#x148;" horiz-adv-x="545" 
d="M550 146q-79 -90 -123 -122.5t-85 -32.5q-34 0 -49.5 14t-15.5 45q0 25 31 126q10 36 19 69.5t9 45.5q0 28 -16 28t-46 -60.5t-62 -154.5l-7 -59q-3 -21 -46.5 -36.5t-100.5 -15.5l-20 23l51 320q1 6 1 15q0 15 -7 21.5t-24 6.5h-27l12 82q81 0 220 12l13 -21
q-18 -63 -31 -150l7 1q61 146 112 182q69 0 108 -28.5t39 -78.5q0 -16 -11.5 -57.5t-23.5 -81.5q-19 -62 -22 -79l3 -3q5 0 15 8.5t35 32.5l24 -4zM224 740q31 -25 99 -69q72 40 116 69l22 -7l38 -62q-53 -43 -109.5 -92t-72.5 -64h-27q-13 15 -57 64t-86 92l53 62z" />
    <glyph glyph-name="Eng" unicode="&#x14a;" horiz-adv-x="715" 
d="M285 648.5q38 1.5 50 2.5q42 -104 96 -220t54 -113h14l21 202q1 6 1 15q0 16 -6.5 22t-21.5 6l-30 -1l-3 10l14 79q21 -1 72.5 -2.5t89.5 -1.5l131 4l-15 -87q-32 -4 -46 -18t-19 -45l-61 -416q-16 -102 -81 -163t-192 -94l-36 49l4 15q76 39 106 108q-53 118 -97.5 212
t-57.5 119h-14l-22 -198q-1 -6 -1 -16q0 -19 7.5 -26.5t25.5 -7.5q10 0 20 1.5t14 1.5l7 -8l-20 -82q-17 1 -73 2.5t-105 1.5q-24 0 -65 -3.5t-54 -4.5l21 86q29 4 43.5 19t19.5 46l55 356q1 6 1 16q0 23 -13.5 32t-52.5 14l-10 14l15 77q15 -1 62.5 -3t81.5 -2q32 0 70 1.5
z" />
    <glyph glyph-name="eng" unicode="&#x14b;" horiz-adv-x="539" 
d="M314 177.5q21 88.5 21 113.5q0 28 -18 28q-16 0 -48 -60.5t-65 -154.5l-7 -59q-3 -21 -47 -36.5t-101 -15.5l-20 23l52 320q1 5 1 13q0 16 -8 23t-25 7h-28l12 82q56 0 128.5 5t94.5 7l14 -21q-4 -13 -15 -58.5t-18 -91.5l7 1q63 145 118 182q70 0 109.5 -28.5
t39.5 -78.5q0 -26 -28 -155.5t-47 -208.5q-20 -82 -82 -150.5t-158 -111.5l-42 43l4 15q34 26 55.5 59t34 68.5t29.5 94.5q16 57 37 145.5z" />
    <glyph glyph-name="Omacron" unicode="&#x14c;" horiz-adv-x="633" 
d="M88 57.5q-70 69.5 -70 198.5q0 194 90.5 298.5t263.5 104.5q128 0 197 -66.5t69 -194.5q0 -194 -92 -302t-263 -108q-125 0 -195 69.5zM384.5 181q22.5 67 22.5 221q0 61 -16 90.5t-49 29.5q-50 0 -72.5 -67.5t-22.5 -220.5q0 -61 15.5 -90.5t47.5 -29.5q52 0 74.5 67z
M504 696l-136 -1l-129 -1l-14 15l32 109l149 -1q31 0 70 2.5t51 3.5l9 -18z" />
    <glyph glyph-name="omacron" unicode="&#x14d;" horiz-adv-x="486" 
d="M65.5 39q-46.5 51 -46.5 145q0 90 33.5 158t94.5 105t142 37q87 0 133 -48.5t46 -140.5t-33.5 -161.5t-94.5 -107.5t-142 -38q-86 0 -132.5 51zM267.5 109.5q10.5 14.5 15.5 49.5t5 100q0 57 -8.5 81t-29.5 24q-29 0 -40.5 -32.5t-11.5 -116.5q0 -67 8.5 -93.5
t30.5 -26.5q20 0 30.5 14.5zM415 566l-136 -1l-129 -1l-14 15l32 109l149 -1q31 0 70 2.5t51 3.5l9 -18z" />
    <glyph glyph-name="Obreve" unicode="&#x14e;" horiz-adv-x="633" 
d="M88 57.5q-70 69.5 -70 198.5q0 194 90.5 298.5t263.5 104.5q128 0 197 -66.5t69 -194.5q0 -194 -92 -302t-263 -108q-125 0 -195 69.5zM384.5 181q22.5 67 22.5 221q0 61 -16 90.5t-49 29.5q-50 0 -72.5 -67.5t-22.5 -220.5q0 -61 15.5 -90.5t47.5 -29.5q52 0 74.5 67z
M452 843q31 18 49 52l27 -7l32 -62q-25 -58 -74 -97t-118 -39q-70 0 -109.5 39t-49.5 97l47 62l28 7q10 -34 36.5 -52t63.5 -18t68 18z" />
    <glyph glyph-name="obreve" unicode="&#x14f;" horiz-adv-x="486" 
d="M65.5 39q-46.5 51 -46.5 145q0 90 33.5 158t94.5 105t142 37q87 0 133 -48.5t46 -140.5t-33.5 -161.5t-94.5 -107.5t-142 -38q-86 0 -132.5 51zM267.5 109.5q10.5 14.5 15.5 49.5t5 100q0 57 -8.5 81t-29.5 24q-29 0 -40.5 -32.5t-11.5 -116.5q0 -67 8.5 -93.5
t30.5 -26.5q20 0 30.5 14.5zM357 668q31 18 49 52l27 -7l32 -62q-25 -58 -74 -97t-118 -39q-70 0 -109.5 39t-49.5 97l47 62l28 7q10 -34 36.5 -52t63.5 -18t68 18z" />
    <glyph glyph-name="Ohungarumlaut" unicode="&#x150;" horiz-adv-x="633" 
d="M88 57.5q-70 69.5 -70 198.5q0 194 90.5 298.5t263.5 104.5q128 0 197 -66.5t69 -194.5q0 -194 -92 -302t-263 -108q-125 0 -195 69.5zM384.5 181q22.5 67 22.5 221q0 61 -16 90.5t-49 29.5q-50 0 -72.5 -67.5t-22.5 -220.5q0 -61 15.5 -90.5t47.5 -29.5q52 0 74.5 67z
M371.5 742.5q-52.5 -32.5 -105.5 -68.5l-19 5l-38 48q48 47 92 93t57 59l15 1l66 -81v-15q-15 -9 -67.5 -41.5zM569 742.5q-53 -32.5 -105 -68.5l-19 5l-38 48q47 47 91.5 93t57.5 59l15 1l66 -81v-15q-15 -9 -68 -41.5z" />
    <glyph glyph-name="ohungarumlaut" unicode="&#x151;" horiz-adv-x="486" 
d="M65.5 39q-46.5 51 -46.5 145q0 90 33.5 158t94.5 105t142 37q87 0 133 -48.5t46 -140.5t-33.5 -161.5t-94.5 -107.5t-142 -38q-86 0 -132.5 51zM267.5 109.5q10.5 14.5 15.5 49.5t5 100q0 57 -8.5 81t-29.5 24q-29 0 -40.5 -32.5t-11.5 -116.5q0 -67 8.5 -93.5
t30.5 -26.5q20 0 30.5 14.5zM290 619.5q-43 -44.5 -85 -91.5h-19l-49 38q40 66 69.5 116.5t38.5 66.5l14 5l84 -63l3 -14q-13 -13 -56 -57.5zM453.5 619.5q-42.5 -44.5 -85.5 -91.5h-19l-49 38q40 66 69.5 116.5t38.5 66.5l14 5l84 -63l3 -14q-13 -13 -55.5 -57.5z" />
    <glyph glyph-name="OE" unicode="&#x152;" horiz-adv-x="885" 
d="M569 147q0 -20 8.5 -26t31.5 -6q42 0 63.5 8t34 29.5t23.5 68.5l130 9l10 -15q-5 -17 -21.5 -77.5t-30.5 -128.5l-17 -16q-28 2 -123 6t-191 4q-32 0 -68.5 -3t-46.5 -4q-62 -6 -83 -6q-128 0 -199.5 70t-71.5 199q0 192 87.5 291.5t260.5 99.5q20 0 50 -2t46 -3
q98 -7 136 -7q65 0 154.5 6t158.5 15l11 -16q-5 -18 -20.5 -79t-25.5 -120l-140 -9q1 5 4.5 21.5t3.5 27.5q0 26 -17.5 34.5t-69.5 8.5q-19 0 -25.5 -5t-8.5 -22l-20 -113l78 -1q18 0 56 2.5t51 3.5l11 -14l-28 -115q-12 1 -45 2t-70 1l-73 -6l-12 -85zM381 196l31 243
q1 7 1 19q0 34 -17.5 52t-51.5 18q-49 0 -74 -74t-25 -219q0 -68 15 -97.5t49 -29.5q62 0 72 88z" />
    <glyph glyph-name="oe" unicode="&#x153;" horiz-adv-x="749" 
d="M673 194l52 -58q-17 -41 -53 -75t-82 -53.5t-92 -19.5q-41 0 -72 19.5t-49 56.5q-32 -37 -77.5 -56.5t-101.5 -19.5q-86 0 -132.5 51t-46.5 145q0 90 33.5 158t94.5 105t142 37q105 0 141 -88q36 41 84 64t102 23q64 0 101 -30t37 -82q0 -47 -25 -80.5t-78.5 -60.5
t-145.5 -55q8 -49 55 -49q50 0 91 71zM275 135.5q12 40.5 12 131.5q0 54 -8.5 75.5t-29.5 21.5q-24 0 -38 -45.5t-14 -123.5q0 -52 9.5 -76t29.5 -24q27 0 39 40.5zM534.5 336q-18.5 -27 -25.5 -79q47 18 71.5 39t24.5 44q0 10 -7 16.5t-18 6.5q-27 0 -45.5 -27z" />
    <glyph glyph-name="Racute" unicode="&#x154;" horiz-adv-x="661" 
d="M271 160l-2 -32q0 -24 12 -31t50 -9l4 -8l-20 -84q-20 1 -69.5 2.5t-92.5 1.5q-46 0 -100.5 -3.5t-71.5 -5.5l20 92q36 6 52 24t21 61l43 347q1 7 1 18q0 14 -4.5 20t-15.5 6q-12 0 -22 -1t-13 -1l-8 12l20 79l139 -1q30 0 92 2.5t82 3.5q126 0 193 -41.5t67 -122.5
q0 -133 -140 -213l45 -104q19 -42 40.5 -65t41.5 -23l9 -16l-18 -73l-155 -11q-42 0 -64.5 20.5t-35.5 70.5l-39 153h-53zM439 458q0 36 -23.5 53t-73.5 17q-10 0 -13.5 -4t-5.5 -18q-19 -102 -26 -152l72 -10q70 27 70 114zM441.5 723q-77.5 -16 -154.5 -35l-19 13l-21 71
q77 29 152 60t97 40l16 -5l36 -108l-7 -16q-22 -4 -99.5 -20z" />
    <glyph glyph-name="racute" unicode="&#x155;" horiz-adv-x="416" 
d="M59.5 193q22.5 131 22.5 156q0 30 -33 30h-28l12 82q56 0 128.5 5t94.5 7l14 -21q-3 -11 -12.5 -51t-15.5 -79l7 1q76 159 159 159q9 -5 17.5 -14t12.5 -18q-3 -33 -14.5 -85t-23 -94t-14.5 -54h-71q4 21 4 37q0 28 -15 28q-18 0 -44 -43t-54 -119l-9 -75
q-3 -21 -47 -36.5t-101 -15.5l-20 23q8 46 30.5 177zM312 597.5q-64 -34.5 -128 -72.5l-22 7l-41 61q59 51 115 101.5t72 65.5h17l72 -101l-2 -17q-19 -10 -83 -44.5z" />
    <glyph glyph-name="Rcommaaccent" unicode="&#x156;" horiz-adv-x="661" 
d="M271 160l-2 -32q0 -24 12 -31t50 -9l4 -8l-20 -84q-20 1 -69.5 2.5t-92.5 1.5q-46 0 -100.5 -3.5t-71.5 -5.5l20 92q36 6 52 24t21 61l43 347q1 7 1 18q0 14 -4.5 20t-15.5 6q-12 0 -22 -1t-13 -1l-8 12l20 79l139 -1q30 0 92 2.5t82 3.5q126 0 193 -41.5t67 -122.5
q0 -133 -140 -213l45 -104q19 -42 40.5 -65t41.5 -23l9 -16l-18 -73l-155 -11q-42 0 -64.5 20.5t-35.5 70.5l-39 153h-53zM439 458q0 36 -23.5 53t-73.5 17q-10 0 -13.5 -4t-5.5 -18q-19 -102 -26 -152l72 -10q70 27 70 114zM258 -45.5q27 11.5 48 11.5q38 0 61.5 -27.5
t23.5 -73.5q0 -53 -45 -109.5t-122 -100.5l-58 46v25q29 21 46.5 50t17.5 56q0 20 -8 41t-21 35l3 14q27 21 54 32.5z" />
    <glyph glyph-name="rcommaaccent" unicode="&#x157;" horiz-adv-x="416" 
d="M59.5 193q22.5 131 22.5 156q0 30 -33 30h-28l12 82q56 0 128.5 5t94.5 7l14 -21q-3 -11 -12.5 -51t-15.5 -79l7 1q76 159 159 159q9 -5 17.5 -14t12.5 -18q-3 -33 -14.5 -85t-23 -94t-14.5 -54h-71q4 21 4 37q0 28 -15 28q-18 0 -44 -43t-54 -119l-9 -75
q-3 -21 -47 -36.5t-101 -15.5l-20 23q8 46 30.5 177zM65 -45.5q27 11.5 48 11.5q38 0 61.5 -27.5t23.5 -73.5q0 -53 -45 -109.5t-122 -100.5l-58 46v25q29 21 46.5 50t17.5 56q0 20 -8 41t-21 35l3 14q27 21 54 32.5z" />
    <glyph glyph-name="Rcaron" unicode="&#x158;" horiz-adv-x="661" 
d="M271 160l-2 -32q0 -24 12 -31t50 -9l4 -8l-20 -84q-20 1 -69.5 2.5t-92.5 1.5q-46 0 -100.5 -3.5t-71.5 -5.5l20 92q36 6 52 24t21 61l43 347q1 7 1 18q0 14 -4.5 20t-15.5 6q-12 0 -22 -1t-13 -1l-8 12l20 79l139 -1q30 0 92 2.5t82 3.5q126 0 193 -41.5t67 -122.5
q0 -133 -140 -213l45 -104q19 -42 40.5 -65t41.5 -23l9 -16l-18 -73l-155 -11q-42 0 -64.5 20.5t-35.5 70.5l-39 153h-53zM439 458q0 36 -23.5 53t-73.5 17q-10 0 -13.5 -4t-5.5 -18q-19 -102 -26 -152l72 -10q70 27 70 114zM470 744.5q-59 -43.5 -76 -56.5h-27
q-14 13 -61.5 56.5t-93.5 81.5l42 62l24 7q19 -9 102 -43l20 -8q50 18 134 51l22 -7l29 -62q-56 -38 -115 -81.5z" />
    <glyph glyph-name="rcaron" unicode="&#x159;" horiz-adv-x="416" 
d="M59.5 193q22.5 131 22.5 156q0 30 -33 30h-28l12 82q56 0 128.5 5t94.5 7l14 -21q-3 -11 -12.5 -51t-15.5 -79l7 1q76 159 159 159q9 -5 17.5 -14t12.5 -18q-3 -33 -14.5 -85t-23 -94t-14.5 -54h-71q4 21 4 37q0 28 -15 28q-18 0 -44 -43t-54 -119l-9 -75
q-3 -21 -47 -36.5t-101 -15.5l-20 23q8 46 30.5 177zM167 740q31 -25 99 -69q72 40 116 69l22 -7l38 -62q-53 -43 -109.5 -92t-72.5 -64h-27q-13 15 -57 64t-86 92l53 62z" />
    <glyph glyph-name="Sacute" unicode="&#x15a;" horiz-adv-x="536" 
d="M100 -2.5q-44 9.5 -73.5 21t-29.5 12.5l-10 18q5 16 20 70t22 95l127 9q-1 -6 -1 -19q0 -40 18.5 -61.5t53.5 -21.5q29 0 47 12.5t18 32.5q0 23 -23.5 39t-77.5 41q-46 22 -77.5 43t-53 55t-21.5 81q0 70 40 123t112.5 82t168.5 29q48 0 90.5 -6t69 -13t33.5 -9l10 -22
q-2 -7 -9.5 -30t-18.5 -63.5t-19 -80.5l-118 -8l-11 8q0 4 1.5 13t1.5 15q0 29 -16 43.5t-46 14.5q-28 0 -45.5 -14t-17.5 -35q0 -19 17 -33.5t51 -31.5l24 -11q50 -23 82.5 -43t56 -54t23.5 -83q0 -70 -39 -121.5t-112 -79t-173 -27.5q-51 0 -95 9.5zM398.5 723
q-77.5 -16 -154.5 -35l-19 13l-21 71q77 29 152 60t97 40l16 -5l36 -108l-7 -16q-22 -4 -99.5 -20z" />
    <glyph glyph-name="sacute" unicode="&#x15b;" horiz-adv-x="402" 
d="M107 127q24 -21 55 -21q40 0 40 25q0 14 -14 23.5t-51 26.5q-44 21 -69.5 47t-25.5 73q0 52 29 94t80 65.5t115 23.5q44 0 84.5 -11.5t65.5 -30.5q-32 -78 -63 -128h-25q-10 22 -26.5 34.5t-33.5 12.5q-14 0 -24 -8t-10 -20q0 -10 7.5 -17.5t22.5 -14.5l22 -11
q49 -22 77 -48t28 -74q0 -51 -31 -92t-85 -64.5t-122 -23.5q-60 0 -105 18.5t-55 46.5q5 28 23 66.5t37 60.5l27 -2q3 -30 27 -51zM295 597.5q-64 -34.5 -128 -72.5l-22 7l-41 61q59 51 115 101.5t72 65.5h17l72 -101l-2 -17q-19 -10 -83 -44.5z" />
    <glyph glyph-name="Scircumflex" unicode="&#x15c;" horiz-adv-x="536" 
d="M100 -2.5q-44 9.5 -73.5 21t-29.5 12.5l-10 18q5 16 20 70t22 95l127 9q-1 -6 -1 -19q0 -40 18.5 -61.5t53.5 -21.5q29 0 47 12.5t18 32.5q0 23 -23.5 39t-77.5 41q-46 22 -77.5 43t-53 55t-21.5 81q0 70 40 123t112.5 82t168.5 29q48 0 90.5 -6t69 -13t33.5 -9l10 -22
q-2 -7 -9.5 -30t-18.5 -63.5t-19 -80.5l-118 -8l-11 8q0 4 1.5 13t1.5 15q0 29 -16 43.5t-46 14.5q-28 0 -45.5 -14t-17.5 -35q0 -19 17 -33.5t51 -31.5l24 -11q50 -23 82.5 -43t56 -54t23.5 -83q0 -70 -39 -121.5t-112 -79t-173 -27.5q-51 0 -95 9.5zM285.5 851.5
q58.5 43.5 75.5 56.5h27q1 3 56 -48q58 -54 100 -90l-43 -62l-24 -7q-44 20 -122 51q-50 -18 -134 -51l-22 7l-28 62q56 38 114.5 81.5z" />
    <glyph glyph-name="scircumflex" unicode="&#x15d;" horiz-adv-x="402" 
d="M107 127q24 -21 55 -21q40 0 40 25q0 14 -14 23.5t-51 26.5q-44 21 -69.5 47t-25.5 73q0 52 29 94t80 65.5t115 23.5q44 0 84.5 -11.5t65.5 -30.5q-32 -78 -63 -128h-25q-10 22 -26.5 34.5t-33.5 12.5q-14 0 -24 -8t-10 -20q0 -10 7.5 -17.5t22.5 -14.5l22 -11
q49 -22 77 -48t28 -74q0 -51 -31 -92t-85 -64.5t-122 -23.5q-60 0 -105 18.5t-55 46.5q5 28 23 66.5t37 60.5l27 -2q3 -30 27 -51zM185 696q56 49 72 64h27q13 -15 57.5 -64t86.5 -92l-53 -62l-24 -7q-27 21 -100 69q-72 -40 -115 -69l-23 7l-38 62q54 43 110 92z" />
    <glyph glyph-name="Scedilla" unicode="&#x15e;" horiz-adv-x="536" 
d="M100 -2.5q-44 9.5 -73.5 21t-29.5 12.5l-10 18q5 16 20 70t22 95l127 9q-1 -6 -1 -19q0 -40 18.5 -61.5t53.5 -21.5q29 0 47 12.5t18 32.5q0 23 -23.5 39t-77.5 41q-46 22 -77.5 43t-53 55t-21.5 81q0 70 40 123t112.5 82t168.5 29q48 0 90.5 -6t69 -13t33.5 -9l10 -22
q-2 -7 -9.5 -30t-18.5 -63.5t-19 -80.5l-118 -8l-11 8q0 4 1.5 13t1.5 15q0 29 -16 43.5t-46 14.5q-28 0 -45.5 -14t-17.5 -35q0 -19 17 -33.5t51 -31.5l24 -11q50 -23 82.5 -43t56 -54t23.5 -83q0 -70 -39 -121.5t-112 -79t-173 -27.5q-51 0 -95 9.5zM281 36l-23 -73
q37 -19 66.5 -45.5t29.5 -55.5q0 -28 -22 -52t-59 -38.5t-80 -14.5q-30 0 -56 14t-26 37q0 11 18.5 32t42.5 42h8q-2 -27 8.5 -41.5t31.5 -14.5q14 0 22.5 6.5t8.5 17.5q0 23 -77 63l45 123h62z" />
    <glyph glyph-name="scedilla" unicode="&#x15f;" horiz-adv-x="402" 
d="M107 127q24 -21 55 -21q40 0 40 25q0 14 -14 23.5t-51 26.5q-44 21 -69.5 47t-25.5 73q0 52 29 94t80 65.5t115 23.5q44 0 84.5 -11.5t65.5 -30.5q-32 -78 -63 -128h-25q-10 22 -26.5 34.5t-33.5 12.5q-14 0 -24 -8t-10 -20q0 -10 7.5 -17.5t22.5 -14.5l22 -11
q49 -22 77 -48t28 -74q0 -51 -31 -92t-85 -64.5t-122 -23.5q-60 0 -105 18.5t-55 46.5q5 28 23 66.5t37 60.5l27 -2q3 -30 27 -51zM214 36l-23 -73q37 -19 66.5 -45.5t29.5 -55.5q0 -28 -22 -52t-59 -38.5t-80 -14.5q-30 0 -56 14t-26 37q0 11 18.5 32t42.5 42h8
q-2 -27 8.5 -41.5t31.5 -14.5q14 0 22.5 6.5t8.5 17.5q0 23 -77 63l45 123h62z" />
    <glyph glyph-name="Scaron" unicode="&#x160;" horiz-adv-x="536" 
d="M100 -2.5q-44 9.5 -73.5 21t-29.5 12.5l-10 18q5 16 20 70t22 95l127 9q-1 -6 -1 -19q0 -40 18.5 -61.5t53.5 -21.5q29 0 47 12.5t18 32.5q0 23 -23.5 39t-77.5 41q-46 22 -77.5 43t-53 55t-21.5 81q0 70 40 123t112.5 82t168.5 29q48 0 90.5 -6t69 -13t33.5 -9l10 -22
q-2 -7 -9.5 -30t-18.5 -63.5t-19 -80.5l-118 -8l-11 8q0 4 1.5 13t1.5 15q0 29 -16 43.5t-46 14.5q-28 0 -45.5 -14t-17.5 -35q0 -19 17 -33.5t51 -31.5l24 -11q50 -23 82.5 -43t56 -54t23.5 -83q0 -70 -39 -121.5t-112 -79t-173 -27.5q-51 0 -95 9.5zM427 744.5
q-59 -43.5 -76 -56.5h-27q-14 13 -61.5 56.5t-93.5 81.5l42 62l24 7q19 -9 102 -43l20 -8q50 18 134 51l22 -7l29 -62q-56 -38 -115 -81.5z" />
    <glyph glyph-name="scaron" unicode="&#x161;" horiz-adv-x="402" 
d="M107 127q24 -21 55 -21q40 0 40 25q0 14 -14 23.5t-51 26.5q-44 21 -69.5 47t-25.5 73q0 52 29 94t80 65.5t115 23.5q44 0 84.5 -11.5t65.5 -30.5q-32 -78 -63 -128h-25q-10 22 -26.5 34.5t-33.5 12.5q-14 0 -24 -8t-10 -20q0 -10 7.5 -17.5t22.5 -14.5l22 -11
q49 -22 77 -48t28 -74q0 -51 -31 -92t-85 -64.5t-122 -23.5q-60 0 -105 18.5t-55 46.5q5 28 23 66.5t37 60.5l27 -2q3 -30 27 -51zM150 740q31 -25 99 -69q72 40 116 69l22 -7l38 -62q-53 -43 -109.5 -92t-72.5 -64h-27q-13 15 -57 64t-86 92l53 62z" />
    <glyph glyph-name="uni0162" unicode="&#x162;" horiz-adv-x="578" 
d="M186.5 515q-13.5 -11 -22.5 -38.5t-21 -86.5l-126 -8q4 25 17.5 108t22.5 154l15 14l115 -11h305l121 11l11 -14q-10 -89 -17.5 -160t-9.5 -94l-125 -8q2 60 2 72q0 31 -4 46t-13.5 20.5t-28.5 5.5q-15 -97 -33 -229t-18 -156q0 -27 10 -38.5t33 -11.5q18 0 32 1t18 2
l4 -6l-20 -94q-23 1 -93.5 3.5t-105.5 2.5q-39 0 -108.5 -4t-91.5 -5l19 92q41 4 62 12t31 24.5t14 48.5l44 358q-25 0 -38.5 -11zM302 36l-23 -73q37 -19 66.5 -45.5t29.5 -55.5q0 -28 -22 -52t-59 -38.5t-80 -14.5q-30 0 -56 14t-26 37q0 11 18.5 32t42.5 42h8
q-2 -27 8.5 -41.5t31.5 -14.5q14 0 22.5 6.5t8.5 17.5q0 23 -77 63l45 123h62z" />
    <glyph glyph-name="uni0163" unicode="&#x163;" horiz-adv-x="331" 
d="M334 141q-49 -69 -92 -111t-66 -42q-64 0 -98.5 30t-34.5 84q0 14 1 21l44 248l-9 8h-54l-3 5l8 66l72 11q5 39 9 70t5 41l168 35l14 -12q-3 -11 -12.5 -51.5t-18.5 -82.5h95l7 -7l-12 -75l-94 1l-13 -8l-35 -192v-8q0 -22 18 -22q10 0 23 10t35 35l22 -4zM179 36
l-23 -73q37 -19 66.5 -45.5t29.5 -55.5q0 -28 -22 -52t-59 -38.5t-80 -14.5q-30 0 -56 14t-26 37q0 11 18.5 32t42.5 42h8q-2 -27 8.5 -41.5t31.5 -14.5q14 0 22.5 6.5t8.5 17.5q0 23 -77 63l45 123h62z" />
    <glyph glyph-name="Tcaron" unicode="&#x164;" horiz-adv-x="578" 
d="M186.5 515q-13.5 -11 -22.5 -38.5t-21 -86.5l-126 -8q4 25 17.5 108t22.5 154l15 14l115 -11h305l121 11l11 -14q-10 -89 -17.5 -160t-9.5 -94l-125 -8q2 60 2 72q0 31 -4 46t-13.5 20.5t-28.5 5.5q-15 -97 -33 -229t-18 -156q0 -27 10 -38.5t33 -11.5q18 0 32 1t18 2
l4 -6l-20 -94q-23 1 -93.5 3.5t-105.5 2.5q-39 0 -108.5 -4t-91.5 -5l19 92q41 4 62 12t31 24.5t14 48.5l44 358q-25 0 -38.5 -11zM428 744.5q-59 -43.5 -76 -56.5h-27q-14 13 -61.5 56.5t-93.5 81.5l42 62l24 7q19 -9 102 -43l20 -8q50 18 134 51l22 -7l29 -62
q-56 -38 -115 -81.5z" />
    <glyph glyph-name="tcaron" unicode="&#x165;" horiz-adv-x="401" 
d="M334 141q-49 -69 -92 -111t-66 -42q-64 0 -98.5 30t-34.5 84q0 14 1 21l44 248l-9 8h-54l-3 5l8 66l72 11q5 39 9 70t5 41l168 35l14 -12q-3 -11 -12.5 -51.5t-18.5 -82.5h95l7 -7l-12 -75l-94 1l-13 -8l-35 -192v-8q0 -22 18 -22q10 0 23 10t35 35l22 -4zM492.5 662
q-19.5 -66 -43.5 -136l-76 -25l-19 6q11 75 16 149t5 89l135 14l7 -12q-5 -19 -24.5 -85z" />
    <glyph glyph-name="Tbar" unicode="&#x166;" horiz-adv-x="578" 
d="M472 382q2 60 2 72q0 31 -4 46t-13.5 20.5t-28.5 5.5q-19 -123 -33 -228l93 2l15 -15l-5 -55h-112q-9 -79 -9 -89q0 -27 10 -38.5t33 -11.5q18 0 32 1t18 2l4 -6l-20 -94q-23 1 -93.5 3.5t-105.5 2.5q-39 0 -108.5 -4t-91.5 -5l19 92q41 4 62 12t31 24.5t14 48.5l8 61
h-98l-11 10l8 58h109l28 229q-25 0 -38.5 -11t-22.5 -38.5t-21 -86.5l-126 -8q4 25 17.5 108t22.5 154l15 14l115 -11h305l121 11l11 -14q-10 -89 -17.5 -160t-9.5 -94z" />
    <glyph glyph-name="tbar" unicode="&#x167;" horiz-adv-x="331" 
d="M250 372l-14 -75l87 3l15 -15l-5 -55h-109l-9 -50v-8q0 -22 18 -22q10 0 23 10t35 35l22 -4l21 -50q-49 -69 -92 -111t-66 -42q-64 0 -98.5 30t-34.5 84q0 14 1 21l19 106h-67l-11 10l8 58h82l13 74l-9 8h-54l-3 5l8 66l72 11q5 39 9 70t5 41l168 35l14 -12
q-3 -11 -12.5 -51.5t-18.5 -82.5h95l7 -7l-12 -75l-94 1z" />
    <glyph glyph-name="Umacron" unicode="&#x16a;" horiz-adv-x="605" 
d="M249 192q-2 -77 59 -77q35 0 52 20t24 68q9 73 20.5 168.5t15.5 133.5q2 22 2 27q0 15 -4.5 21t-15.5 6q-7 0 -13 -1t-8 -1l-3 4l22 89q13 0 48 -1.5t68 -1.5q48 0 88.5 1t54.5 2l-19 -90q-31 -10 -40 -18t-11 -26l-35 -282q-17 -125 -85.5 -185.5t-194.5 -60.5
q-115 0 -171 42t-56 129q0 19 3 40l38 306q2 24 2 29q0 15 -5 20t-17 5q-9 0 -17 -1t-11 -1l-2 4l21 89q16 -1 65 -2t109 -1q37 0 77 1.5t55 2.5l-21 -93q-26 -3 -37.5 -14t-14.5 -35l-41 -289zM500 696l-136 -1l-129 -1l-14 15l32 109l149 -1q31 0 70 2.5t51 3.5l9 -18z
" />
    <glyph glyph-name="umacron" unicode="&#x16b;" horiz-adv-x="531" 
d="M535 143q-56 -63 -92 -95.5t-63.5 -46t-56.5 -13.5q-51 0 -51 48q0 10 6.5 41t22.5 96l-8 2q-62 -144 -119 -184q-66 0 -102.5 28.5t-36.5 78.5q0 17 9 53.5t20 73.5q11 36 19.5 70.5t8.5 50.5q0 17 -8 25t-25 8h-28l12 82q67 0 223 12l16 -20q-73 -247 -73 -274
q0 -12 2.5 -17t10.5 -5q31 0 110 205l13 100l20 12l147 -1l15 -20q-20 -63 -39.5 -139.5t-30.5 -135.5l4 -4q13 6 31 21l23 -4zM438 566l-136 -1l-129 -1l-14 15l32 109l149 -1q31 0 70 2.5t51 3.5l9 -18z" />
    <glyph glyph-name="Ubreve" unicode="&#x16c;" horiz-adv-x="605" 
d="M249 192q-2 -77 59 -77q35 0 52 20t24 68q9 73 20.5 168.5t15.5 133.5q2 22 2 27q0 15 -4.5 21t-15.5 6q-7 0 -13 -1t-8 -1l-3 4l22 89q13 0 48 -1.5t68 -1.5q48 0 88.5 1t54.5 2l-19 -90q-31 -10 -40 -18t-11 -26l-35 -282q-17 -125 -85.5 -185.5t-194.5 -60.5
q-115 0 -171 42t-56 129q0 19 3 40l38 306q2 24 2 29q0 15 -5 20t-17 5q-9 0 -17 -1t-11 -1l-2 4l21 89q16 -1 65 -2t109 -1q37 0 77 1.5t55 2.5l-21 -93q-26 -3 -37.5 -14t-14.5 -35l-41 -289zM448 843q31 18 49 52l27 -7l32 -62q-25 -58 -74 -97t-118 -39q-70 0 -109.5 39
t-49.5 97l47 62l28 7q10 -34 36.5 -52t63.5 -18t68 18z" />
    <glyph glyph-name="ubreve" unicode="&#x16d;" horiz-adv-x="531" 
d="M535 143q-56 -63 -92 -95.5t-63.5 -46t-56.5 -13.5q-51 0 -51 48q0 10 6.5 41t22.5 96l-8 2q-62 -144 -119 -184q-66 0 -102.5 28.5t-36.5 78.5q0 17 9 53.5t20 73.5q11 36 19.5 70.5t8.5 50.5q0 17 -8 25t-25 8h-28l12 82q67 0 223 12l16 -20q-73 -247 -73 -274
q0 -12 2.5 -17t10.5 -5q31 0 110 205l13 100l20 12l147 -1l15 -20q-20 -63 -39.5 -139.5t-30.5 -135.5l4 -4q13 6 31 21l23 -4zM380 668q31 18 49 52l27 -7l32 -62q-25 -58 -74 -97t-118 -39q-70 0 -109.5 39t-49.5 97l47 62l28 7q10 -34 36.5 -52t63.5 -18t68 18z" />
    <glyph glyph-name="Uring" unicode="&#x16e;" horiz-adv-x="605" 
d="M249 192q-2 -77 59 -77q35 0 52 20t24 68q9 73 20.5 168.5t15.5 133.5q2 22 2 27q0 15 -4.5 21t-15.5 6q-7 0 -13 -1t-8 -1l-3 4l22 89q13 0 48 -1.5t68 -1.5q48 0 88.5 1t54.5 2l-19 -90q-31 -10 -40 -18t-11 -26l-35 -282q-17 -125 -85.5 -185.5t-194.5 -60.5
q-115 0 -171 42t-56 129q0 19 3 40l38 306q2 24 2 29q0 15 -5 20t-17 5q-9 0 -17 -1t-11 -1l-2 4l21 89q16 -1 65 -2t109 -1q37 0 77 1.5t55 2.5l-21 -93q-26 -3 -37.5 -14t-14.5 -35l-41 -289zM297.5 706q-22.5 24 -22.5 65q0 52 34.5 86.5t87.5 34.5q46 0 67.5 -24
t21.5 -61q0 -32 -15 -61t-43.5 -46.5t-65.5 -17.5q-42 0 -64.5 24zM404 760.5q12 8.5 12 29.5q0 14 -9 22t-25 8q-18 0 -27.5 -10t-9.5 -27q0 -16 10 -23.5t23 -7.5q14 0 26 8.5z" />
    <glyph glyph-name="uring" unicode="&#x16f;" horiz-adv-x="531" 
d="M535 143q-56 -63 -92 -95.5t-63.5 -46t-56.5 -13.5q-51 0 -51 48q0 10 6.5 41t22.5 96l-8 2q-62 -144 -119 -184q-66 0 -102.5 28.5t-36.5 78.5q0 17 9 53.5t20 73.5q11 36 19.5 70.5t8.5 50.5q0 17 -8 25t-25 8h-28l12 82q67 0 223 12l16 -20q-73 -247 -73 -274
q0 -12 2.5 -17t10.5 -5q31 0 110 205l13 100l20 12l147 -1l15 -20q-20 -63 -39.5 -139.5t-30.5 -135.5l4 -4q13 6 31 21l23 -4zM262.5 566q-22.5 24 -22.5 65q0 51 34.5 86t87.5 35q46 0 67.5 -24t21.5 -61q0 -32 -15 -61t-43 -46.5t-65 -17.5q-43 0 -65.5 24zM369 620.5
q12 8.5 12 29.5q0 14 -8.5 22t-24.5 8q-19 0 -28.5 -10t-9.5 -27q0 -16 10 -23.5t23 -7.5q14 0 26 8.5z" />
    <glyph glyph-name="Uhungarumlaut" unicode="&#x170;" horiz-adv-x="605" 
d="M249 192q-2 -77 59 -77q35 0 52 20t24 68q9 73 20.5 168.5t15.5 133.5q2 22 2 27q0 15 -4.5 21t-15.5 6q-7 0 -13 -1t-8 -1l-3 4l22 89q13 0 48 -1.5t68 -1.5q48 0 88.5 1t54.5 2l-19 -90q-31 -10 -40 -18t-11 -26l-35 -282q-17 -125 -85.5 -185.5t-194.5 -60.5
q-115 0 -171 42t-56 129q0 19 3 40l38 306q2 24 2 29q0 15 -5 20t-17 5q-9 0 -17 -1t-11 -1l-2 4l21 89q16 -1 65 -2t109 -1q37 0 77 1.5t55 2.5l-21 -93q-26 -3 -37.5 -14t-14.5 -35l-41 -289zM367.5 742.5q-52.5 -32.5 -105.5 -68.5l-19 5l-38 48q48 47 92 93t57 59l15 1
l66 -81v-15q-15 -9 -67.5 -41.5zM565 742.5q-53 -32.5 -105 -68.5l-19 5l-38 48q47 47 91.5 93t57.5 59l15 1l66 -81v-15q-15 -9 -68 -41.5z" />
    <glyph glyph-name="uhungarumlaut" unicode="&#x171;" horiz-adv-x="531" 
d="M535 143q-56 -63 -92 -95.5t-63.5 -46t-56.5 -13.5q-51 0 -51 48q0 10 6.5 41t22.5 96l-8 2q-62 -144 -119 -184q-66 0 -102.5 28.5t-36.5 78.5q0 17 9 53.5t20 73.5q11 36 19.5 70.5t8.5 50.5q0 17 -8 25t-25 8h-28l12 82q67 0 223 12l16 -20q-73 -247 -73 -274
q0 -12 2.5 -17t10.5 -5q31 0 110 205l13 100l20 12l147 -1l15 -20q-20 -63 -39.5 -139.5t-30.5 -135.5l4 -4q13 6 31 21l23 -4zM313 619.5q-43 -44.5 -85 -91.5h-19l-49 38q40 66 69.5 116.5t38.5 66.5l14 5l84 -63l3 -14q-13 -13 -56 -57.5zM476.5 619.5
q-42.5 -44.5 -85.5 -91.5h-19l-49 38q40 66 69.5 116.5t38.5 66.5l14 5l84 -63l3 -14q-13 -13 -55.5 -57.5z" />
    <glyph glyph-name="Uogonek" unicode="&#x172;" horiz-adv-x="605" 
d="M604.5 648q40.5 1 54.5 2l-19 -90q-31 -10 -40 -18t-11 -26l-35 -282q-9 -71 -39 -124t-80 -114q-32 -39 -47.5 -64t-15.5 -49q0 -13 7 -19.5t18 -6.5q24 0 59 23l28 -47q-75 -60 -114 -74q-60 0 -93.5 23.5t-33.5 66.5q0 28 18.5 59.5t67.5 83.5q-23 -4 -55 -4
q-115 0 -171 42t-56 129q0 19 3 40l38 306q2 24 2 29q0 15 -5 20t-17 5q-9 0 -17 -1t-11 -1l-2 4l21 89q16 -1 65 -2t109 -1q37 0 77 1.5t55 2.5l-21 -93q-26 -3 -37.5 -14t-14.5 -35l-41 -289l-2 -28q-2 -77 59 -77q35 0 52 20t24 68q9 73 20.5 168.5t15.5 133.5q2 22 2 27
q0 15 -4.5 21t-15.5 6q-7 0 -13 -1t-8 -1l-3 4l22 89q13 0 48 -1.5t68 -1.5q48 0 88.5 1z" />
    <glyph glyph-name="uogonek" unicode="&#x173;" horiz-adv-x="531" 
d="M468 -120l28 -47q-75 -60 -114 -74q-60 0 -93.5 23.5t-33.5 66.5q0 28 15.5 59t55.5 80q-28 2 -41 13.5t-13 34.5q0 10 6.5 41t22.5 96l-8 2q-62 -144 -119 -184q-66 0 -102.5 28.5t-36.5 78.5q0 17 9 53.5t20 73.5q11 36 19.5 70.5t8.5 50.5q0 17 -8 25t-25 8h-28l12 82
q67 0 223 12l16 -20q-73 -247 -73 -274q0 -12 2.5 -17t10.5 -5q31 0 110 205l13 100l20 12l147 -1l15 -20q-20 -63 -39.5 -139.5t-30.5 -135.5l4 -4q13 6 31 21l23 -4l20 -48q-76 -100 -113.5 -163.5t-37.5 -96.5q0 -13 7 -19.5t18 -6.5q24 0 59 23z" />
    <glyph glyph-name="Wcircumflex" unicode="&#x174;" horiz-adv-x="971" 
d="M1028 648l-17 -87q-17 -6 -25.5 -16.5t-19.5 -38.5l-188 -502l-270 -17l-6 285h-14l-87 -268l-270 -17l-48 506q-7 35 -15.5 49t-25.5 18l-6 10l19 79q13 0 49.5 -1t78.5 -1q56 0 110.5 2t70.5 3l6 -9l-17 -84q-37 -6 -51 -17t-14 -34q0 -89 2 -194t3 -146h21
q29 81 60 174.5t52 159.5q4 16 6.5 24t2.5 10l-2 -7q2 19 -7 25t-42 6l-6 10l19 79q17 0 63.5 -1t95.5 -1q56 0 110.5 2t69.5 3l7 -9l-17 -84q-39 -4 -52.5 -14.5t-13.5 -36.5q0 -54 2.5 -176.5t3.5 -163.5h21q32 86 75 221t43 151q0 11 -4.5 14t-20.5 3h-23l-6 10l18 83
q15 -1 56.5 -2t87.5 -1zM483.5 851.5q58.5 43.5 75.5 56.5h27q1 3 56 -48q58 -54 100 -90l-43 -62l-24 -7q-44 20 -122 51q-50 -18 -134 -51l-22 7l-28 62q56 38 114.5 81.5z" />
    <glyph glyph-name="wcircumflex" unicode="&#x175;" horiz-adv-x="725" 
d="M313 312l-23 121l10 19l152 32q13 -15 20.5 -40t7.5 -53q0 -15 -2.5 -27.5t-9.5 -37.5l12 -181h17q32 82 45.5 126.5t13.5 68.5q0 23 -13.5 41.5t-38.5 27.5l11 48l188 27q12 -15 19.5 -43t7.5 -59q0 -56 -47.5 -148t-150.5 -234l-143 -12l-18 20l-12 135h-11
q-33 -77 -69 -143l-163 -12l-18 20q-6 82 -18 181t-23 163q-3 16 -9 23t-17 7l-32 -1l6 79q68 8 208 16l11 -9q13 -136 13 -322h17q39 103 59 167zM342 695q56 49 72 64h27q13 -15 57.5 -64t86.5 -92l-53 -62l-24 -7q-27 21 -100 69q-72 -40 -115 -69l-23 7l-38 62
q54 43 110 92z" />
    <glyph glyph-name="Ycircumflex" unicode="&#x176;" horiz-adv-x="650" 
d="M343 473q11 -47 22 -86h14l50 114q18 33 18 46q0 8 -7.5 11t-26.5 3l-2 6l18 79h155q32 0 66.5 1.5t44.5 2.5l3 -8l-18 -87q-33 -19 -66 -52t-56 -74l-110 -182q-13 -24 -17.5 -43t-8.5 -50q-2 -16 -2 -22q0 -22 10 -31.5t33 -9.5q18 0 32 1t18 2l4 -6l-20 -94
q-24 1 -96 3.5t-108 2.5q-39 0 -108.5 -4t-92.5 -5l19 92q43 3 65 10.5t32 23t14 45.5l2 16q1 7 1 20q0 28 -17 70l-80 199q-20 53 -84 84l-4 6l21 91l148 -2q27 0 91.5 3t85.5 4l6 -11l-19 -82q-41 0 -41 -27q0 -13 11 -60zM332.5 851.5q58.5 43.5 75.5 56.5h27q1 3 56 -48
q58 -54 100 -90l-43 -62l-24 -7q-44 20 -122 51q-50 -18 -134 -51l-22 7l-28 62q56 38 114.5 81.5z" />
    <glyph glyph-name="ycircumflex" unicode="&#x177;" horiz-adv-x="479" 
d="M459 484q12 -15 18.5 -40.5t6.5 -57.5q0 -61 -48 -155.5t-147 -230.5q-94 -128 -165 -185t-138 -57q-39 0 -70 17t-40 43q21 69 65 121l15 1q21 -27 39 -39.5t36 -12.5q19 0 40 13.5t48 42.5q-43 337 -59 408q-4 17 -10.5 23.5t-19.5 6.5l-26 -1l6 79l206 16l11 -9
q6 -91 7 -334h14q27 61 45 119.5t18 87.5q0 23 -13.5 41.5t-37.5 27.5l11 48zM224 696q56 49 72 64h27q13 -15 57.5 -64t86.5 -92l-53 -62l-24 -7q-27 21 -100 69q-72 -40 -115 -69l-23 7l-38 62q54 43 110 92z" />
    <glyph glyph-name="Ydieresis" unicode="&#x178;" horiz-adv-x="650" 
d="M343 473q11 -47 22 -86h14l50 114q18 33 18 46q0 8 -7.5 11t-26.5 3l-2 6l18 79h155q32 0 66.5 1.5t44.5 2.5l3 -8l-18 -87q-33 -19 -66 -52t-56 -74l-110 -182q-13 -24 -17.5 -43t-8.5 -50q-2 -16 -2 -22q0 -22 10 -31.5t33 -9.5q18 0 32 1t18 2l4 -6l-20 -94
q-24 1 -96 3.5t-108 2.5q-39 0 -108.5 -4t-92.5 -5l19 92q43 3 65 10.5t32 23t14 45.5l2 16q1 7 1 20q0 28 -17 70l-80 199q-20 53 -84 84l-4 6l21 91l148 -2q27 0 91.5 3t85.5 4l6 -11l-19 -82q-41 0 -41 -27q0 -13 11 -60zM241 702.5q-18 17.5 -18 49.5q0 45 26.5 72.5
t70.5 27.5q33 0 51 -18t18 -50q0 -44 -26.5 -71.5t-69.5 -27.5q-34 0 -52 17.5zM428.5 702.5q-18.5 17.5 -18.5 49.5q0 45 26.5 72.5t70.5 27.5q34 0 52 -18t18 -50q0 -44 -26.5 -71.5t-69.5 -27.5q-34 0 -52.5 17.5z" />
    <glyph glyph-name="Zacute" unicode="&#x179;" horiz-adv-x="578" 
d="M89 3l-81 -10l-29 58l374 491l-71 -10q-40 -6 -58.5 -16t-27 -31t-15.5 -67l-128 -9q5 24 20 103t24 137l12 11l175 -11h325l18 -54q-152 -180 -354 -452q-24 -32 -26 -34l99 15q47 7 72 39.5t39 102.5l128 9q-3 -12 -12.5 -51t-22.5 -100t-19 -105l-23 -22zM419.5 723
q-77.5 -16 -154.5 -35l-19 13l-21 71q77 29 152 60t97 40l16 -5l36 -108l-7 -16q-22 -4 -99.5 -20z" />
    <glyph glyph-name="zacute" unicode="&#x17a;" horiz-adv-x="454" 
d="M57 343.5q15 66.5 25 129.5l43 11l45 -9t78 -13.5t70 -6.5t40.5 5t26.5 19l26 29l68 -64l4 -20q-140 -132 -276 -275l22 3q10 0 21 -1l22 -2q38 -4 52 -4q24 0 42 23.5t22 61.5h31q8 -14 13 -41.5t5 -55.5q0 -40 -18 -73.5t-49 -52.5t-69 -19q-21 0 -40.5 6t-47.5 17
q-30 11 -47 16t-35 5q-27 0 -61 -10.5t-60 -27.5l-28 45l267 291l-41 1q-43 0 -64 -15t-34 -54l-73 -5q5 20 20 86.5zM321 597.5q-64 -34.5 -128 -72.5l-22 7l-41 61q59 51 115 101.5t72 65.5h17l72 -101l-2 -17q-19 -10 -83 -44.5z" />
    <glyph glyph-name="Zdotaccent" unicode="&#x17b;" horiz-adv-x="578" 
d="M89 3l-81 -10l-29 58l374 491l-71 -10q-40 -6 -58.5 -16t-27 -31t-15.5 -67l-128 -9q5 24 20 103t24 137l12 11l175 -11h325l18 -54q-152 -180 -354 -452q-24 -32 -26 -34l99 15q47 7 72 39.5t39 102.5l128 9q-3 -12 -12.5 -51t-22.5 -100t-19 -105l-23 -22zM298.5 704
q-21.5 21 -21.5 59q0 54 31.5 86.5t83.5 32.5q39 0 60.5 -21t21.5 -60q0 -53 -31.5 -85.5t-82.5 -32.5q-40 0 -61.5 21z" />
    <glyph glyph-name="zdotaccent" unicode="&#x17c;" horiz-adv-x="454" 
d="M57 343.5q15 66.5 25 129.5l43 11l45 -9t78 -13.5t70 -6.5t40.5 5t26.5 19l26 29l68 -64l4 -20q-140 -132 -276 -275l22 3q10 0 21 -1l22 -2q38 -4 52 -4q24 0 42 23.5t22 61.5h31q8 -14 13 -41.5t5 -55.5q0 -40 -18 -73.5t-49 -52.5t-69 -19q-21 0 -40.5 6t-47.5 17
q-30 11 -47 16t-35 5q-27 0 -61 -10.5t-60 -27.5l-28 45l267 291l-41 1q-43 0 -64 -15t-34 -54l-73 -5q5 20 20 86.5zM200.5 550q-21.5 21 -21.5 59q0 54 31.5 86.5t83.5 32.5q39 0 60.5 -21t21.5 -60q0 -53 -31.5 -85.5t-82.5 -32.5q-40 0 -61.5 21z" />
    <glyph glyph-name="Zcaron" unicode="&#x17d;" horiz-adv-x="578" 
d="M89 3l-81 -10l-29 58l374 491l-71 -10q-40 -6 -58.5 -16t-27 -31t-15.5 -67l-128 -9q5 24 20 103t24 137l12 11l175 -11h325l18 -54q-152 -180 -354 -452q-24 -32 -26 -34l99 15q47 7 72 39.5t39 102.5l128 9q-3 -12 -12.5 -51t-22.5 -100t-19 -105l-23 -22zM448 744.5
q-59 -43.5 -76 -56.5h-27q-14 13 -61.5 56.5t-93.5 81.5l42 62l24 7q19 -9 102 -43l20 -8q50 18 134 51l22 -7l29 -62q-56 -38 -115 -81.5z" />
    <glyph glyph-name="zcaron" unicode="&#x17e;" horiz-adv-x="454" 
d="M57 343.5q15 66.5 25 129.5l43 11l45 -9t78 -13.5t70 -6.5t40.5 5t26.5 19l26 29l68 -64l4 -20q-140 -132 -276 -275l22 3q10 0 21 -1l22 -2q38 -4 52 -4q24 0 42 23.5t22 61.5h31q8 -14 13 -41.5t5 -55.5q0 -40 -18 -73.5t-49 -52.5t-69 -19q-21 0 -40.5 6t-47.5 17
q-30 11 -47 16t-35 5q-27 0 -61 -10.5t-60 -27.5l-28 45l267 291l-41 1q-43 0 -64 -15t-34 -54l-73 -5q5 20 20 86.5zM176 740q31 -25 99 -69q72 40 116 69l22 -7l38 -62q-53 -43 -109.5 -92t-72.5 -64h-27q-13 15 -57 64t-86 92l53 62z" />
    <glyph glyph-name="uni018F" unicode="&#x18f;" horiz-adv-x="630" 
d="M560 583q75 -76 75 -208q0 -18 -4 -58q-12 -102 -59 -176t-123.5 -113.5t-174.5 -39.5q-129 0 -195.5 68t-66.5 197q0 34 4 65h2l10 18h377q2 18 2 49q0 71 -27.5 99t-93.5 28q-43 0 -94 -11.5t-93 -30.5l-13 7l-18 80q90 57 154 79.5t132 22.5q131 0 206 -76z
M357.5 147.5q23.5 33.5 36.5 104.5l-155 -7q-1 -11 -1 -30q0 -54 14 -77.5t45 -23.5q37 0 60.5 33.5z" />
    <glyph glyph-name="florin" unicode="&#x192;" horiz-adv-x="433" 
d="M120 283.5q-17 8.5 -66 8.5l-3 6l8 59l83 13v14q0 49 40 99t102.5 82.5t126.5 32.5q37 0 65.5 -7t28.5 -16q0 -15 -15 -60.5t-25 -61.5l-18 -3q-27 23 -43 31.5t-33 8.5q-29 0 -42 -18t-16 -60l-4 -43h114l5 -8l-10 -69h-114l-9 -193q-4 -66 -32.5 -126.5t-78.5 -98.5
t-115 -38q-33 0 -65 16.5t-32 33.5q0 20 15 61t29 58h18q4 -28 20 -45.5t38 -17.5q26 0 37 23.5t11 80.5l-1 205q-2 24 -19 32.5z" />
    <glyph glyph-name="Ohorn" unicode="&#x1a0;" horiz-adv-x="666" 
d="M712 642.5q-22 -34.5 -54.5 -57t-62.5 -23.5q43 -63 43 -164q0 -194 -92 -302t-263 -108q-125 0 -195 69.5t-70 198.5q0 194 90.5 298.5t263.5 104.5h1q67 0 125 -20q4 -1 16.5 -4.5t22.5 -3.5q20 0 32 14t12 35q0 14 -6 27.5t-16 23.5l5 14q26 20 51.5 32t44.5 12
q34 0 54 -21t20 -57q0 -34 -22 -68.5zM384.5 181q22.5 67 22.5 221q0 61 -16 90.5t-49 29.5q-50 0 -72.5 -67.5t-22.5 -220.5q0 -61 15.5 -90.5t47.5 -29.5q52 0 74.5 67z" />
    <glyph glyph-name="ohorn" unicode="&#x1a1;" horiz-adv-x="509" 
d="M82.5 23.5q-44.5 35.5 -58.5 102.5q-5 23 -5 58q0 90 32 158t91 105t137 37q27 0 46 -4.5t44 -12.5q25 -9 37 -9q15 0 23.5 11t8.5 31q0 14 -8 29.5t-21 26.5l3 14q23 20 48 32t44 12q20 0 35 -6q24 -10 37 -32.5t13 -52.5t-21 -61t-54 -52t-67 -23q21 -42 21 -92
q0 -92 -33.5 -161.5t-94.5 -107.5t-142 -38q-71 0 -115.5 35.5zM275 135.5q12 40.5 12 131.5q0 54 -8.5 75.5t-29.5 21.5q-24 0 -38 -45.5t-14 -123.5q0 -52 9.5 -76t29.5 -24q27 0 39 40.5z" />
    <glyph glyph-name="Uhorn" unicode="&#x1af;" horiz-adv-x="649" 
d="M730 801q20 -21 20 -57q0 -48 -19 -78.5t-68 -61.5q-32 -18 -46.5 -30.5t-19.5 -24.5t-8 -33l-35 -282q-17 -125 -85.5 -185.5t-194.5 -60.5q-115 0 -171 42t-56 129q0 19 3 40l38 306q2 24 2 29q0 15 -5 20t-17 5q-9 0 -17 -1t-11 -1l-2 4l21 89q16 -1 65 -2t109 -1
q37 0 77 1.5t55 2.5l-21 -93q-26 -3 -37.5 -14t-14.5 -35l-41 -289l-2 -28q-2 -77 59 -77q35 0 52 20t24 68q9 73 20.5 168.5t15.5 133.5q2 22 2 27q0 15 -4.5 21t-15.5 6q-7 0 -13 -1t-8 -1l-3 4l22 89q16 0 56.5 -1.5t75.5 -1.5q34 0 48.5 14.5t14.5 44.5q0 35 -20 58
l5 14q25 20 51 32t45 12q34 0 54 -21z" />
    <glyph glyph-name="uhorn" unicode="&#x1b0;" horiz-adv-x="531" 
d="M563 479q-15 -21 -40 -39q-44 -145 -66 -262l4 -4q13 6 31 21l23 -4l20 -48q-56 -63 -92 -95.5t-63.5 -46t-56.5 -13.5q-51 0 -51 48q0 10 6.5 41t22.5 96l-8 2q-62 -144 -119 -184q-66 0 -102.5 28.5t-36.5 78.5q0 17 9 53.5t20 73.5q11 36 19.5 70.5t8.5 50.5
q0 17 -8 25t-25 8h-28l12 82q67 0 223 12l16 -20q-73 -247 -73 -274q0 -12 2.5 -17t10.5 -5q31 0 110 205l13 100l20 12q62 3 62 42q0 20 -29 38l3 14q23 20 48 32t44 12q20 0 35 -6q24 -10 37 -32.5t13 -52.5q0 -21 -15 -42z" />
    <glyph glyph-name="uni01C4" unicode="&#x1c4;" horiz-adv-x="1238" 
d="M214 -5q-50 5 -88 5q-34 0 -81 -3.5t-61 -4.5l20 93q36 6 50.5 23t21.5 60l41 335q2 22 2 27q0 15 -4.5 21t-14.5 6q-11 0 -19.5 -1t-11.5 -1l-8 14l19 81q18 0 63.5 -1.5t85.5 -1.5q28 0 81.5 2.5t71.5 3.5q137 0 210 -64t73 -187t-48 -217t-135.5 -145.5t-202.5 -51.5
q-15 2 -65 7zM328 520.5q-5 -5.5 -8 -21.5q-5 -25 -29 -185.5t-24 -168.5q0 -18 6 -25t20 -7q70 0 106 72.5t36 212.5q0 71 -20.5 99.5t-71.5 28.5q-10 0 -15 -5.5zM749 3l-81 -10l-29 58l374 491l-71 -10q-40 -6 -58.5 -16t-27 -31t-15.5 -67l-128 -9q5 24 20 103t24 137
l12 11l175 -11h325l18 -54q-152 -180 -354 -452q-24 -32 -26 -34l99 15q47 7 72 39.5t39 102.5l128 9q-3 -12 -12.5 -51t-22.5 -100t-19 -105l-23 -22zM1108 744.5q-59 -43.5 -76 -56.5h-27q-14 13 -61.5 56.5t-93.5 81.5l42 62l24 7q19 -9 102 -43l20 -8q50 18 134 51
l22 -7l29 -62q-56 -38 -115 -81.5z" />
    <glyph glyph-name="uni01C5" unicode="&#x1c5;" horiz-adv-x="1114" 
d="M214 -5q-50 5 -88 5q-34 0 -81 -3.5t-61 -4.5l20 93q36 6 50.5 23t21.5 60l41 335q2 22 2 27q0 15 -4.5 21t-14.5 6q-11 0 -19.5 -1t-11.5 -1l-8 14l19 81q18 0 63.5 -1.5t85.5 -1.5q28 0 81.5 2.5t71.5 3.5q137 0 210 -64t73 -187t-48 -217t-135.5 -145.5t-202.5 -51.5
q-15 2 -65 7zM328 520.5q-5 -5.5 -8 -21.5q-5 -25 -29 -185.5t-24 -168.5q0 -18 6 -25t20 -7q70 0 106 72.5t36 212.5q0 71 -20.5 99.5t-71.5 28.5q-10 0 -15 -5.5zM717 343.5q15 66.5 25 129.5l43 11l45 -9t78 -13.5t70 -6.5t40.5 5t26.5 19l26 29l68 -64l4 -20
q-140 -132 -276 -275l22 3q10 0 21 -1l22 -2q38 -4 52 -4q24 0 42 23.5t22 61.5h31q8 -14 13 -41.5t5 -55.5q0 -40 -18 -73.5t-49 -52.5t-69 -19q-21 0 -40.5 6t-47.5 17q-30 11 -47 16t-35 5q-27 0 -61 -10.5t-60 -27.5l-28 45l267 291l-41 1q-43 0 -64 -15t-34 -54l-73 -5
q5 20 20 86.5zM836 740q31 -25 99 -69q72 40 116 69l22 -7l38 -62q-53 -43 -109.5 -92t-72.5 -64h-27q-13 15 -57 64t-86 92l53 62z" />
    <glyph glyph-name="uni01C6" unicode="&#x1c6;" horiz-adv-x="983" 
d="M459.5 162q9.5 8 38.5 33l23 -4l20 -48q-56 -63 -92 -95.5t-63.5 -46t-56.5 -13.5q-51 0 -51 48q0 11 6 39.5t19 82.5h-10q-39 -68 -70 -107.5t-63 -62.5q-71 0 -111 41.5t-40 115.5q0 77 37.5 153.5t97 125t119.5 48.5l67 -19l22 152q1 5 1 13q0 16 -8 23t-25 7h-28
l12 82q57 0 130.5 5t96.5 7l16 -20q-12 -63 -43.5 -231.5t-61.5 -333.5l4 -3q4 0 13.5 8zM254 205.5q32 62.5 53 135.5q-3 2 -14 8t-27.5 12t-32.5 6q-9 0 -18.5 -24t-16 -61.5t-6.5 -73.5q0 -29 4 -47t10 -18q16 0 48 62.5zM586 343.5q15 66.5 25 129.5l43 11l45 -9
t78 -13.5t70 -6.5t40.5 5t26.5 19l26 29l68 -64l4 -20q-140 -132 -276 -275l22 3q10 0 21 -1l22 -2q38 -4 52 -4q24 0 42 23.5t22 61.5h31q8 -14 13 -41.5t5 -55.5q0 -40 -18 -73.5t-49 -52.5t-69 -19q-21 0 -40.5 6t-47.5 17q-30 11 -47 16t-35 5q-27 0 -61 -10.5
t-60 -27.5l-28 45l267 291l-41 1q-43 0 -64 -15t-34 -54l-73 -5q5 20 20 86.5zM705 740q31 -25 99 -69q72 40 116 69l22 -7l38 -62q-53 -43 -109.5 -92t-72.5 -64h-27q-13 15 -57 64t-86 92l53 62z" />
    <glyph glyph-name="uni01C7" unicode="&#x1c7;" horiz-adv-x="872" 
d="M62 -4q-64 -4 -82 -6l20 92q37 6 52.5 24.5t20.5 63.5l42 338q2 18 2 22q0 17 -7 23t-23 6l-25 -1l-7 14l17 75h159q52 0 116 2t90 3l-23 -98q-51 -5 -70 -15.5t-23 -36.5q-15 -85 -33.5 -206.5t-18.5 -148.5q0 -17 7 -24.5t22 -7.5q34 0 53.5 13t32 47t24.5 103l130 13
l10 -15q-5 -22 -22.5 -101t-33.5 -166l-17 -16q-25 1 -111 4t-175 3q-63 0 -127 -4zM653 532q0 16 -5.5 21.5t-20.5 5.5q-12 0 -22 -1t-13 -1l-7 14l17 76l139 1q61 1 117 3.5t72 3.5l-20 -93q-29 -7 -37.5 -15.5t-13.5 -36.5q-13 -67 -32 -193t-32 -232q-14 -96 -82.5 -156
t-204.5 -93l-35 48l4 15q45 32 69 60t37 67t22 106l46 376z" />
    <glyph glyph-name="uni01C8" unicode="&#x1c8;" horiz-adv-x="843" 
d="M62 -4q-64 -4 -82 -6l20 92q37 6 52.5 24.5t20.5 63.5l42 338q2 18 2 22q0 17 -7 23t-23 6l-25 -1l-7 14l17 75h159q52 0 116 2t90 3l-23 -98q-51 -5 -70 -15.5t-23 -36.5q-15 -85 -33.5 -206.5t-18.5 -148.5q0 -17 7 -24.5t22 -7.5q34 0 53.5 13t32 47t24.5 103l130 13
l10 -15q-5 -22 -22.5 -101t-33.5 -166l-17 -16q-25 1 -111 4t-175 3q-63 0 -127 -4zM686 567.5q-20 20.5 -20 57.5q0 54 31.5 85.5t84.5 31.5q37 0 56.5 -19t19.5 -56q0 -55 -31.5 -87.5t-82.5 -32.5q-38 0 -58 20.5zM679 -134q-62 -71 -158 -114l-42 43l4 15
q54 42 76.5 87.5t33.5 135.5q8 45 28.5 170t20.5 143q0 17 -8 25t-25 8h-28l12 82q56 0 128.5 5t94.5 7l16 -20q-3 -12 -14 -63t-29 -148.5t-38 -227.5q-10 -77 -72 -148z" />
    <glyph glyph-name="uni01C9" unicode="&#x1c9;" horiz-adv-x="591" 
d="M218.5 163q11.5 9 36.5 32l23 -4l20 -48q-78 -90 -123 -122.5t-87 -32.5q-66 0 -66 67q0 17 48 309q40 234 40 251t-8 25t-25 8h-28l12 82q57 0 130.5 5t96.5 7l16 -20q-14 -67 -53 -269t-52 -296l4 -3q4 0 15.5 9zM434 567.5q-20 20.5 -20 57.5q0 54 31.5 85.5
t84.5 31.5q37 0 56.5 -19t19.5 -56q0 -55 -31.5 -87.5t-82.5 -32.5q-38 0 -58 20.5zM427 -134q-62 -71 -158 -114l-42 43l4 15q54 42 76.5 87.5t33.5 135.5q8 45 28.5 170t20.5 143q0 17 -8 25t-25 8h-28l12 82q56 0 128.5 5t94.5 7l16 -20q-3 -12 -14 -63t-29 -148.5
t-38 -227.5q-10 -77 -72 -148z" />
    <glyph glyph-name="uni01CA" unicode="&#x1ca;" horiz-adv-x="1047" 
d="M514 516l1 14q0 17 -6 23t-21 6h-30l-4 11l15 81q18 -1 66.5 -2.5t97.5 -1.5q45 0 84 1t53 2l-16 -90q-31 -4 -44.5 -18t-18.5 -45l-74 -497l-192 -12q-51 116 -94.5 209t-55.5 118h-15l-18 -178q-1 -6 -1 -17q0 -19 7.5 -26.5t25.5 -7.5q10 0 19.5 1.5t12.5 2.5l8 -9
l-21 -85q-18 1 -64 2.5t-87 1.5q-43 0 -91.5 -3.5t-62.5 -4.5l21 90q29 4 44 18.5t19 44.5l54 349q2 14 2 19q0 22 -13.5 30.5t-52.5 13.5l-10 14l15 81q13 -1 56.5 -3t89.5 -2q34 0 75 1.5t53 2.5q28 -72 61 -146t53 -117t26 -55h15zM828 532q0 16 -5.5 21.5t-20.5 5.5
q-12 0 -22 -1t-13 -1l-7 14l17 76l139 1q61 1 117 3.5t72 3.5l-20 -93q-29 -7 -37.5 -15.5t-13.5 -36.5q-13 -67 -32 -193t-32 -232q-14 -96 -82.5 -156t-204.5 -93l-35 48l4 15q45 32 69 60t37 67t22 106l46 376z" />
    <glyph glyph-name="uni01CB" unicode="&#x1cb;" horiz-adv-x="1018" 
d="M514 516l1 14q0 17 -6 23t-21 6h-30l-4 11l15 81q18 -1 66.5 -2.5t97.5 -1.5q45 0 84 1t53 2l-16 -90q-31 -4 -44.5 -18t-18.5 -45l-74 -497l-192 -12q-51 116 -94.5 209t-55.5 118h-15l-18 -178q-1 -6 -1 -17q0 -19 7.5 -26.5t25.5 -7.5q10 0 19.5 1.5t12.5 2.5l8 -9
l-21 -85q-18 1 -64 2.5t-87 1.5q-43 0 -91.5 -3.5t-62.5 -4.5l21 90q29 4 44 18.5t19 44.5l54 349q2 14 2 19q0 22 -13.5 30.5t-52.5 13.5l-10 14l15 81q13 -1 56.5 -3t89.5 -2q34 0 75 1.5t53 2.5q28 -72 61 -146t53 -117t26 -55h15zM861 567.5q-20 20.5 -20 57.5
q0 54 31.5 85.5t84.5 31.5q37 0 56.5 -19t19.5 -56q0 -55 -31.5 -87.5t-82.5 -32.5q-38 0 -58 20.5zM854 -134q-62 -71 -158 -114l-42 43l4 15q54 42 76.5 87.5t33.5 135.5q8 45 28.5 170t20.5 143q0 17 -8 25t-25 8h-28l12 82q56 0 128.5 5t94.5 7l16 -20q-3 -12 -14 -63
t-29 -148.5t-38 -227.5q-10 -77 -72 -148z" />
    <glyph glyph-name="uni01CC" unicode="&#x1cc;" horiz-adv-x="845" 
d="M550 146q-79 -90 -123 -122.5t-85 -32.5q-34 0 -49.5 14t-15.5 45q0 25 31 126q10 36 19 69.5t9 45.5q0 28 -16 28t-46 -60.5t-62 -154.5l-7 -59q-3 -21 -46.5 -36.5t-100.5 -15.5l-20 23l51 320q1 6 1 15q0 15 -7 21.5t-24 6.5h-27l12 82q81 0 220 12l13 -21
q-18 -63 -31 -150l7 1q61 146 112 182q69 0 108 -28.5t39 -78.5q0 -16 -11.5 -57.5t-23.5 -81.5q-19 -62 -22 -79l3 -3q5 0 15 8.5t35 32.5l24 -4zM688 567.5q-20 20.5 -20 57.5q0 54 31.5 85.5t84.5 31.5q37 0 56.5 -19t19.5 -56q0 -55 -31.5 -87.5t-82.5 -32.5
q-38 0 -58 20.5zM681 -134q-62 -71 -158 -114l-42 43l4 15q54 42 76.5 87.5t33.5 135.5q8 45 28.5 170t20.5 143q0 17 -8 25t-25 8h-28l12 82q56 0 128.5 5t94.5 7l16 -20q-3 -12 -14 -63t-29 -148.5t-38 -227.5q-10 -77 -72 -148z" />
    <glyph glyph-name="uni01CD" unicode="&#x1cd;" horiz-adv-x="661" 
d="M608 104q11 -15 32 -18l6 -10l-18 -79q-14 0 -54 1t-84 1q-58 0 -115 -2t-73 -3l-7 9l16 84q29 3 42.5 6.5t18.5 9.5t5 18v18v39l-73 2q-20 0 -44 -2t-33 -3l-13 -44q-6 -19 -6 -27t5.5 -11.5t17.5 -3.5h27l7 -10l-18 -83q-15 1 -58.5 2t-91.5 1l-130 -1l17 87
q36 9 55 55l211 502l267 16l14 -12l62 -493q4 -34 15 -49zM322 301q7 0 49 2l-10 175h-22l-65 -177h48zM470 744.5q-59 -43.5 -76 -56.5h-27q-14 13 -61.5 56.5t-93.5 81.5l42 62l24 7q19 -9 102 -43l20 -8q50 18 134 51l22 -7l29 -62q-56 -38 -115 -81.5z" />
    <glyph glyph-name="uni01CE" unicode="&#x1ce;" horiz-adv-x="528" 
d="M498 195l23 -4l20 -48q-56 -63 -92 -95.5t-63.5 -46t-56.5 -13.5q-51 0 -51 48q0 18 25 122h-10q-41 -70 -71.5 -109t-61.5 -61q-71 0 -111 41.5t-40 115.5q0 77 37.5 153.5t97 125t119.5 48.5l72 -20l5 20l19 12l134 -12l8 -23q-42 -191 -59 -292l4 -3q10 0 52 41z
M254.5 206q32.5 63 52.5 135q-41 26 -74 26q-9 0 -18.5 -24t-16 -61t-6.5 -73q0 -28 4 -47t10 -19q16 0 48.5 63zM209 742q31 -25 99 -69q72 40 116 69l22 -7l38 -62q-53 -43 -109.5 -92t-72.5 -64h-27q-13 15 -57 64t-86 92l53 62z" />
    <glyph glyph-name="uni01CF" unicode="&#x1cf;" horiz-adv-x="359" 
d="M287.5 290q-20.5 -138 -20.5 -165q0 -22 5.5 -30t19.5 -8q13 0 21 1t10 2l6 -10l-19 -84q-20 1 -70 2.5t-93 1.5q-39 0 -93 -2t-71 -3l18 85q40 9 53.5 24.5t18.5 57.5l43 346q2 18 2 22q0 17 -7 23t-23 6l-24 -1l-8 14l17 75h159q44 0 96.5 2t73.5 3l-18 -90
q-33 -5 -44 -14.5t-17 -37.5q-15 -82 -35.5 -220zM329 744.5q-59 -43.5 -76 -56.5h-27q-14 13 -61.5 56.5t-93.5 81.5l42 62l24 7q19 -9 102 -43l20 -8q50 18 134 51l22 -7l29 -62q-56 -38 -115 -81.5z" />
    <glyph glyph-name="uni01D0" unicode="&#x1d0;" horiz-adv-x="304" 
d="M231.5 163q11.5 9 36.5 32l23 -4l20 -48q-76 -88 -122 -121.5t-88 -33.5q-66 0 -66 67q45 266 45 291q0 17 -8 25t-25 8h-28l12 82q81 0 223 12l16 -20q-16 -62 -32.5 -145.5t-25.5 -150.5l4 -3q4 0 15.5 9zM87 734q31 -25 99 -69q72 40 116 69l22 -7l38 -62
q-53 -43 -109.5 -92t-72.5 -64h-27q-13 15 -57 64t-86 92l53 62z" />
    <glyph glyph-name="uni01D1" unicode="&#x1d1;" horiz-adv-x="633" 
d="M88 57.5q-70 69.5 -70 198.5q0 194 90.5 298.5t263.5 104.5q128 0 197 -66.5t69 -194.5q0 -194 -92 -302t-263 -108q-125 0 -195 69.5zM384.5 181q22.5 67 22.5 221q0 61 -16 90.5t-49 29.5q-50 0 -72.5 -67.5t-22.5 -220.5q0 -61 15.5 -90.5t47.5 -29.5q52 0 74.5 67z
M456 744.5q-59 -43.5 -76 -56.5h-27q-14 13 -61.5 56.5t-93.5 81.5l42 62l24 7q19 -9 102 -43l20 -8q50 18 134 51l22 -7l29 -62q-56 -38 -115 -81.5z" />
    <glyph glyph-name="uni01D2" unicode="&#x1d2;" horiz-adv-x="486" 
d="M65.5 39q-46.5 51 -46.5 145q0 90 33.5 158t94.5 105t142 37q87 0 133 -48.5t46 -140.5t-33.5 -161.5t-94.5 -107.5t-142 -38q-86 0 -132.5 51zM267.5 109.5q10.5 14.5 15.5 49.5t5 100q0 57 -8.5 81t-29.5 24q-29 0 -40.5 -32.5t-11.5 -116.5q0 -67 8.5 -93.5
t30.5 -26.5q20 0 30.5 14.5zM192 740q31 -25 99 -69q72 40 116 69l22 -7l38 -62q-53 -43 -109.5 -92t-72.5 -64h-27q-13 15 -57 64t-86 92l53 62z" />
    <glyph glyph-name="uni01D3" unicode="&#x1d3;" horiz-adv-x="605" 
d="M249 192q-2 -77 59 -77q35 0 52 20t24 68q9 73 20.5 168.5t15.5 133.5q2 22 2 27q0 15 -4.5 21t-15.5 6q-7 0 -13 -1t-8 -1l-3 4l22 89q13 0 48 -1.5t68 -1.5q48 0 88.5 1t54.5 2l-19 -90q-31 -10 -40 -18t-11 -26l-35 -282q-17 -125 -85.5 -185.5t-194.5 -60.5
q-115 0 -171 42t-56 129q0 19 3 40l38 306q2 24 2 29q0 15 -5 20t-17 5q-9 0 -17 -1t-11 -1l-2 4l21 89q16 -1 65 -2t109 -1q37 0 77 1.5t55 2.5l-21 -93q-26 -3 -37.5 -14t-14.5 -35l-41 -289zM452 744.5q-59 -43.5 -76 -56.5h-27q-14 13 -61.5 56.5t-93.5 81.5l42 62l24 7
q19 -9 102 -43l20 -8q50 18 134 51l22 -7l29 -62q-56 -38 -115 -81.5z" />
    <glyph glyph-name="uni01D4" unicode="&#x1d4;" horiz-adv-x="531" 
d="M535 143q-56 -63 -92 -95.5t-63.5 -46t-56.5 -13.5q-51 0 -51 48q0 10 6.5 41t22.5 96l-8 2q-62 -144 -119 -184q-66 0 -102.5 28.5t-36.5 78.5q0 17 9 53.5t20 73.5q11 36 19.5 70.5t8.5 50.5q0 17 -8 25t-25 8h-28l12 82q67 0 223 12l16 -20q-73 -247 -73 -274
q0 -12 2.5 -17t10.5 -5q31 0 110 205l13 100l20 12l147 -1l15 -20q-20 -63 -39.5 -139.5t-30.5 -135.5l4 -4q13 6 31 21l23 -4zM215 740q31 -25 99 -69q72 40 116 69l22 -7l38 -62q-53 -43 -109.5 -92t-72.5 -64h-27q-13 15 -57 64t-86 92l53 62z" />
    <glyph glyph-name="uni01D5" unicode="&#x1d5;" horiz-adv-x="605" 
d="M249 192q-2 -77 59 -77q35 0 52 20t24 68q9 73 20.5 168.5t15.5 133.5q2 22 2 27q0 15 -4.5 21t-15.5 6q-7 0 -13 -1t-8 -1l-3 4l22 89q13 0 48 -1.5t68 -1.5q48 0 88.5 1t54.5 2l-19 -90q-31 -10 -40 -18t-11 -26l-35 -282q-17 -125 -85.5 -185.5t-194.5 -60.5
q-115 0 -171 42t-56 129q0 19 3 40l38 306q2 24 2 29q0 15 -5 20t-17 5q-9 0 -17 -1t-11 -1l-2 4l21 89q16 -1 65 -2t109 -1q37 0 77 1.5t55 2.5l-21 -93q-26 -3 -37.5 -14t-14.5 -35l-41 -289zM539 901l-136 -1l-130 -1l-14 15l32 109l150 -1q30 0 69.5 2.5t51.5 3.5l8 -18
zM227 707.5q-18 17.5 -18 49.5q0 45 26.5 72.5t70.5 27.5q33 0 51 -17.5t18 -50.5q0 -44 -26.5 -71.5t-69.5 -27.5q-34 0 -52 17.5zM415 707.5q-18 17.5 -18 49.5q0 45 26.5 72.5t69.5 27.5q34 0 52 -18t18 -50q0 -44 -26.5 -71.5t-69.5 -27.5q-34 0 -52 17.5z" />
    <glyph glyph-name="uni01D6" unicode="&#x1d6;" horiz-adv-x="531" 
d="M535 143q-56 -63 -92 -95.5t-63.5 -46t-56.5 -13.5q-51 0 -51 48q0 10 6.5 41t22.5 96l-8 2q-62 -144 -119 -184q-66 0 -102.5 28.5t-36.5 78.5q0 17 9 53.5t20 73.5q11 36 19.5 70.5t8.5 50.5q0 17 -8 25t-25 8h-28l12 82q67 0 223 12l16 -20q-73 -247 -73 -274
q0 -12 2.5 -17t10.5 -5q31 0 110 205l13 100l20 12l147 -1l15 -20q-20 -63 -39.5 -139.5t-30.5 -135.5l4 -4q13 6 31 21l23 -4zM471 726l-136 -1l-130 -1l-14 15l32 109l150 -1q30 0 69.5 2.5t51.5 3.5l8 -18zM159 532.5q-18 17.5 -18 49.5q0 45 26.5 72.5t70.5 27.5
q33 0 51 -17.5t18 -50.5q0 -44 -26.5 -71.5t-69.5 -27.5q-34 0 -52 17.5zM347 532.5q-18 17.5 -18 49.5q0 45 26.5 72.5t69.5 27.5q34 0 52 -18t18 -50q0 -44 -26.5 -71.5t-69.5 -27.5q-34 0 -52 17.5z" />
    <glyph glyph-name="uni01D7" unicode="&#x1d7;" horiz-adv-x="605" 
d="M249 192q-2 -77 59 -77q35 0 52 20t24 68q9 73 20.5 168.5t15.5 133.5q2 22 2 27q0 15 -4.5 21t-15.5 6q-7 0 -13 -1t-8 -1l-3 4l22 89q13 0 48 -1.5t68 -1.5q48 0 88.5 1t54.5 2l-19 -90q-31 -10 -40 -18t-11 -26l-35 -282q-17 -125 -85.5 -185.5t-194.5 -60.5
q-115 0 -171 42t-56 129q0 19 3 40l38 306q2 24 2 29q0 15 -5 20t-17 5q-9 0 -17 -1t-11 -1l-2 4l21 89q16 -1 65 -2t109 -1q37 0 77 1.5t55 2.5l-21 -93q-26 -3 -37.5 -14t-14.5 -35l-41 -289zM455 911q-77 -16 -155 -35l-19 13l-21 71q77 29 152 60t97 40l16 -5l36 -108
l-7 -16q-22 -4 -99 -20zM232 707.5q-18 17.5 -18 49.5q0 45 26.5 72.5t70.5 27.5q33 0 51 -17.5t18 -50.5q0 -44 -26.5 -71.5t-69.5 -27.5q-34 0 -52 17.5zM420 707.5q-18 17.5 -18 49.5q0 45 26.5 72.5t69.5 27.5q34 0 52 -18t18 -50q0 -44 -26.5 -71.5t-69.5 -27.5
q-34 0 -52 17.5z" />
    <glyph glyph-name="uni01D8" unicode="&#x1d8;" horiz-adv-x="531" 
d="M535 143q-56 -63 -92 -95.5t-63.5 -46t-56.5 -13.5q-51 0 -51 48q0 10 6.5 41t22.5 96l-8 2q-62 -144 -119 -184q-66 0 -102.5 28.5t-36.5 78.5q0 17 9 53.5t20 73.5q11 36 19.5 70.5t8.5 50.5q0 17 -8 25t-25 8h-28l12 82q67 0 223 12l16 -20q-73 -247 -73 -274
q0 -12 2.5 -17t10.5 -5q31 0 110 205l13 100l20 12l147 -1l15 -20q-20 -63 -39.5 -139.5t-30.5 -135.5l4 -4q13 6 31 21l23 -4zM387 736q-77 -16 -155 -35l-19 13l-21 71q77 29 152 60t97 40l16 -5l36 -108l-7 -16q-22 -4 -99 -20zM164 532.5q-18 17.5 -18 49.5
q0 45 26.5 72.5t70.5 27.5q33 0 51 -17.5t18 -50.5q0 -44 -26.5 -71.5t-69.5 -27.5q-34 0 -52 17.5zM352 532.5q-18 17.5 -18 49.5q0 45 26.5 72.5t69.5 27.5q34 0 52 -18t18 -50q0 -44 -26.5 -71.5t-69.5 -27.5q-34 0 -52 17.5z" />
    <glyph glyph-name="uni01D9" unicode="&#x1d9;" horiz-adv-x="605" 
d="M249 192q-2 -77 59 -77q35 0 52 20t24 68q9 73 20.5 168.5t15.5 133.5q2 22 2 27q0 15 -4.5 21t-15.5 6q-7 0 -13 -1t-8 -1l-3 4l22 89q13 0 48 -1.5t68 -1.5q48 0 88.5 1t54.5 2l-19 -90q-31 -10 -40 -18t-11 -26l-35 -282q-17 -125 -85.5 -185.5t-194.5 -60.5
q-115 0 -171 42t-56 129q0 19 3 40l38 306q2 24 2 29q0 15 -5 20t-17 5q-9 0 -17 -1t-11 -1l-2 4l21 89q16 -1 65 -2t109 -1q37 0 77 1.5t55 2.5l-21 -93q-26 -3 -37.5 -14t-14.5 -35l-41 -289zM473 919.5q-59 -43.5 -76 -56.5h-26q-14 13 -62 56.5t-94 81.5l43 62l23 7
q45 -20 123 -51q74 27 133 51l23 -7l28 -62q-56 -38 -115 -81.5zM214 707.5q-18 17.5 -18 49.5q0 45 26.5 72.5t70.5 27.5q33 0 51 -17.5t18 -50.5q0 -44 -26.5 -71.5t-69.5 -27.5q-34 0 -52 17.5zM402 707.5q-18 17.5 -18 49.5q0 45 26.5 72.5t69.5 27.5q34 0 52 -18
t18 -50q0 -44 -26.5 -71.5t-69.5 -27.5q-34 0 -52 17.5z" />
    <glyph glyph-name="uni01DA" unicode="&#x1da;" horiz-adv-x="531" 
d="M535 143q-56 -63 -92 -95.5t-63.5 -46t-56.5 -13.5q-51 0 -51 48q0 10 6.5 41t22.5 96l-8 2q-62 -144 -119 -184q-66 0 -102.5 28.5t-36.5 78.5q0 17 9 53.5t20 73.5q11 36 19.5 70.5t8.5 50.5q0 17 -8 25t-25 8h-28l12 82q67 0 223 12l16 -20q-73 -247 -73 -274
q0 -12 2.5 -17t10.5 -5q31 0 110 205l13 100l20 12l147 -1l15 -20q-20 -63 -39.5 -139.5t-30.5 -135.5l4 -4q13 6 31 21l23 -4zM405 744.5q-59 -43.5 -76 -56.5h-26q-14 13 -62 56.5t-94 81.5l43 62l23 7q45 -20 123 -51q74 27 133 51l23 -7l28 -62q-56 -38 -115 -81.5z
M146 532.5q-18 17.5 -18 49.5q0 45 26.5 72.5t70.5 27.5q33 0 51 -17.5t18 -50.5q0 -44 -26.5 -71.5t-69.5 -27.5q-34 0 -52 17.5zM334 532.5q-18 17.5 -18 49.5q0 45 26.5 72.5t69.5 27.5q34 0 52 -18t18 -50q0 -44 -26.5 -71.5t-69.5 -27.5q-34 0 -52 17.5z" />
    <glyph glyph-name="uni01DB" unicode="&#x1db;" horiz-adv-x="605" 
d="M249 192q-2 -77 59 -77q35 0 52 20t24 68q9 73 20.5 168.5t15.5 133.5q2 22 2 27q0 15 -4.5 21t-15.5 6q-7 0 -13 -1t-8 -1l-3 4l22 89q13 0 48 -1.5t68 -1.5q48 0 88.5 1t54.5 2l-19 -90q-31 -10 -40 -18t-11 -26l-35 -282q-17 -125 -85.5 -185.5t-194.5 -60.5
q-115 0 -171 42t-56 129q0 19 3 40l38 306q2 24 2 29q0 15 -5 20t-17 5q-9 0 -17 -1t-11 -1l-2 4l21 89q16 -1 65 -2t109 -1q37 0 77 1.5t55 2.5l-21 -93q-26 -3 -37.5 -14t-14.5 -35l-41 -289zM295 1055l16 5q22 -9 97 -40t152 -60l-21 -71l-19 -13q-77 19 -154.5 35
t-99.5 20l-7 16zM232 707.5q-18 17.5 -18 49.5q0 45 26.5 72.5t70.5 27.5q33 0 51 -17.5t18 -50.5q0 -44 -26.5 -71.5t-69.5 -27.5q-34 0 -52 17.5zM420 707.5q-18 17.5 -18 49.5q0 45 26.5 72.5t69.5 27.5q34 0 52 -18t18 -50q0 -44 -26.5 -71.5t-69.5 -27.5
q-34 0 -52 17.5z" />
    <glyph glyph-name="uni01DC" unicode="&#x1dc;" horiz-adv-x="531" 
d="M535 143q-56 -63 -92 -95.5t-63.5 -46t-56.5 -13.5q-51 0 -51 48q0 10 6.5 41t22.5 96l-8 2q-62 -144 -119 -184q-66 0 -102.5 28.5t-36.5 78.5q0 17 9 53.5t20 73.5q11 36 19.5 70.5t8.5 50.5q0 17 -8 25t-25 8h-28l12 82q67 0 223 12l16 -20q-73 -247 -73 -274
q0 -12 2.5 -17t10.5 -5q31 0 110 205l13 100l20 12l147 -1l15 -20q-20 -63 -39.5 -139.5t-30.5 -135.5l4 -4q13 6 31 21l23 -4zM227 880l16 5q22 -9 97 -40t152 -60l-21 -71l-19 -13q-77 19 -154.5 35t-99.5 20l-7 16zM164 532.5q-18 17.5 -18 49.5q0 45 26.5 72.5
t70.5 27.5q33 0 51 -17.5t18 -50.5q0 -44 -26.5 -71.5t-69.5 -27.5q-34 0 -52 17.5zM352 532.5q-18 17.5 -18 49.5q0 45 26.5 72.5t69.5 27.5q34 0 52 -18t18 -50q0 -44 -26.5 -71.5t-69.5 -27.5q-34 0 -52 17.5z" />
    <glyph glyph-name="Gcaron" unicode="&#x1e6;" horiz-adv-x="618" 
d="M86 59q-68 70 -68 200q0 196 94 298t274 102q37 0 86.5 -6t87 -12t48.5 -8l6 -20q-3 -6 -11.5 -31.5t-20.5 -70t-22 -98.5l-156 -9q2 7 6.5 30t4.5 34q0 53 -66 53q-55 0 -78 -58t-23 -195q0 -75 15.5 -106.5t52.5 -31.5q21 0 38 5.5t17 6.5l7 63q1 6 1 17
q0 13 -5.5 18.5t-19.5 5.5q-12 0 -20 -0.5t-11 -0.5l-7 14l23 95h150q34 0 71 2t37 3l3 -58q-22 -13 -32.5 -30.5t-15.5 -44.5q-7 -34 -13.5 -85t-6.5 -65t0.5 -24.5t0.5 -13.5l-14 -16q0 -1 -31.5 -9.5t-84.5 -16t-124 -7.5q-125 0 -193 70zM468 744.5q-59 -43.5 -76 -56.5
h-27q-14 13 -61.5 56.5t-93.5 81.5l42 62l24 7q19 -9 102 -43l20 -8q50 18 134 51l22 -7l29 -62q-56 -38 -115 -81.5z" />
    <glyph glyph-name="gcaron" unicode="&#x1e7;" horiz-adv-x="501" 
d="M18 -225q-44 17 -68.5 47t-24.5 69q0 9 1 14l4 13q56 31 157 77l1 7q-36 16 -55.5 53t-19.5 89q0 77 38 154t97 126t119 49l72 -21l5 21l20 11l133 -11l15 -28q-13 -30 -25 -80t-16 -84q-1 -6 -7 -87q-1 -18 -5 -74t-8 -85q-6 -54 -63.5 -119.5t-134 -111.5t-135.5 -46
q-56 0 -100 17zM259 206q32 63 52 136q-3 2 -14 8t-27 11.5t-32 5.5q-10 0 -20 -24t-16.5 -61t-6.5 -73q0 -30 4.5 -48t11.5 -18q16 0 48 63zM260.5 -87q31.5 30 38.5 87l21 174l-10 3q-64 -99 -91 -134t-51 -51q-27 -17 -54 -38.5t-27 -25.5q0 -19 26.5 -32t64.5 -13
q51 0 82.5 30zM185 752q31 -25 99 -69q72 40 116 69l22 -7l38 -62q-53 -43 -109.5 -92t-72.5 -64h-27q-13 15 -57 64t-86 92l53 62z" />
    <glyph glyph-name="uni01EA" unicode="&#x1ea;" horiz-adv-x="633" 
d="M88 57.5q-70 69.5 -70 198.5q0 194 90.5 298.5t263.5 104.5q128 0 197 -66.5t69 -194.5q0 -194 -92 -302t-263 -108q-125 0 -195 69.5zM384.5 181q22.5 67 22.5 221q0 61 -16 90.5t-49 29.5q-50 0 -72.5 -67.5t-22.5 -220.5q0 -61 15.5 -90.5t47.5 -29.5q52 0 74.5 67z
M353 -241q-60 0 -93.5 23.5t-33.5 66.5q0 33 27.5 74t105.5 119h92q-47 -53 -71.5 -95t-24.5 -64q0 -13 6.5 -19.5t18.5 -6.5q24 0 59 23l28 -47q-75 -60 -114 -74z" />
    <glyph glyph-name="uni01EB" unicode="&#x1eb;" horiz-adv-x="486" 
d="M65.5 39q-46.5 51 -46.5 145q0 90 33.5 158t94.5 105t142 37q87 0 133 -48.5t46 -140.5t-33.5 -161.5t-94.5 -107.5t-142 -38q-86 0 -132.5 51zM267.5 109.5q10.5 14.5 15.5 49.5t5 100q0 57 -8.5 81t-29.5 24q-29 0 -40.5 -32.5t-11.5 -116.5q0 -67 8.5 -93.5
t30.5 -26.5q20 0 30.5 14.5zM230 -240q-60 0 -93.5 23.5t-33.5 66.5q0 33 27.5 74t105.5 119h92q-47 -53 -71.5 -95t-24.5 -64q0 -13 6.5 -19.5t18.5 -6.5q24 0 59 23l28 -47q-75 -60 -114 -74z" />
    <glyph glyph-name="Aringacute" unicode="&#x1fa;" horiz-adv-x="661" 
d="M608 104q11 -15 32 -18l6 -10l-18 -79q-14 0 -54 1t-84 1q-58 0 -115 -2t-73 -3l-7 9l16 84q29 3 42.5 6.5t18.5 9.5t5 18v18v39l-73 2q-20 0 -44 -2t-33 -3l-13 -44q-6 -19 -6 -27t5.5 -11.5t17.5 -3.5h27l7 -10l-18 -83q-15 1 -58.5 2t-91.5 1l-130 -1l17 87
q36 9 55 55l211 502l267 16l14 -12l62 -493q4 -34 15 -49zM322 301q7 0 49 2l-10 175h-22l-65 -177h48zM322.157 700.374q-20.249 21.5996 -20.249 58.498q0 46.7979 31.0488 77.8467t78.7471 31.0488q41.3984 0 60.7471 -21.5996q19.3496 -21.5986 19.3496 -54.8975
q0 -28.7988 -13.5 -54.8975q-13.499 -26.0996 -39.1484 -41.8486q-25.6484 -15.749 -58.9473 -15.749q-37.7988 0 -58.0479 21.5986zM418.004 749.422q10.7988 7.65039 10.7988 26.5488q0 12.5996 -8.09961 19.7998q-8.09961 7.19922 -22.499 7.19922
q-16.1992 0 -24.749 -8.99902q-8.54883 -9 -8.54883 -24.2998q0 -14.3994 8.99902 -21.1484q9 -6.75 20.6992 -6.75q12.5996 0 23.3994 7.64941zM462.653 906.674q-69.7471 -14.3994 -139.045 -31.499l-17.0986 11.6992l-18.8994 63.8975q69.2969 26.0996 136.794 53.998
t87.2969 35.998l14.3994 -4.49902l32.3984 -97.1963l-6.2998 -14.3994q-19.7988 -3.59961 -89.5459 -17.999z" />
    <glyph glyph-name="aringacute" unicode="&#x1fb;" horiz-adv-x="528" 
d="M498 195l23 -4l20 -48q-56 -63 -92 -95.5t-63.5 -46t-56.5 -13.5q-51 0 -51 48q0 18 25 122h-10q-41 -70 -71.5 -109t-61.5 -61q-71 0 -111 41.5t-40 115.5q0 77 37.5 153.5t97 125t119.5 48.5l72 -20l5 20l19 12l134 -12l8 -23q-42 -191 -59 -292l4 -3q10 0 52 41z
M254.5 206q32.5 63 52.5 135q-41 26 -74 26q-9 0 -18.5 -24t-16 -61t-6.5 -73q0 -28 4 -47t10 -19q16 0 48.5 63zM230.157 527.374q-20.249 21.5996 -20.249 58.498q0 46.7979 31.0488 77.8467t78.7471 31.0488q41.3984 0 60.7471 -21.5996
q19.3496 -21.5986 19.3496 -54.8975q0 -28.7988 -13.5 -54.8975q-13.499 -26.0996 -39.1484 -41.8486q-25.6484 -15.749 -58.9473 -15.749q-37.7988 0 -58.0479 21.5986zM326.004 576.422q10.7988 7.65039 10.7988 26.5488q0 12.5996 -8.09961 19.7998
q-8.09961 7.19922 -22.499 7.19922q-16.1992 0 -24.749 -8.99902q-8.54883 -9 -8.54883 -24.2998q0 -14.3994 8.99902 -21.1484q9 -6.75 20.6992 -6.75q12.5996 0 23.3994 7.64941zM370.653 733.674q-69.7471 -14.3994 -139.045 -31.499l-17.0986 11.6992l-18.8994 63.8975
q69.2969 26.0996 136.794 53.998t87.2969 35.998l14.3994 -4.49902l32.3984 -97.1963l-6.2998 -14.3994q-19.7988 -3.59961 -89.5459 -17.999z" />
    <glyph glyph-name="AEacute" unicode="&#x1fc;" horiz-adv-x="916" 
d="M366 99.5q14 8.5 16 30.5q0 5 1.5 13.5t1.5 18.5l3 57l-73 -13l-77 -23l-19 -53q-2 -5 -5.5 -14.5t-3.5 -14.5q0 -9 8.5 -10.5t43.5 -1.5l3 -10l-17 -83q-25 1 -85 2t-109 1q-30 0 -51 -0.5t-27 -0.5l8 87q38 9 62 55l201 391q-1 16 -6 22t-16 6q-9 0 -16 -1t-9 -1
l-11 14l19 79q28 -1 118 -2t212 -1q105 1 208 4.5t131 7.5l11 -16q-5 -18 -20.5 -79t-26.5 -120l-139 -9q1 5 4 21.5t3 27.5q0 26 -18 34.5t-68 8.5q-34 0 -34 -24l6 -131l70 13l101 26l15 -17l-25 -116l-96 -12l-62 -12l1 -73q1 -67 44 -67q37 0 56 8t31 30t24 69l129 9
l11 -15q-5 -17 -22 -77.5t-31 -128.5l-17 -16q-28 1 -130.5 4t-223.5 3q-52 -1 -102.5 -3t-65.5 -3l-6 9l16 84q40 4 54 12.5zM393 337l4 141h-22l-71 -154l40 4zM564 772.5q-64 -34.5 -128 -72.5l-22 7l-41 61q59 51 115 101.5t72 65.5h17l72 -101l-2 -17
q-19 -10 -83 -44.5z" />
    <glyph glyph-name="aeacute" unicode="&#x1fd;" horiz-adv-x="686" 
d="M610 194l52 -58q-17 -41 -53 -75t-82 -53.5t-92 -19.5q-63 0 -106 37.5t-54 101.5q-33 -55 -60 -87t-55 -52q-71 0 -111 41.5t-40 115.5q0 77 37.5 153.5t97 125t119.5 48.5l153 -29q66 40 137 40q64 0 101 -30t37 -82q0 -47 -25 -80.5t-78.5 -60.5t-145.5 -55
q8 -49 55 -49q50 0 91 71zM235.5 174q18.5 31 38.5 79.5t33 97.5q-43 16 -74 16q-9 0 -18.5 -24t-16 -61t-6.5 -73q0 -29 4 -47.5t10 -18.5q11 0 29.5 31zM470.5 336q-18.5 -27 -25.5 -79q47 18 71.5 39t24.5 44q0 10 -7 16.5t-18 6.5q-27 0 -45.5 -27zM487 597.5
q-64 -34.5 -128 -72.5l-22 7l-41 61q59 51 115 101.5t72 65.5h17l72 -101l-2 -17q-19 -10 -83 -44.5z" />
    <glyph glyph-name="Oslashacute" unicode="&#x1fe;" horiz-adv-x="633" 
d="M577 585q61 -66 61 -187q0 -194 -92 -302t-263 -108q-54 0 -96 13l-79 -118l-95 55l-4 10l77 112q-68 70 -68 196q0 194 90.5 298.5t263.5 104.5q59 0 102 -13l69 106l97 -54l2 -13zM384.5 181q22.5 67 22.5 221q0 61 -16 90.5t-49 29.5q-50 0 -72.5 -67.5t-22.5 -220.5
q0 -61 15.5 -90.5t47.5 -29.5q52 0 74.5 67zM388.5 723q-77.5 -16 -154.5 -35l-19 13l-21 71q77 29 152 60t97 40l16 -5l36 -108l-7 -16q-22 -4 -99.5 -20z" />
    <glyph glyph-name="oslashacute" unicode="&#x1ff;" horiz-adv-x="486" 
d="M440 412q28 -47 28 -117q0 -92 -33.5 -161.5t-94.5 -107.5t-142 -38q-21 0 -41 3l-87 -129l-95 55l-4 10l85 124q-37 49 -37 133q0 90 33.5 158t94.5 105t142 37q26 0 53 -5l83 128l97 -54l2 -13zM267.5 109.5q10.5 14.5 15.5 49.5t5 100q0 57 -8.5 81t-29.5 24
q-29 0 -40.5 -32.5t-11.5 -116.5q0 -67 8.5 -93.5t30.5 -26.5q20 0 30.5 14.5zM320 597.5q-64 -34.5 -128 -72.5l-22 7l-41 61q59 51 115 101.5t72 65.5h17l72 -101l-2 -17q-19 -10 -83 -44.5z" />
    <glyph glyph-name="uni0200" unicode="&#x200;" horiz-adv-x="661" 
d="M608 104q11 -15 32 -18l6 -10l-18 -79q-14 0 -54 1t-84 1q-58 0 -115 -2t-73 -3l-7 9l16 84q29 3 42.5 6.5t18.5 9.5t5 18v18v39l-73 2q-20 0 -44 -2t-33 -3l-13 -44q-6 -19 -6 -27t5.5 -11.5t17.5 -3.5h27l7 -10l-18 -83q-15 1 -58.5 2t-91.5 1l-130 -1l17 87
q36 9 55 55l211 502l267 16l14 -12l62 -493q4 -34 15 -49zM322 301q7 0 49 2l-10 175h-22l-65 -177h48zM211.5 742.5q-52.5 32.5 -67.5 41.5v15l66 81l15 -1q13 -13 57 -59t92 -93l-38 -48l-19 -5q-53 36 -105.5 68.5zM410 742.5q-53 32.5 -68 41.5v15l66 81l15 -1
q13 -13 57.5 -59t91.5 -93l-38 -48l-19 -5q-52 36 -105 68.5z" />
    <glyph glyph-name="uni0201" unicode="&#x201;" horiz-adv-x="528" 
d="M498 195l23 -4l20 -48q-56 -63 -92 -95.5t-63.5 -46t-56.5 -13.5q-51 0 -51 48q0 18 25 122h-10q-41 -70 -71.5 -109t-61.5 -61q-71 0 -111 41.5t-40 115.5q0 77 37.5 153.5t97 125t119.5 48.5l72 -20l5 20l19 12l134 -12l8 -23q-42 -191 -59 -292l4 -3q10 0 52 41z
M254.5 206q32.5 63 52.5 135q-41 26 -74 26q-9 0 -18.5 -24t-16 -61t-6.5 -73q0 -28 4 -47t10 -19q16 0 48.5 63zM148.5 621.5q-42.5 44.5 -55.5 57.5l3 14l84 63l14 -5q9 -16 38.5 -66.5t69.5 -116.5l-49 -38h-19q-43 47 -85.5 91.5zM311.5 622q-42.5 44 -55.5 57l3 14
l84 63l14 -5q9 -16 38.5 -66.5t69.5 -116.5l-49 -38h-19q-43 48 -85.5 92z" />
    <glyph glyph-name="uni0202" unicode="&#x202;" horiz-adv-x="661" 
d="M608 104q11 -15 32 -18l6 -10l-18 -79q-14 0 -54 1t-84 1q-58 0 -115 -2t-73 -3l-7 9l16 84q29 3 42.5 6.5t18.5 9.5t5 18v18v39l-73 2q-20 0 -44 -2t-33 -3l-13 -44q-6 -19 -6 -27t5.5 -11.5t17.5 -3.5h27l7 -10l-18 -83q-15 1 -58.5 2t-91.5 1l-130 -1l17 87
q36 9 55 55l211 502l267 16l14 -12l62 -493q4 -34 15 -49zM322 301q7 0 49 2l-10 175h-22l-65 -177h48zM328.5 740.5q-33.5 -19.5 -52.5 -54.5l-25 11l-35 66q25 57 72.5 94.5t116.5 37.5q73 0 114.5 -40.5t53.5 -99.5l-47 -58l-27 -3q-10 34 -36 50t-62 16
q-39 0 -72.5 -19.5z" />
    <glyph glyph-name="uni0203" unicode="&#x203;" horiz-adv-x="528" 
d="M498 195l23 -4l20 -48q-56 -63 -92 -95.5t-63.5 -46t-56.5 -13.5q-51 0 -51 48q0 18 25 122h-10q-41 -70 -71.5 -109t-61.5 -61q-71 0 -111 41.5t-40 115.5q0 77 37.5 153.5t97 125t119.5 48.5l72 -20l5 20l19 12l134 -12l8 -23q-42 -191 -59 -292l4 -3q10 0 52 41z
M254.5 206q32.5 63 52.5 135q-41 26 -74 26q-9 0 -18.5 -24t-16 -61t-6.5 -73q0 -28 4 -47t10 -19q16 0 48.5 63zM236.5 567.5q-33.5 -19.5 -52.5 -54.5l-25 11l-35 66q25 57 72.5 94.5t116.5 37.5q73 0 114.5 -40.5t53.5 -99.5l-47 -58l-27 -3q-10 34 -36 50t-62 16
q-39 0 -72.5 -19.5z" />
    <glyph glyph-name="uni0204" unicode="&#x204;" horiz-adv-x="586" 
d="M277.5 122q8.5 -7 31.5 -7q42 0 63.5 8t34 29.5t24.5 68.5l129 9l11 -15q-5 -17 -22 -77.5t-31 -128.5l-17 -16q-27 1 -121 4t-190 3q-64 0 -128 -4t-82 -6l20 92q37 6 52.5 24.5t20.5 63.5l43 335q2 22 2 27q0 15 -5 21t-17 6q-8 0 -15.5 -1t-9.5 -1l-10 14l19 79
q23 -1 89.5 -2t140.5 -1q90 0 175.5 3.5t126.5 8.5l11 -16q-5 -18 -21 -79t-26 -120l-140 -9q1 5 4.5 21.5t3.5 27.5q0 26 -18 34.5t-68 8.5q-19 0 -25.5 -5t-9.5 -22l-20 -113l79 -1q18 0 56 2.5t51 3.5l10 -14l-28 -115q-12 1 -45 2t-70 1q-23 0 -45.5 -2.5t-27.5 -3.5
l-3 -23q-11 -68 -11 -86q0 -22 8.5 -29zM183.5 742.5q-52.5 32.5 -67.5 41.5v15l66 81l15 -1q13 -13 57 -59t92 -93l-38 -48l-19 -5q-53 36 -105.5 68.5zM382 742.5q-53 32.5 -68 41.5v15l66 81l15 -1q13 -13 57.5 -59t91.5 -93l-38 -48l-19 -5q-52 36 -105 68.5z" />
    <glyph glyph-name="uni0205" unicode="&#x205;" horiz-adv-x="429" 
d="M409 290.5q-25 -33.5 -78.5 -60.5t-145.5 -55q8 -49 55 -49q50 0 91 71l22 -3l52 -58q-17 -41 -53 -75t-82 -53.5t-92 -19.5q-74 0 -119 50.5t-45 134.5t38.5 155t103 113t140.5 42q64 0 101 -30t37 -82q0 -47 -25 -80.5zM213.5 336q-18.5 -27 -25.5 -79q47 18 71.5 39
t24.5 44q0 10 -7 16.5t-18 6.5q-27 0 -45.5 -27zM133.5 619.5q-42.5 44.5 -55.5 57.5l3 14l84 63l14 -5q9 -16 38.5 -66.5t69.5 -116.5l-49 -38h-19q-43 47 -85.5 91.5zM296.5 620q-42.5 44 -55.5 57l3 14l84 63l14 -5q9 -16 38.5 -66.5t69.5 -116.5l-49 -38h-19
q-43 48 -85.5 92z" />
    <glyph glyph-name="uni0206" unicode="&#x206;" horiz-adv-x="586" 
d="M277.5 122q8.5 -7 31.5 -7q42 0 63.5 8t34 29.5t24.5 68.5l129 9l11 -15q-5 -17 -22 -77.5t-31 -128.5l-17 -16q-27 1 -121 4t-190 3q-64 0 -128 -4t-82 -6l20 92q37 6 52.5 24.5t20.5 63.5l43 335q2 22 2 27q0 15 -5 21t-17 6q-8 0 -15.5 -1t-9.5 -1l-10 14l19 79
q23 -1 89.5 -2t140.5 -1q90 0 175.5 3.5t126.5 8.5l11 -16q-5 -18 -21 -79t-26 -120l-140 -9q1 5 4.5 21.5t3.5 27.5q0 26 -18 34.5t-68 8.5q-19 0 -25.5 -5t-9.5 -22l-20 -113l79 -1q18 0 56 2.5t51 3.5l10 -14l-28 -115q-12 1 -45 2t-70 1q-23 0 -45.5 -2.5t-27.5 -3.5
l-3 -23q-11 -68 -11 -86q0 -22 8.5 -29zM300.5 740.5q-33.5 -19.5 -52.5 -54.5l-25 11l-35 66q25 57 72.5 94.5t116.5 37.5q73 0 114.5 -40.5t53.5 -99.5l-47 -58l-27 -3q-10 34 -36 50t-62 16q-39 0 -72.5 -19.5z" />
    <glyph glyph-name="uni0207" unicode="&#x207;" horiz-adv-x="429" 
d="M409 290.5q-25 -33.5 -78.5 -60.5t-145.5 -55q8 -49 55 -49q50 0 91 71l22 -3l52 -58q-17 -41 -53 -75t-82 -53.5t-92 -19.5q-74 0 -119 50.5t-45 134.5t38.5 155t103 113t140.5 42q64 0 101 -30t37 -82q0 -47 -25 -80.5zM213.5 336q-18.5 -27 -25.5 -79q47 18 71.5 39
t24.5 44q0 10 -7 16.5t-18 6.5q-27 0 -45.5 -27zM221.5 565.5q-33.5 -19.5 -52.5 -54.5l-25 11l-35 66q25 57 72.5 94.5t116.5 37.5q73 0 114.5 -40.5t53.5 -99.5l-47 -58l-27 -3q-10 34 -36 50t-62 16q-39 0 -72.5 -19.5z" />
    <glyph glyph-name="uni0208" unicode="&#x208;" horiz-adv-x="359" 
d="M287.5 290q-20.5 -138 -20.5 -165q0 -22 5.5 -30t19.5 -8q13 0 21 1t10 2l6 -10l-19 -84q-20 1 -70 2.5t-93 1.5q-39 0 -93 -2t-71 -3l18 85q40 9 53.5 24.5t18.5 57.5l43 346q2 18 2 22q0 17 -7 23t-23 6l-24 -1l-8 14l17 75h159q44 0 96.5 2t73.5 3l-18 -90
q-33 -5 -44 -14.5t-17 -37.5q-15 -82 -35.5 -220zM70.5 742.5q-52.5 32.5 -67.5 41.5v15l66 81l15 -1q13 -13 57 -59t92 -93l-38 -48l-19 -5q-53 36 -105.5 68.5zM269 742.5q-53 32.5 -68 41.5v15l66 81l15 -1q13 -13 57.5 -59t91.5 -93l-38 -48l-19 -5q-52 36 -105 68.5z
" />
    <glyph glyph-name="uni0209" unicode="&#x209;" horiz-adv-x="304" 
d="M231.5 163q11.5 9 36.5 32l23 -4l20 -48q-76 -88 -122 -121.5t-88 -33.5q-66 0 -66 67q45 266 45 291q0 17 -8 25t-25 8h-28l12 82q81 0 223 12l16 -20q-16 -62 -32.5 -145.5t-25.5 -150.5l4 -3q4 0 15.5 9zM26.5 613.5q-42.5 44.5 -55.5 57.5l3 14l84 63l14 -5
q9 -16 38.5 -66.5t69.5 -116.5l-49 -38h-19q-43 47 -85.5 91.5zM189.5 614q-42.5 44 -55.5 57l3 14l84 63l14 -5q9 -16 38.5 -66.5t69.5 -116.5l-49 -38h-19q-43 48 -85.5 92z" />
    <glyph glyph-name="uni020A" unicode="&#x20a;" horiz-adv-x="359" 
d="M287.5 290q-20.5 -138 -20.5 -165q0 -22 5.5 -30t19.5 -8q13 0 21 1t10 2l6 -10l-19 -84q-20 1 -70 2.5t-93 1.5q-39 0 -93 -2t-71 -3l18 85q40 9 53.5 24.5t18.5 57.5l43 346q2 18 2 22q0 17 -7 23t-23 6l-24 -1l-8 14l17 75h159q44 0 96.5 2t73.5 3l-18 -90
q-33 -5 -44 -14.5t-17 -37.5q-15 -82 -35.5 -220zM187.5 740.5q-33.5 -19.5 -52.5 -54.5l-25 11l-35 66q25 57 72.5 94.5t116.5 37.5q73 0 114.5 -40.5t53.5 -99.5l-47 -58l-27 -3q-10 34 -36 50t-62 16q-39 0 -72.5 -19.5z" />
    <glyph glyph-name="uni020B" unicode="&#x20b;" horiz-adv-x="304" 
d="M231.5 163q11.5 9 36.5 32l23 -4l20 -48q-76 -88 -122 -121.5t-88 -33.5q-66 0 -66 67q45 266 45 291q0 17 -8 25t-25 8h-28l12 82q81 0 223 12l16 -20q-16 -62 -32.5 -145.5t-25.5 -150.5l4 -3q4 0 15.5 9zM114.5 559.5q-33.5 -19.5 -52.5 -54.5l-25 11l-35 66
q25 57 72.5 94.5t116.5 37.5q73 0 114.5 -40.5t53.5 -99.5l-47 -58l-27 -3q-10 34 -36 50t-62 16q-39 0 -72.5 -19.5z" />
    </font>
</defs>
</svg>
